InterAlia-SemiBold.ufo
<glyph name="exclam" format="2">
  <advance height="2479.0" width="632.8"/>
  <unicode hex="0021"/>
  <outline>
    <contour>
      <point x="457.2" y="1489.0" type="line"/>
      <point x="175.6" y="1489.0" type="line"/>
      <point x="199.8" y="437.4" type="line"/>
      <point x="433.0" y="437.4" type="line"/>
    </contour>
    <component base="period" xOffset="19.400000000000002"/>
  </outline>
</glyph>
<glyph name="numbersign" format="2">
  <advance height="2479.0" width="1317.6"/>
  <unicode hex="0023"/>
  <outline>
    <contour>
      <point x="696.6" y="0.0" type="line"/>
      <point x="900.0" y="0.0" type="line"/>
      <point x="1144.6" y="1489.0" type="line"/>
      <point x="940.6" y="1489.0" type="line"/>
    </contour>
    <contour>
      <point x="25.799999999999997" y="383.8" type="line"/>
      <point x="1171.6" y="383.8" type="line"/>
      <point x="1205.4" y="587.8" type="line"/>
      <point x="59.2" y="587.8" type="line"/>
    </contour>
    <contour>
      <point x="172.6" y="0.0" type="line"/>
      <point x="376.6" y="0.0" type="line"/>
      <point x="621.0" y="1489.0" type="line"/>
      <point x="417.0" y="1489.0" type="line"/>
    </contour>
    <contour>
      <point x="111.6" y="901.8" type="line"/>
      <point x="1257.8" y="901.8" type="line"/>
      <point x="1291.8" y="1105.2" type="line"/>
      <point x="145.0" y="1105.2" type="line"/>
    </contour>
  </outline>
</glyph>
<glyph name="dollar" format="2">
  <advance height="2479.0" width="1329.2"/>
  <unicode hex="0024"/>
  <anchor x="668.6" y="-15.6" name="bottom"/>
  <anchor x="667.8" y="0.0" name="cedilla"/>
  <anchor x="664.8" y="1676.0" name="top"/>
  <outline>
    <contour>
      <point x="611.8" y="-186.0" type="line"/>
      <point x="731.4" y="-186.0" type="line"/>
      <point x="731.4" y="1676.0" type="line"/>
      <point x="611.8" y="1676.0" type="line"/>
    </contour>
    <component base="S"/>
  </outline>
</glyph>
<glyph name="percent" format="2">
  <advance height="2479.0" width="1728.0"/>
  <unicode hex="0025"/>
  <anchor x="1099.6" y="791.0" name="dnom"/>
  <anchor x="616.4" y="698.0" name="numr"/>
  <outline>
    <contour>
      <point x="928.2" y="279.0" type="line" smooth="yes"/>
      <point x="928.2" y="105.6"/>
      <point x="1039.0" y="-41.2"/>
      <point x="1243.6" y="-41.2" type="curve" smooth="yes"/>
      <point x="1447.4" y="-41.2"/>
      <point x="1558.4" y="105.6"/>
      <point x="1558.4" y="279.0" type="curve" smooth="yes"/>
      <point x="1558.4" y="358.0" type="line" smooth="yes"/>
      <point x="1558.4" y="532.6"/>
      <point x="1449.8" y="678.2"/>
      <point x="1243.6" y="678.2" type="curve" smooth="yes"/>
      <point x="1042.0" y="678.2"/>
      <point x="928.2" y="531.4"/>
      <point x="928.2" y="358.0" type="curve" smooth="yes"/>
    </contour>
    <contour>
      <point x="1118.8" y="358.0" type="line" smooth="yes"/>
      <point x="1118.8" y="435.2"/>
      <point x="1152.2" y="512.4"/>
      <point x="1243.6" y="512.4" type="curve" smooth="yes"/>
      <point x="1339.8" y="512.4"/>
      <point x="1367.2" y="435.2"/>
      <point x="1367.2" y="358.0" type="curve" smooth="yes"/>
      <point x="1367.2" y="279.0" type="line" smooth="yes"/>
      <point x="1367.2" y="201.8"/>
      <point x="1336.8" y="125.8"/>
      <point x="1243.6" y="125.8" type="curve" smooth="yes"/>
      <point x="1150.4" y="125.8"/>
      <point x="1118.8" y="203.0"/>
      <point x="1118.8" y="279.0" type="curve" smooth="yes"/>
    </contour>
    <contour>
      <point x="172.0" y="1132.0" type="line" smooth="yes"/>
      <point x="172.0" y="958.6"/>
      <point x="281.8" y="812.4"/>
      <point x="487.4" y="812.4" type="curve" smooth="yes"/>
      <point x="690.2" y="812.4"/>
      <point x="802.2" y="957.4"/>
      <point x="802.2" y="1132.0" type="curve" smooth="yes"/>
      <point x="802.2" y="1210.0" type="line" smooth="yes"/>
      <point x="802.2" y="1384.6"/>
      <point x="693.2" y="1530.8"/>
      <point x="487.4" y="1530.8" type="curve" smooth="yes"/>
      <point x="286.0" y="1530.8"/>
      <point x="172.0" y="1384.6"/>
      <point x="172.0" y="1210.0" type="curve" smooth="yes"/>
    </contour>
    <contour>
      <point x="363.2" y="1210.0" type="line" smooth="yes"/>
      <point x="363.2" y="1286.0"/>
      <point x="395.4" y="1365.0"/>
      <point x="487.4" y="1365.0" type="curve" smooth="yes"/>
      <point x="583.0" y="1365.0"/>
      <point x="610.4" y="1287.2"/>
      <point x="610.4" y="1210.0" type="curve" smooth="yes"/>
      <point x="610.4" y="1132.0" type="line" smooth="yes"/>
      <point x="610.4" y="1053.8"/>
      <point x="580.0" y="977.8"/>
      <point x="487.4" y="977.8" type="curve" smooth="yes"/>
      <point x="394.4" y="977.8"/>
      <point x="363.2" y="1053.8"/>
      <point x="363.2" y="1132.0" type="curve" smooth="yes"/>
    </contour>
    <component base="fraction" xOffset="577.8"/>
  </outline>
</glyph>
<glyph name="ampersand" format="2">
  <advance height="2479.0" width="1356.6"/>
  <unicode hex="0026"/>
  <outline>
    <contour>
      <point x="580.2" y="-21.2" type="curve"/>
      <point x="715.4" y="-21.2"/>
      <point x="865.0" y="21.2"/>
      <point x="970.2" y="116.4" type="curve"/>
      <point x="993.8" y="133.2"/>
      <point x="1014.4" y="149.0"/>
      <point x="1037.0" y="165.8" type="curve"/>
      <point x="1146.8" y="251.4"/>
      <point x="1254.0" y="420.2"/>
      <point x="1254.0" y="702.0" type="curve"/>
      <point x="1027.6" y="702.0" type="line"/>
      <point x="1027.6" y="397.2"/>
      <point x="801.8" y="195.0"/>
      <point x="588.2" y="195.0" type="curve" smooth="yes"/>
      <point x="442.8" y="195.0"/>
      <point x="347.8" y="289.6"/>
      <point x="347.8" y="407.6" type="curve"/>
      <point x="347.8" y="458.4"/>
      <point x="386.6" y="537.0"/>
      <point x="485.8" y="609.6" type="curve" smooth="yes"/>
      <point x="787.6" y="829.8" type="line" smooth="yes"/>
      <point x="911.6" y="919.8"/>
      <point x="984.6" y="1028.4"/>
      <point x="984.6" y="1169.8" type="curve"/>
      <point x="984.6" y="1351.8"/>
      <point x="841.4" y="1507.6"/>
      <point x="607.0" y="1507.6" type="curve" smooth="yes"/>
      <point x="371.4" y="1507.6"/>
      <point x="216.0" y="1351.0"/>
      <point x="216.0" y="1140.2" type="curve" smooth="yes"/>
      <point x="216.0" y="953.6"/>
      <point x="347.0" y="816.0"/>
      <point x="476.8" y="664.6" type="curve" smooth="yes"/>
      <point x="1058.2" y="0.0" type="line"/>
      <point x="1342.2" y="0.0" type="line"/>
      <point x="643.4" y="818.6" type="line" smooth="yes"/>
      <point x="542.6" y="939.4"/>
      <point x="451.0" y="1038.2"/>
      <point x="451.0" y="1136.0" type="curve" smooth="yes"/>
      <point x="451.0" y="1216.6"/>
      <point x="515.0" y="1291.6"/>
      <point x="610.6" y="1292.0" type="curve" smooth="yes"/>
      <point x="704.0" y="1292.0"/>
      <point x="761.8" y="1222.0"/>
      <point x="761.8" y="1157.8" type="curve"/>
      <point x="761.8" y="1082.2"/>
      <point x="720.8" y="1029.6"/>
      <point x="642.6" y="978.8" type="curve"/>
      <point x="378.8" y="799.2" type="line"/>
      <point x="207.4" y="682.2"/>
      <point x="89.8" y="574.4"/>
      <point x="89.8" y="396.0" type="curve"/>
      <point x="89.8" y="158.4"/>
      <point x="275.4" y="-21.2"/>
    </contour>
  </outline>
</glyph>
<glyph name="quotesingle" format="2">
  <advance height="2479.0" width="468.6"/>
  <unicode hex="0027"/>
  <outline>
    <contour>
      <point x="360.4" y="1489.0" type="line"/>
      <point x="108.2" y="1489.0" type="line"/>
      <point x="143.2" y="941.0" type="line"/>
      <point x="325.4" y="941.0" type="line"/>
    </contour>
  </outline>
</glyph>
<glyph name="parenleft" format="2">
  <advance height="2479.0" width="806.0"/>
  <unicode hex="0028"/>
  <outline>
    <contour>
      <point x="200.8" y="607.2" type="curve" smooth="yes"/>
      <point x="200.8" y="244.4"/>
      <point x="297.4" y="-58.0"/>
      <point x="489.0" y="-316.6" type="curve"/>
      <point x="736.8" y="-316.6" type="line"/>
      <point x="588.8" y="-124.6"/>
      <point x="474.8" y="262.4"/>
      <point x="474.8" y="607.2" type="curve" smooth="yes"/>
      <point x="474.8" y="952.6"/>
      <point x="588.8" y="1339.0"/>
      <point x="736.8" y="1531.0" type="curve"/>
      <point x="489.0" y="1531.0" type="line"/>
      <point x="297.4" y="1272.4"/>
      <point x="200.8" y="970.6"/>
    </contour>
  </outline>
</glyph>
<glyph name="asterisk" format="2">
  <advance height="2479.0" width="1112.4"/>
  <unicode hex="002A"/>
  <outline>
    <contour>
      <point x="467.6" y="652.0" type="line"/>
      <point x="644.8" y="652.0" type="line"/>
      <point x="628.4" y="946.4" type="line"/>
      <point x="875.8" y="783.6" type="line"/>
      <point x="964.2" y="938.4" type="line"/>
      <point x="699.8" y="1071.0" type="line"/>
      <point x="964.2" y="1202.6" type="line"/>
      <point x="875.8" y="1357.4" type="line"/>
      <point x="628.4" y="1194.6" type="line"/>
      <point x="644.8" y="1489.0" type="line"/>
      <point x="467.6" y="1489.0" type="line"/>
      <point x="484.0" y="1194.6" type="line"/>
      <point x="236.6" y="1357.4" type="line"/>
      <point x="148.2" y="1202.6" type="line"/>
      <point x="412.6" y="1071.0" type="line"/>
      <point x="148.2" y="938.4" type="line"/>
      <point x="236.6" y="783.6" type="line"/>
      <point x="484.0" y="946.4" type="line"/>
    </contour>
  </outline>
</glyph>
<glyph name="plus" format="2">
  <advance height="2479.0" width="1378.0"/>
  <unicode hex="002B"/>
  <outline>
    <contour>
      <point x="574.6" y="88.0" type="line"/>
      <point x="802.8" y="88.0" type="line"/>
      <point x="802.8" y="1094.4" type="line"/>
      <point x="574.6" y="1094.4" type="line"/>
    </contour>
    <contour>
      <point x="185.8" y="476.8" type="line"/>
      <point x="1192.2" y="476.8" type="line"/>
      <point x="1192.2" y="705.0" type="line"/>
      <point x="185.8" y="705.0" type="line"/>
    </contour>
  </outline>
</glyph>
<glyph name="comma" format="2">
  <advance height="2479.0" width="604.6"/>
  <unicode hex="002C"/>
  <outline>
    <contour>
      <point x="444.6" y="204.0" type="line"/>
      <point x="211.8" y="204.0" type="line"/>
      <point x="206.4" y="122.0" type="line" smooth="yes"/>
      <point x="193.8" y="-75.4"/>
      <point x="142.4" y="-275.8"/>
      <point x="121.8" y="-364.0" type="curve"/>
      <point x="299.2" y="-364.0" type="line"/>
      <point x="334.2" y="-272.2"/>
      <point x="414.6" y="-59.8"/>
      <point x="435.0" y="123.8" type="curve" smooth="yes"/>
    </contour>
  </outline>
</glyph>
<glyph name="hyphen" format="2">
  <advance height="2479.0" width="954.6"/>
  <unicode hex="002D"/>
  <outline>
    <contour>
      <point x="812.2" y="729.4" type="line"/>
      <point x="141.8" y="729.4" type="line"/>
      <point x="141.8" y="512.2" type="line"/>
      <point x="812.2" y="512.2" type="line"/>
    </contour>
  </outline>
</glyph>
<glyph name="period" format="2">
  <advance height="2479.0" width="594.4"/>
  <unicode hex="002E"/>
  <outline>
    <contour>
      <point x="297.2" y="-16.4" type="curve" smooth="yes"/>
      <point x="383.2" y="-16.4"/>
      <point x="456.6" y="55.0"/>
      <point x="457.4" y="143.4" type="curve" smooth="yes"/>
      <point x="456.6" y="231.0"/>
      <point x="383.2" y="302.4"/>
      <point x="297.2" y="302.4" type="curve" smooth="yes"/>
      <point x="208.8" y="302.4"/>
      <point x="136.6" y="231.0"/>
      <point x="137.0" y="143.4" type="curve" smooth="yes"/>
      <point x="136.6" y="55.0"/>
      <point x="208.8" y="-16.4"/>
    </contour>
  </outline>
</glyph>
<glyph name="slash" format="2">
  <advance height="2479.0" width="775.6"/>
  <unicode hex="002F"/>
  <outline>
    <contour>
      <point x="743.2" y="1559.0" type="line"/>
      <point x="513.0" y="1559.0" type="line"/>
      <point x="33.0" y="-224.0" type="line"/>
      <point x="263.2" y="-224.0" type="line"/>
    </contour>
  </outline>
</glyph>
<glyph name="zero" format="2">
  <advance height="2479.0" width="1366.0"/>
  <unicode hex="0030"/>
  <outline>
    <contour>
      <point x="683.2" y="-28.4" type="curve" smooth="yes"/>
      <point x="1042.6" y="-28.4"/>
      <point x="1256.4" y="254.4"/>
      <point x="1256.8" y="743.8" type="curve" smooth="yes"/>
      <point x="1257.2" y="1229.6"/>
      <point x="1040.8" y="1510.0"/>
      <point x="683.2" y="1510.0" type="curve" smooth="yes"/>
      <point x="325.2" y="1510.0"/>
      <point x="110.0" y="1230.0"/>
      <point x="109.2" y="743.8" type="curve" smooth="yes"/>
      <point x="108.8" y="255.2"/>
      <point x="323.4" y="-28.0"/>
    </contour>
    <contour>
      <point x="683.2" y="199.2" type="curve" smooth="yes"/>
      <point x="497.0" y="199.2"/>
      <point x="381.4" y="385.4"/>
      <point x="381.8" y="743.8" type="curve" smooth="yes"/>
      <point x="382.6" y="1098.4"/>
      <point x="498.2" y="1285.4"/>
      <point x="683.2" y="1285.4" type="curve" smooth="yes"/>
      <point x="867.8" y="1285.4"/>
      <point x="983.8" y="1098.4"/>
      <point x="984.2" y="743.8" type="curve" smooth="yes"/>
      <point x="984.6" y="385.4"/>
      <point x="869.0" y="199.2"/>
    </contour>
  </outline>
</glyph>
<glyph name="one" format="2">
  <advance height="2479.0" width="985.0"/>
  <unicode hex="0031"/>
  <outline>
    <contour>
      <point x="738.4" y="1489.0" type="line"/>
      <point x="481.0" y="1489.0" type="line"/>
      <point x="111.0" y="1251.2" type="line"/>
      <point x="111.0" y="1004.2" type="line"/>
      <point x="459.8" y="1226.8" type="line"/>
      <point x="468.2" y="1226.8" type="line"/>
      <point x="468.2" y="0.0" type="line"/>
      <point x="738.4" y="0.0" type="line"/>
    </contour>
  </outline>
</glyph>
<glyph name="two" format="2">
  <advance height="2479.0" width="1273.0"/>
  <unicode hex="0032"/>
  <anchor x="861.8" y="787.6" name="cross"/>
  <outline>
    <contour>
      <point x="132.0" y="0.0" type="line"/>
      <point x="1153.2" y="0.0" type="line"/>
      <point x="1153.2" y="225.2" type="line"/>
      <point x="504.6" y="225.2" type="line"/>
      <point x="504.6" y="236.0" type="line"/>
      <point x="761.6" y="496.6" type="line" smooth="yes"/>
      <point x="1051.2" y="774.8"/>
      <point x="1131.2" y="910.4"/>
      <point x="1131.2" y="1078.2" type="curve" smooth="yes"/>
      <point x="1131.2" y="1327.4"/>
      <point x="928.2" y="1510.0"/>
      <point x="628.4" y="1510.0" type="curve" smooth="yes"/>
      <point x="333.4" y="1510.0"/>
      <point x="123.6" y="1326.0"/>
      <point x="124.0" y="1044.2" type="curve"/>
      <point x="380.8" y="1044.2" type="line"/>
      <point x="380.4" y="1195.6"/>
      <point x="476.2" y="1291.4"/>
      <point x="624.8" y="1291.4" type="curve" smooth="yes"/>
      <point x="766.2" y="1291.4"/>
      <point x="872.2" y="1204.0"/>
      <point x="872.2" y="1064.2" type="curve" smooth="yes"/>
      <point x="872.2" y="939.4"/>
      <point x="796.4" y="850.6"/>
      <point x="649.6" y="701.8" type="curve" smooth="yes"/>
      <point x="132.0" y="195.0" type="line"/>
    </contour>
  </outline>
</glyph>
<glyph name="three" format="2">
  <advance height="2479.0" width="1334.6"/>
  <unicode hex="0033"/>
  <outline>
    <contour>
      <point x="666.6" y="-20.0" type="curve" smooth="yes"/>
      <point x="985.6" y="-20.0"/>
      <point x="1217.4" y="162.6"/>
      <point x="1216.6" y="413.6" type="curve" smooth="yes"/>
      <point x="1217.4" y="599.8"/>
      <point x="1101.4" y="734.2"/>
      <point x="892.6" y="763.2" type="curve"/>
      <point x="892.6" y="775.2" type="line"/>
      <point x="1054.0" y="810.4"/>
      <point x="1161.8" y="929.8"/>
      <point x="1161.0" y="1097.0" type="curve" smooth="yes"/>
      <point x="1161.8" y="1324.0"/>
      <point x="969.0" y="1510.0"/>
      <point x="671.4" y="1510.0" type="curve" smooth="yes"/>
      <point x="382.0" y="1510.0"/>
      <point x="157.6" y="1337.4"/>
      <point x="151.8" y="1087.8" type="curve"/>
      <point x="411.6" y="1087.8" type="line"/>
      <point x="415.6" y="1213.0"/>
      <point x="531.8" y="1291.4"/>
      <point x="669.6" y="1291.4" type="curve" smooth="yes"/>
      <point x="809.0" y="1291.4"/>
      <point x="901.4" y="1206.6"/>
      <point x="900.6" y="1081.8" type="curve" smooth="yes"/>
      <point x="901.4" y="951.0"/>
      <point x="793.6" y="864.8"/>
      <point x="639.4" y="864.8" type="curve" smooth="yes"/>
      <point x="507.2" y="864.8" type="line"/>
      <point x="507.2" y="657.2" type="line"/>
      <point x="639.4" y="657.2" type="line" smooth="yes"/>
      <point x="827.4" y="657.2"/>
      <point x="939.4" y="562.6"/>
      <point x="939.0" y="427.6" type="curve" smooth="yes"/>
      <point x="939.4" y="296.2"/>
      <point x="826.0" y="206.0"/>
      <point x="666.6" y="206.0" type="curve" smooth="yes"/>
      <point x="516.0" y="206.0"/>
      <point x="400.6" y="283.6"/>
      <point x="394.2" y="404.8" type="curve"/>
      <point x="121.0" y="404.8" type="line"/>
      <point x="128.0" y="153.2"/>
      <point x="352.6" y="-20.0"/>
    </contour>
  </outline>
</glyph>
<glyph name="four" format="2">
  <advance height="2479.0" width="1363.8"/>
  <unicode hex="0034"/>
  <outline>
    <contour>
      <point x="105.0" y="276.2" type="line"/>
      <point x="1264.4" y="276.2" type="line"/>
      <point x="1264.4" y="497.8" type="line"/>
      <point x="381.6" y="497.8" type="line"/>
      <point x="381.6" y="509.8" type="line"/>
      <point x="807.8" y="1184.4" type="line"/>
      <point x="916.2" y="1184.4" type="line"/>
      <point x="916.2" y="1489.0" type="line"/>
      <point x="738.0" y="1489.0" type="line"/>
      <point x="105.0" y="491.2" type="line"/>
    </contour>
    <contour>
      <point x="815.6" y="0.0" type="line"/>
      <point x="1073.6" y="0.0" type="line"/>
      <point x="1073.6" y="1489.0" type="line"/>
      <point x="818.8" y="1489.0" type="line"/>
      <point x="818.8" y="438.0" type="line"/>
      <point x="815.6" y="342.2" type="line"/>
    </contour>
  </outline>
</glyph>
<glyph name="five" format="2">
  <advance height="2479.0" width="1295.0"/>
  <unicode hex="0035"/>
  <outline>
    <contour>
      <point x="650.0" y="-20.0" type="curve" smooth="yes"/>
      <point x="965.0" y="-20.0"/>
      <point x="1184.6" y="193.4"/>
      <point x="1184.6" y="489.2" type="curve" smooth="yes"/>
      <point x="1184.6" y="775.8"/>
      <point x="985.4" y="983.0"/>
      <point x="715.0" y="983.0" type="curve" smooth="yes"/>
      <point x="594.6" y="983.0"/>
      <point x="487.0" y="934.6"/>
      <point x="431.6" y="869.2" type="curve"/>
      <point x="422.6" y="869.2" type="line"/>
      <point x="466.0" y="1264.2" type="line"/>
      <point x="1106.8" y="1264.2" type="line"/>
      <point x="1106.8" y="1489.0" type="line"/>
      <point x="243.0" y="1489.0" type="line"/>
      <point x="165.2" y="721.2" type="line"/>
      <point x="408.2" y="681.2" type="line"/>
      <point x="459.4" y="736.8"/>
      <point x="553.2" y="773.6"/>
      <point x="642.8" y="773.6" type="curve" smooth="yes"/>
      <point x="806.4" y="772.4"/>
      <point x="924.2" y="652.0"/>
      <point x="924.2" y="482.6" type="curve" smooth="yes"/>
      <point x="924.2" y="316.0"/>
      <point x="809.4" y="198.0"/>
      <point x="650.0" y="198.0" type="curve" smooth="yes"/>
      <point x="515.4" y="198.0"/>
      <point x="407.0" y="283.2"/>
      <point x="398.0" y="404.8" type="curve"/>
      <point x="136.2" y="404.8" type="line"/>
      <point x="143.6" y="157.4"/>
      <point x="359.2" y="-20.0"/>
    </contour>
  </outline>
</glyph>
<glyph name="six" format="2">
  <advance height="2479.0" width="1327.0"/>
  <unicode hex="0036"/>
  <outline>
    <contour>
      <point x="677.8" y="-20.0" type="curve" smooth="yes"/>
      <point x="999.2" y="-22.4"/>
      <point x="1215.2" y="198.2"/>
      <point x="1214.8" y="492.8" type="curve" smooth="yes"/>
      <point x="1215.2" y="774.8"/>
      <point x="1014.6" y="978.2"/>
      <point x="753.6" y="978.2" type="curve" smooth="yes"/>
      <point x="593.2" y="978.2"/>
      <point x="453.0" y="900.8"/>
      <point x="381.0" y="772.2" type="curve"/>
      <point x="370.8" y="772.2" type="line"/>
      <point x="371.6" y="1086.4"/>
      <point x="486.2" y="1276.8"/>
      <point x="692.8" y="1276.8" type="curve" smooth="yes"/>
      <point x="821.0" y="1276.8"/>
      <point x="908.0" y="1202.2"/>
      <point x="935.0" y="1087.8" type="curve"/>
      <point x="1201.0" y="1087.8" type="line"/>
      <point x="1168.8" y="1328.4"/>
      <point x="974.4" y="1510.0"/>
      <point x="692.8" y="1510.0" type="curve" smooth="yes"/>
      <point x="335.8" y="1510.0"/>
      <point x="109.4" y="1211.8"/>
      <point x="109.0" y="703.0" type="curve" smooth="yes"/>
      <point x="108.2" y="156.0"/>
      <point x="392.0" y="-18.2"/>
    </contour>
    <contour>
      <point x="677.0" y="198.0" type="curve" smooth="yes"/>
      <point x="517.6" y="198.0"/>
      <point x="400.2" y="329.4"/>
      <point x="400.4" y="485.0" type="curve" smooth="yes"/>
      <point x="401.4" y="641.0"/>
      <point x="522.4" y="773.0"/>
      <point x="680.6" y="773.0" type="curve" smooth="yes"/>
      <point x="837.8" y="773.0"/>
      <point x="954.0" y="647.0"/>
      <point x="953.2" y="486.8" type="curve" smooth="yes"/>
      <point x="954.0" y="324.6"/>
      <point x="834.2" y="198.0"/>
    </contour>
  </outline>
</glyph>
<glyph name="seven" format="2">
  <advance height="2479.0" width="1201.8"/>
  <unicode hex="0037"/>
  <outline>
    <contour>
      <point x="187.0" y="0.0" type="line"/>
      <point x="466.8" y="0.0" type="line"/>
      <point x="1099.4" y="1259.4" type="line"/>
      <point x="1099.4" y="1489.0" type="line"/>
      <point x="85.0" y="1489.0" type="line"/>
      <point x="85.0" y="1264.2" type="line"/>
      <point x="820.6" y="1264.2" type="line"/>
      <point x="820.6" y="1254.0" type="line"/>
    </contour>
  </outline>
</glyph>
<glyph name="eight" format="2">
  <advance height="2479.0" width="1323.4"/>
  <unicode hex="0038"/>
  <outline>
    <contour>
      <point x="661.4" y="-20.0" type="curve" smooth="yes"/>
      <point x="984.6" y="-20.0"/>
      <point x="1214.4" y="157.0"/>
      <point x="1215.0" y="399.2" type="curve" smooth="yes"/>
      <point x="1214.4" y="585.6"/>
      <point x="1076.8" y="740.8"/>
      <point x="903.8" y="770.4" type="curve"/>
      <point x="903.8" y="780.6" type="line"/>
      <point x="1054.6" y="813.8"/>
      <point x="1159.4" y="949.2"/>
      <point x="1160.0" y="1110.4" type="curve" smooth="yes"/>
      <point x="1159.4" y="1339.8"/>
      <point x="948.4" y="1510.0"/>
      <point x="661.4" y="1510.0" type="curve" smooth="yes"/>
      <point x="372.6" y="1510.0"/>
      <point x="162.2" y="1340.2"/>
      <point x="162.8" y="1110.4" type="curve" smooth="yes"/>
      <point x="162.2" y="949.6"/>
      <point x="265.8" y="813.8"/>
      <point x="419.0" y="780.6" type="curve"/>
      <point x="419.0" y="770.4" type="line"/>
      <point x="242.6" y="740.8"/>
      <point x="106.8" y="585.6"/>
      <point x="107.4" y="399.2" type="curve" smooth="yes"/>
      <point x="106.8" y="157.0"/>
      <point x="337.0" y="-20.0"/>
    </contour>
    <contour>
      <point x="661.4" y="187.6" type="curve" smooth="yes"/>
      <point x="493.4" y="187.6"/>
      <point x="384.2" y="280.8"/>
      <point x="385.4" y="418.0" type="curve" smooth="yes"/>
      <point x="384.2" y="560.4"/>
      <point x="501.2" y="662.0"/>
      <point x="661.4" y="662.0" type="curve" smooth="yes"/>
      <point x="820.4" y="662.0"/>
      <point x="937.4" y="560.0"/>
      <point x="938.0" y="418.0" type="curve" smooth="yes"/>
      <point x="937.4" y="280.4"/>
      <point x="828.2" y="187.6"/>
    </contour>
    <contour>
      <point x="661.4" y="866.6" type="curve" smooth="yes"/>
      <point x="523.2" y="866.6"/>
      <point x="424.6" y="955.2"/>
      <point x="425.8" y="1085.4" type="curve" smooth="yes"/>
      <point x="424.6" y="1213.2"/>
      <point x="520.8" y="1299.4"/>
      <point x="661.4" y="1299.4" type="curve" smooth="yes"/>
      <point x="800.8" y="1299.4"/>
      <point x="896.0" y="1212.8"/>
      <point x="897.2" y="1085.4" type="curve" smooth="yes"/>
      <point x="896.0" y="954.8"/>
      <point x="797.8" y="866.6"/>
    </contour>
  </outline>
</glyph>
<glyph name="nine" format="2">
  <advance height="2479.0" width="1327.0"/>
  <unicode hex="0039"/>
  <outline>
    <contour>
      <point x="649.2" y="1510.0" type="curve" smooth="yes"/>
      <point x="326.4" y="1511.8"/>
      <point x="111.8" y="1290.4"/>
      <point x="112.2" y="999.2" type="curve" smooth="yes"/>
      <point x="113.0" y="718.4"/>
      <point x="312.2" y="515.6"/>
      <point x="573.4" y="515.6" type="curve" smooth="yes"/>
      <point x="733.8" y="515.6"/>
      <point x="874.4" y="593.0"/>
      <point x="946.0" y="721.6" type="curve"/>
      <point x="956.2" y="721.6" type="line"/>
      <point x="955.8" y="402.6"/>
      <point x="840.2" y="213.2"/>
      <point x="634.2" y="213.2" type="curve" smooth="yes"/>
      <point x="505.6" y="213.2"/>
      <point x="418.8" y="287.8"/>
      <point x="392.0" y="405.4" type="curve"/>
      <point x="126.6" y="405.4" type="line"/>
      <point x="157.0" y="159.6"/>
      <point x="352.2" y="-20.0"/>
      <point x="634.2" y="-20.0" type="curve" smooth="yes"/>
      <point x="991.6" y="-20.0"/>
      <point x="1218.8" y="277.2"/>
      <point x="1218.4" y="790.8" type="curve" smooth="yes"/>
      <point x="1217.6" y="1333.0"/>
      <point x="935.0" y="1508.2"/>
    </contour>
    <contour>
      <point x="650.4" y="1291.6" type="curve" smooth="yes"/>
      <point x="809.4" y="1291.6"/>
      <point x="926.2" y="1159.6"/>
      <point x="926.6" y="1007.0" type="curve" smooth="yes"/>
      <point x="927.4" y="853.2"/>
      <point x="804.0" y="720.8"/>
      <point x="647.4" y="720.8" type="curve" smooth="yes"/>
      <point x="488.6" y="720.8"/>
      <point x="374.6" y="846.0"/>
      <point x="373.8" y="1005.2" type="curve" smooth="yes"/>
      <point x="373.4" y="1165.0"/>
      <point x="492.2" y="1291.6"/>
    </contour>
  </outline>
</glyph>
<glyph name="less" format="2">
  <advance height="2479.0" width="1378.0"/>
  <unicode hex="003C"/>
  <outline>
    <contour>
      <point x="191.8" y="486.8" type="line"/>
      <point x="1186.2" y="27.0" type="line"/>
      <point x="1186.2" y="285.4" type="line"/>
      <point x="479.4" y="588.2" type="line"/>
      <point x="487.8" y="574.2" type="line"/>
      <point x="487.8" y="607.6" type="line"/>
      <point x="479.4" y="594.2" type="line"/>
      <point x="1186.2" y="897.4" type="line"/>
      <point x="1186.2" y="1155.4" type="line"/>
      <point x="191.8" y="696.0" type="line"/>
    </contour>
  </outline>
</glyph>
<glyph name="equal" format="2">
  <advance height="2479.0" width="1378.0"/>
  <unicode hex="003D"/>
  <outline>
    <contour>
      <point x="205.0" y="711.8" type="line"/>
      <point x="1173.0" y="711.8" type="line"/>
      <point x="1173.0" y="936.4" type="line"/>
      <point x="205.0" y="936.4" type="line"/>
    </contour>
    <contour>
      <point x="205.0" y="246.0" type="line"/>
      <point x="1173.0" y="246.0" type="line"/>
      <point x="1173.0" y="470.6" type="line"/>
      <point x="205.0" y="470.6" type="line"/>
    </contour>
  </outline>
</glyph>
<glyph name="greater" format="2">
  <advance height="2479.0" width="1378.0"/>
  <unicode hex="003E"/>
  <outline>
    <contour>
      <point x="1186.2" y="486.8" type="line"/>
      <point x="1186.2" y="696.0" type="line"/>
      <point x="191.8" y="1155.4" type="line"/>
      <point x="191.8" y="897.4" type="line"/>
      <point x="898.2" y="594.2" type="line"/>
      <point x="890.2" y="607.6" type="line"/>
      <point x="890.2" y="574.2" type="line"/>
      <point x="898.2" y="588.2" type="line"/>
      <point x="191.8" y="285.4" type="line"/>
      <point x="191.8" y="27.0" type="line"/>
    </contour>
  </outline>
</glyph>
<glyph name="question" format="2">
  <advance height="2479.0" width="1114.6"/>
  <unicode hex="003F"/>
  <outline>
    <contour>
      <point x="387.0" y="437.4" type="line"/>
      <point x="629.2" y="437.4" type="line"/>
      <point x="629.2" y="456.8" type="line" smooth="yes"/>
      <point x="631.0" y="611.2"/>
      <point x="680.2" y="681.8"/>
      <point x="799.4" y="754.6" type="curve" smooth="yes"/>
      <point x="933.0" y="834.0"/>
      <point x="1017.0" y="942.8"/>
      <point x="1017.0" y="1110.2" type="curve" smooth="yes"/>
      <point x="1017.0" y="1355.6"/>
      <point x="825.4" y="1510.0"/>
      <point x="547.4" y="1510.0" type="curve" smooth="yes"/>
      <point x="292.6" y="1510.0"/>
      <point x="86.8" y="1368.8"/>
      <point x="79.0" y="1092.6" type="curve"/>
      <point x="338.2" y="1092.6" type="line"/>
      <point x="344.8" y="1229.4"/>
      <point x="443.6" y="1295.0"/>
      <point x="546.2" y="1295.0" type="curve" smooth="yes"/>
      <point x="657.6" y="1295.0"/>
      <point x="746.8" y="1220.4"/>
      <point x="746.8" y="1106.0" type="curve" smooth="yes"/>
      <point x="746.8" y="1004.0"/>
      <point x="679.2" y="934.2"/>
      <point x="591.0" y="879.2" type="curve" smooth="yes"/>
      <point x="462.0" y="799.0"/>
      <point x="388.2" y="719.0"/>
      <point x="387.0" y="456.8" type="curve" smooth="yes"/>
    </contour>
    <component base="period" xOffset="216.4"/>
  </outline>
</glyph>
<glyph name="at" format="2">
  <advance height="2479.0" width="2046.2"/>
  <unicode hex="0040"/>
  <outline>
    <contour>
      <point x="1071.0" y="-417.4" type="curve" smooth="yes"/>
      <point x="1258.8" y="-417.4"/>
      <point x="1457.0" y="-369.8"/>
      <point x="1547.8" y="-322.6" type="curve"/>
      <point x="1486.0" y="-137.8" type="line"/>
      <point x="1416.8" y="-164.6"/>
      <point x="1249.0" y="-212.2"/>
      <point x="1083.8" y="-212.2" type="curve" smooth="yes"/>
      <point x="602.4" y="-212.2"/>
      <point x="342.2" y="48.0"/>
      <point x="341.4" y="519.8" type="curve" smooth="yes"/>
      <point x="342.2" y="959.0"/>
      <point x="590.2" y="1264.6"/>
      <point x="1065.2" y="1264.6" type="curve" smooth="yes"/>
      <point x="1453.0" y="1264.6"/>
      <point x="1742.2" y="1045.2"/>
      <point x="1741.4" y="632.0" type="curve" smooth="yes"/>
      <point x="1742.2" y="331.6"/>
      <point x="1695.6" y="196.0"/>
      <point x="1579.2" y="196.0" type="curve" smooth="yes"/>
      <point x="1516.4" y="196.0"/>
      <point x="1480.8" y="245.8"/>
      <point x="1480.4" y="317.6" type="curve" smooth="yes"/>
      <point x="1480.4" y="1009.8" type="line"/>
      <point x="1277.2" y="1009.8" type="line"/>
      <point x="1277.2" y="928.4" type="line"/>
      <point x="1267.4" y="928.4" type="line"/>
      <point x="1244.2" y="992.4"/>
      <point x="1103.8" y="1051.0"/>
      <point x="946.4" y="1029.8" type="curve" smooth="yes"/>
      <point x="743.4" y="1002.6"/>
      <point x="548.8" y="836.6"/>
      <point x="548.4" y="524.6" type="curve" smooth="yes"/>
      <point x="548.8" y="204.2"/>
      <point x="723.0" y="16.599999999999998"/>
      <point x="960.4" y="5.199999999999996" type="curve" smooth="yes"/>
      <point x="1125.0" y="-2.8000000000000043"/>
      <point x="1253.4" y="70.19999999999999"/>
      <point x="1287.6" y="157.2" type="curve"/>
      <point x="1296.0" y="157.2" type="line"/>
      <point x="1313.2" y="48.599999999999994"/>
      <point x="1409.8" y="-11.800000000000004"/>
      <point x="1556.6" y="-3.3999999999999986" type="curve" smooth="yes"/>
      <point x="1868.6" y="8.2"/>
      <point x="1958.4" y="287.4"/>
      <point x="1957.6" y="619.8" type="curve" smooth="yes"/>
      <point x="1958.4" y="1097.0"/>
      <point x="1637.4" y="1466.8"/>
      <point x="1070.6" y="1466.8" type="curve" smooth="yes"/>
      <point x="466.2" y="1466.8"/>
      <point x="115.8" y="1095.2"/>
      <point x="115.4" y="516.2" type="curve" smooth="yes"/>
      <point x="115.8" y="-76.2"/>
      <point x="460.8" y="-417.4"/>
    </contour>
    <contour>
      <point x="1020.6" y="214.0" type="curve" smooth="yes"/>
      <point x="830.8" y="214.0"/>
      <point x="766.2" y="368.4"/>
      <point x="765.8" y="533.6" type="curve" smooth="yes"/>
      <point x="766.2" y="700.2"/>
      <point x="859.0" y="820.8"/>
      <point x="1021.8" y="820.8" type="curve" smooth="yes"/>
      <point x="1202.6" y="820.8"/>
      <point x="1270.0" y="732.4"/>
      <point x="1270.4" y="534.8" type="curve" smooth="yes"/>
      <point x="1272.4" y="322.6"/>
      <point x="1204.4" y="214.0"/>
    </contour>
  </outline>
</glyph>
<glyph name="A" format="2">
  <advance height="2479.0" width="1482.6"/>
  <unicode hex="0041"/>
  <anchor x="741.2" y="0.0" name="bottom"/>
  <anchor x="1432.4" y="0.0" name="ogonek"/>
  <anchor x="481.0" y="1489.0" name="tonos"/>
  <anchor x="741.2" y="1676.0" name="top"/>
  <outline>
    <contour>
      <point x="337.8" y="0.0" type="line"/>
      <point x="735.8" y="1184.0" type="line"/>
      <point x="746.8" y="1184.0" type="line"/>
      <point x="1144.2" y="0.0" type="line"/>
      <point x="1432.4" y="0.0" type="line"/>
      <point x="907.4" y="1489.0" type="line"/>
      <point x="574.6" y="1489.0" type="line"/>
      <point x="50.0" y="0.0" type="line"/>
    </contour>
    <contour>
      <point x="347.0" y="584.4" type="line"/>
      <point x="347.0" y="367.2" type="line"/>
      <point x="1132.6" y="367.2" type="line"/>
      <point x="1132.6" y="584.4" type="line"/>
    </contour>
  </outline>
</glyph>
<glyph name="B" format="2">
  <advance height="2479.0" width="1346.0"/>
  <unicode hex="0042"/>
  <anchor x="652.8" y="0.0" name="bottom"/>
  <anchor x="648.6" y="1676.0" name="top"/>
  <outline>
    <contour>
      <point x="146.4" y="0.0" type="line"/>
      <point x="750.2" y="0.0" type="line" smooth="yes"/>
      <point x="1091.0" y="0.0"/>
      <point x="1258.0" y="174.0"/>
      <point x="1258.0" y="406.4" type="curve" smooth="yes"/>
      <point x="1258.0" y="631.4"/>
      <point x="1098.2" y="763.0"/>
      <point x="939.6" y="771.6" type="curve"/>
      <point x="939.6" y="786.2" type="line"/>
      <point x="1085.2" y="820.2"/>
      <point x="1200.0" y="922.4"/>
      <point x="1200.0" y="1103.2" type="curve" smooth="yes"/>
      <point x="1200.0" y="1324.8"/>
      <point x="1040.0" y="1489.0"/>
      <point x="717.4" y="1489.0" type="curve" smooth="yes"/>
      <point x="146.4" y="1489.0" type="line"/>
    </contour>
    <contour>
      <point x="416.6" y="225.2" type="line"/>
      <point x="416.6" y="661.6" type="line"/>
      <point x="714.2" y="661.6" type="line" smooth="yes"/>
      <point x="880.4" y="661.6"/>
      <point x="983.6" y="559.8"/>
      <point x="983.6" y="427.2" type="curve" smooth="yes"/>
      <point x="983.6" y="309.0"/>
      <point x="902.4" y="225.2"/>
      <point x="707.0" y="225.2" type="curve" smooth="yes"/>
    </contour>
    <contour>
      <point x="416.6" y="855.8" type="line"/>
      <point x="416.6" y="1266.2" type="line"/>
      <point x="689.4" y="1266.2" type="line" smooth="yes"/>
      <point x="848.2" y="1266.2"/>
      <point x="930.4" y="1183.4"/>
      <point x="930.4" y="1068.4" type="curve" smooth="yes"/>
      <point x="930.4" y="937.4"/>
      <point x="823.6" y="855.8"/>
      <point x="683.4" y="855.8" type="curve" smooth="yes"/>
    </contour>
  </outline>
</glyph>
<glyph name="C" format="2">
  <advance height="2479.0" width="1523.0"/>
  <unicode hex="0043"/>
  <anchor x="788.0" y="-4.8" name="cedilla"/>
  <anchor x="791.6" y="1676.0" name="top"/>
  <outline>
    <contour>
      <point x="1422.2" y="986.8" type="line"/>
      <point x="1376.4" y="1317.4"/>
      <point x="1121.0" y="1510.0"/>
      <point x="791.6" y="1510.0" type="curve" smooth="yes"/>
      <point x="402.2" y="1510.0"/>
      <point x="109.2" y="1226.4"/>
      <point x="109.2" y="745.0" type="curve"/>
      <point x="109.2" y="263.4"/>
      <point x="399.0" y="-20.0"/>
      <point x="791.6" y="-20.0" type="curve" smooth="yes"/>
      <point x="1145.4" y="-20.0"/>
      <point x="1380.8" y="208.8"/>
      <point x="1422.2" y="493.0" type="curve"/>
      <point x="1149.8" y="494.2" type="line"/>
      <point x="1115.4" y="319.8"/>
      <point x="972.6" y="221.60000000000002"/>
      <point x="794.8" y="221.60000000000002" type="curve" smooth="yes"/>
      <point x="553.4" y="221.60000000000002"/>
      <point x="380.6" y="403.2"/>
      <point x="380.6" y="745.0" type="curve"/>
      <point x="380.6" y="1080.8"/>
      <point x="552.2" y="1267.8"/>
      <point x="796.0" y="1267.8" type="curve" smooth="yes"/>
      <point x="976.6" y="1267.8"/>
      <point x="1119.0" y="1165.0"/>
      <point x="1149.8" y="986.8" type="curve"/>
    </contour>
  </outline>
</glyph>
<glyph name="D" format="2">
  <advance height="2479.0" width="1483.6"/>
  <unicode hex="0044"/>
  <anchor x="643.8" y="0.0" name="bottom"/>
  <anchor x="281.4" y="776.0" name="cross"/>
  <anchor x="607.4" y="1676.0" name="top"/>
  <outline>
    <contour>
      <point x="651.6" y="0.0" type="line" smooth="yes"/>
      <point x="1105.6" y="0.0"/>
      <point x="1374.4" y="280.8"/>
      <point x="1374.4" y="746.8" type="curve" smooth="yes"/>
      <point x="1374.4" y="1210.0"/>
      <point x="1105.6" y="1489.0"/>
      <point x="661.2" y="1489.0" type="curve" smooth="yes"/>
      <point x="266.2" y="1489.0" type="line"/>
      <point x="266.2" y="1255.8" type="line"/>
      <point x="646.6" y="1255.8" type="line" smooth="yes"/>
      <point x="949.2" y="1255.8"/>
      <point x="1106.6" y="1087.2"/>
      <point x="1106.6" y="746.8" type="curve" smooth="yes"/>
      <point x="1106.6" y="403.6"/>
      <point x="949.2" y="233.2"/>
      <point x="638.8" y="233.2" type="curve" smooth="yes"/>
      <point x="274.0" y="233.2" type="line"/>
      <point x="274.0" y="0.0" type="line"/>
    </contour>
    <contour>
      <point x="416.6" y="1489.0" type="line"/>
      <point x="146.4" y="1489.0" type="line"/>
      <point x="146.4" y="0.0" type="line"/>
      <point x="416.6" y="0.0" type="line"/>
    </contour>
  </outline>
</glyph>
<glyph name="E" format="2">
  <advance height="2479.0" width="1244.6"/>
  <unicode hex="0045"/>
  <anchor x="623.2" y="0.0" name="bottom"/>
  <anchor x="626.2" y="0.0" name="cedilla"/>
  <anchor x="1121.4" y="0.0" name="ogonek"/>
  <anchor x="102.4" y="1489.0" name="tonos"/>
  <anchor x="631.6" y="1676.0" name="top"/>
  <outline>
    <contour>
      <point x="146.4" y="0.0" type="line"/>
      <point x="1121.4" y="0.0" type="line"/>
      <point x="1121.4" y="226.4" type="line"/>
      <point x="416.6" y="226.4" type="line"/>
      <point x="416.6" y="632.4" type="line"/>
      <point x="1065.4" y="632.4" type="line"/>
      <point x="1065.4" y="858.8" type="line"/>
      <point x="416.6" y="858.8" type="line"/>
      <point x="416.6" y="1263.0" type="line"/>
      <point x="1115.0" y="1263.0" type="line"/>
      <point x="1115.0" y="1489.0" type="line"/>
      <point x="146.4" y="1489.0" type="line"/>
    </contour>
  </outline>
</glyph>
<glyph name="F" format="2">
  <advance height="2479.0" width="1199.0"/>
  <unicode hex="0046"/>
  <anchor x="592.6" y="12.0" name="bottom"/>
  <anchor x="281.4" y="309.4" name="cross"/>
  <anchor x="636.8" y="1676.0" name="top"/>
  <outline>
    <contour>
      <point x="146.4" y="0.0" type="line"/>
      <point x="416.6" y="0.0" type="line"/>
      <point x="416.6" y="632.4" type="line"/>
      <point x="1035.8" y="632.4" type="line"/>
      <point x="1035.8" y="858.8" type="line"/>
      <point x="416.6" y="858.8" type="line"/>
      <point x="416.6" y="1263.0" type="line"/>
      <point x="1101.0" y="1263.0" type="line"/>
      <point x="1101.0" y="1489.0" type="line"/>
      <point x="146.4" y="1489.0" type="line"/>
    </contour>
  </outline>
</glyph>
<glyph name="G" format="2">
  <advance height="2479.0" width="1545.8"/>
  <unicode hex="0047"/>
  <anchor x="783.8" y="2.4000000000000004" name="bottom"/>
  <anchor x="786.8" y="1676.0" name="top"/>
  <outline>
    <contour>
      <point x="1144.6" y="1013.6" type="curve"/>
      <point x="1419.8" y="1013.6" type="line"/>
      <point x="1373.8" y="1306.0"/>
      <point x="1120.4" y="1510.0"/>
      <point x="791.2" y="1510.0" type="curve" smooth="yes"/>
      <point x="401.6" y="1510.0"/>
      <point x="109.2" y="1222.8"/>
      <point x="109.2" y="743.8" type="curve" smooth="yes"/>
      <point x="109.2" y="272.2"/>
      <point x="388.0" y="-20.0"/>
      <point x="799.0" y="-20.0" type="curve" smooth="yes"/>
      <point x="1168.0" y="-20.0"/>
      <point x="1431.4" y="216.8"/>
      <point x="1431.4" y="601.0" type="curve" smooth="yes"/>
      <point x="1431.4" y="779.8" type="line"/>
      <point x="827.2" y="779.8" type="line"/>
      <point x="827.2" y="568.6" type="line"/>
      <point x="1232.0" y="568.6" type="line"/>
      <point x="1171.4" y="578.0" type="line"/>
      <point x="1171.4" y="360.0"/>
      <point x="1027.8" y="221.60000000000002"/>
      <point x="800.2" y="221.60000000000002" type="curve" smooth="yes"/>
      <point x="551.0" y="221.60000000000002"/>
      <point x="380.6" y="409.2"/>
      <point x="380.6" y="746.2" type="curve" smooth="yes"/>
      <point x="380.6" y="1081.6"/>
      <point x="554.6" y="1267.8"/>
      <point x="794.8" y="1267.8" type="curve" smooth="yes"/>
      <point x="974.6" y="1267.8"/>
      <point x="1096.6" y="1172.0"/>
    </contour>
  </outline>
</glyph>
<glyph name="J" format="2">
  <advance height="2479.0" width="1148.8"/>
  <unicode hex="004A"/>
  <anchor x="866.6" y="884.0" name="cross"/>
  <anchor x="867.8" y="1676.0" name="top"/>
  <outline>
    <contour>
      <point x="734.6" y="1489.0" type="line"/>
      <point x="734.6" y="442.2" type="line"/>
      <point x="733.8" y="284.6"/>
      <point x="661.2" y="201.6"/>
      <point x="531.6" y="201.6" type="curve" smooth="yes"/>
      <point x="410.8" y="201.6"/>
      <point x="330.0" y="275.0"/>
      <point x="328.4" y="395.4" type="curve"/>
      <point x="59.599999999999994" y="395.4" type="line"/>
      <point x="59.2" y="120.8"/>
      <point x="260.0" y="-20.0"/>
      <point x="521.2" y="-20.0" type="curve" smooth="yes"/>
      <point x="808.6" y="-20.0"/>
      <point x="1001.4" y="154.2"/>
      <point x="1001.8" y="442.2" type="curve"/>
      <point x="1001.8" y="1489.0" type="line"/>
    </contour>
  </outline>
</glyph>
<glyph name="K" format="2">
  <advance height="2479.0" width="1386.2"/>
  <unicode hex="004B"/>
  <anchor x="689.8" y="1.2000000000000002" name="bottom"/>
  <anchor x="694.6" y="1676.0" name="top"/>
  <outline>
    <contour>
      <point x="146.4" y="0.0" type="line"/>
      <point x="416.6" y="0.0" type="line"/>
      <point x="416.6" y="443.4" type="line"/>
      <point x="581.8" y="638.8" type="line"/>
      <point x="1026.6" y="0.0" type="line"/>
      <point x="1350.6" y="0.0" type="line"/>
      <point x="769.0" y="820.6" type="line"/>
      <point x="1345.8" y="1489.0" type="line"/>
      <point x="1015.8" y="1489.0" type="line"/>
      <point x="435.2" y="805.4" type="line"/>
      <point x="416.6" y="805.4" type="line"/>
      <point x="416.6" y="1489.0" type="line"/>
      <point x="146.4" y="1489.0" type="line"/>
    </contour>
  </outline>
</glyph>
<glyph name="M" format="2">
  <advance height="2479.0" width="1856.4"/>
  <unicode hex="004D"/>
  <anchor x="928.2" y="0.0" name="bottom"/>
  <anchor x="1709.4" y="0.0" name="right"/>
  <anchor x="928.2" y="1676.0" name="top"/>
  <outline>
    <contour>
      <point x="146.4" y="1489.0" type="line"/>
      <point x="146.4" y="0.0" type="line"/>
      <point x="406.2" y="0.0" type="line"/>
      <point x="406.2" y="1026.0" type="line"/>
      <point x="419.6" y="1026.0" type="line"/>
      <point x="831.4" y="0.0" type="line"/>
      <point x="1024.4" y="0.0" type="line"/>
      <point x="1436.2" y="1023.6" type="line"/>
      <point x="1450.0" y="1023.6" type="line"/>
      <point x="1450.0" y="0.0" type="line"/>
      <point x="1709.4" y="0.0" type="line"/>
      <point x="1709.4" y="1489.0" type="line"/>
      <point x="1378.6" y="1489.0" type="line"/>
      <point x="936.6" y="410.20000000000005" type="line"/>
      <point x="919.2" y="410.20000000000005" type="line"/>
      <point x="477.2" y="1489.0" type="line"/>
    </contour>
  </outline>
</glyph>
<glyph name="N" format="2">
  <advance height="2479.0" width="1517.6"/>
  <unicode hex="004E"/>
  <anchor x="759.4" y="0.0" name="bottom"/>
  <anchor x="1397.4" y="0.0" name="right"/>
  <anchor x="759.4" y="1676.0" name="top"/>
  <outline>
    <contour>
      <point x="1370.6" y="1489.0" type="line"/>
      <point x="1102.4" y="1489.0" type="line"/>
      <point x="1102.4" y="474.20000000000005" type="line"/>
      <point x="1089.0" y="474.20000000000005" type="line"/>
      <point x="388.6" y="1489.0" type="line"/>
      <point x="146.4" y="1489.0" type="line"/>
      <point x="146.4" y="0.0" type="line"/>
      <point x="416.6" y="0.0" type="line"/>
      <point x="416.6" y="1014.6" type="line"/>
      <point x="428.6" y="1014.6" type="line"/>
      <point x="1131.0" y="0.0" type="line"/>
      <point x="1370.6" y="0.0" type="line"/>
    </contour>
  </outline>
</glyph>
<glyph name="O" format="2">
  <advance height="2479.0" width="1587.0"/>
  <unicode hex="004F"/>
  <anchor x="794.0" y="0.0" name="bottom"/>
  <anchor x="961.6" y="-1.1999999999999993" name="ogonek"/>
  <anchor x="187.6" y="1489.0" name="tonos"/>
  <anchor x="794.0" y="1676.0" name="top"/>
  <outline>
    <contour>
      <point x="1477.8" y="745.0" type="curve"/>
      <point x="1477.8" y="1226.4"/>
      <point x="1184.2" y="1510.0"/>
      <point x="794.0" y="1510.0" type="curve" smooth="yes"/>
      <point x="402.2" y="1510.0"/>
      <point x="109.2" y="1226.4"/>
      <point x="109.2" y="745.0" type="curve"/>
      <point x="109.2" y="263.8"/>
      <point x="402.2" y="-20.0"/>
      <point x="794.0" y="-20.0" type="curve" smooth="yes"/>
      <point x="1184.2" y="-20.0"/>
      <point x="1477.8" y="262.6"/>
    </contour>
    <contour>
      <point x="1207.0" y="745.0" type="curve"/>
      <point x="1207.0" y="405.6"/>
      <point x="1036.0" y="221.60000000000002"/>
      <point x="794.0" y="221.60000000000002" type="curve" smooth="yes"/>
      <point x="551.0" y="221.60000000000002"/>
      <point x="380.6" y="405.6"/>
      <point x="380.6" y="745.0" type="curve"/>
      <point x="380.6" y="1084.0"/>
      <point x="551.0" y="1267.8"/>
      <point x="794.0" y="1267.8" type="curve" smooth="yes"/>
      <point x="1036.0" y="1267.8"/>
      <point x="1207.0" y="1084.0"/>
    </contour>
  </outline>
</glyph>
<glyph name="P" format="2">
  <advance height="2479.0" width="1317.6"/>
  <unicode hex="0050"/>
  <anchor x="117.4" y="1489.0" name="tonos"/>
  <anchor x="652.2" y="1676.0" name="top"/>
  <outline>
    <contour>
      <point x="146.4" y="0.0" type="line"/>
      <point x="416.6" y="0.0" type="line"/>
      <point x="416.6" y="1264.2" type="line"/>
      <point x="664.0" y="1264.2" type="line" smooth="yes"/>
      <point x="866.0" y="1264.2"/>
      <point x="955.2" y="1154.6"/>
      <point x="955.2" y="996.0" type="curve" smooth="yes"/>
      <point x="955.2" y="837.8"/>
      <point x="866.0" y="724.8"/>
      <point x="665.8" y="724.8" type="curve" smooth="yes"/>
      <point x="331.6" y="724.8" type="line"/>
      <point x="331.6" y="503.2" type="line"/>
      <point x="701.8" y="503.2" type="line" smooth="yes"/>
      <point x="1045.4" y="503.2"/>
      <point x="1230.8" y="709.8"/>
      <point x="1230.8" y="996.0" type="curve" smooth="yes"/>
      <point x="1230.8" y="1280.6"/>
      <point x="1047.8" y="1489.0"/>
      <point x="706.0" y="1489.0" type="curve" smooth="yes"/>
      <point x="146.4" y="1489.0" type="line"/>
    </contour>
  </outline>
</glyph>
<glyph name="Q" format="2">
  <advance height="2479.0" width="1588.2"/>
  <unicode hex="0051"/>
  <anchor x="794.0" y="0.0" name="bottom"/>
  <anchor x="961.6" y="-1.1999999999999993" name="ogonek"/>
  <anchor x="187.6" y="1489.0" name="tonos"/>
  <anchor x="794.0" y="1676.0" name="top"/>
  <outline>
    <contour>
      <point x="701.4" y="500.2" type="line"/>
      <point x="939.8" y="187.6" type="line"/>
      <point x="1011.8" y="85.8" type="line"/>
      <point x="1180.4" y="-128.4" type="line"/>
      <point x="1442.4" y="-128.4" type="line"/>
      <point x="1194.2" y="190.2" type="line"/>
      <point x="1091.0" y="312.2" type="line"/>
      <point x="945.8" y="500.2" type="line"/>
    </contour>
    <component base="O"/>
  </outline>
</glyph>
<glyph name="R" format="2">
  <advance height="2479.0" width="1332.2"/>
  <unicode hex="0052"/>
  <anchor x="682.4" y="0.0" name="bottom"/>
  <anchor x="657.6" y="1676.0" name="top"/>
  <outline>
    <contour>
      <point x="146.4" y="0.0" type="line"/>
      <point x="416.6" y="0.0" type="line"/>
      <point x="416.6" y="1264.2" type="line"/>
      <point x="664.0" y="1264.2" type="line" smooth="yes"/>
      <point x="865.4" y="1264.2"/>
      <point x="955.2" y="1171.6"/>
      <point x="955.2" y="1013.0" type="curve" smooth="yes"/>
      <point x="955.2" y="854.8"/>
      <point x="865.4" y="769.4"/>
      <point x="665.8" y="769.4" type="curve" smooth="yes"/>
      <point x="303.4" y="769.4" type="line"/>
      <point x="303.4" y="546.0" type="line"/>
      <point x="701.8" y="546.0" type="line" smooth="yes"/>
      <point x="1045.4" y="546.0"/>
      <point x="1230.8" y="726.6"/>
      <point x="1230.8" y="1013.0" type="curve" smooth="yes"/>
      <point x="1230.8" y="1297.6"/>
      <point x="1047.8" y="1489.0"/>
      <point x="706.0" y="1489.0" type="curve" smooth="yes"/>
      <point x="146.4" y="1489.0" type="line"/>
    </contour>
    <contour>
      <point x="916.2" y="675.0" type="line"/>
      <point x="622.0" y="675.0" type="line"/>
      <point x="984.2" y="0.0" type="line"/>
      <point x="1285.2" y="0.0" type="line"/>
    </contour>
  </outline>
</glyph>
<glyph name="S" format="2">
  <advance height="2479.0" width="1329.2"/>
  <unicode hex="0053"/>
  <anchor x="668.6" y="-15.6" name="bottom"/>
  <anchor x="667.8" y="0.0" name="cedilla"/>
  <anchor x="664.8" y="1676.0" name="top"/>
  <outline>
    <contour>
      <point x="956.6" y="1079.8" type="curve"/>
      <point x="1215.8" y="1079.8" type="line"/>
      <point x="1210.2" y="1331.6"/>
      <point x="996.0" y="1510.0"/>
      <point x="678.8" y="1510.0" type="curve" smooth="yes"/>
      <point x="366.2" y="1510.0"/>
      <point x="131.8" y="1334.0"/>
      <point x="132.6" y="1070.8" type="curve" smooth="yes"/>
      <point x="132.2" y="857.0"/>
      <point x="284.6" y="733.6"/>
      <point x="529.4" y="671.0" type="curve" smooth="yes"/>
      <point x="699.0" y="627.0" type="line" smooth="yes"/>
      <point x="859.6" y="585.8"/>
      <point x="965.8" y="536.4"/>
      <point x="966.2" y="419.8" type="curve" smooth="yes"/>
      <point x="965.8" y="292.8"/>
      <point x="844.8" y="207.8"/>
      <point x="669.2" y="207.8" type="curve" smooth="yes"/>
      <point x="500.4" y="207.8"/>
      <point x="369.8" y="283.8"/>
      <point x="358.6" y="440.0" type="curve"/>
      <point x="92.8" y="440.0" type="line"/>
      <point x="104.4" y="144.0"/>
      <point x="324.4" y="-22.4"/>
      <point x="671.6" y="-22.4" type="curve" smooth="yes"/>
      <point x="1028.6" y="-22.4"/>
      <point x="1236.0" y="155.8"/>
      <point x="1236.4" y="418.0" type="curve" smooth="yes"/>
      <point x="1236.0" y="676.8"/>
      <point x="1022.6" y="794.4"/>
      <point x="799.0" y="847.4" type="curve" smooth="yes"/>
      <point x="659.6" y="881.8" type="line" smooth="yes"/>
      <point x="536.2" y="911.2"/>
      <point x="404.8" y="963.0"/>
      <point x="406.4" y="1087.8" type="curve" smooth="yes"/>
      <point x="406.8" y="1199.0"/>
      <point x="507.0" y="1281.2"/>
      <point x="675.2" y="1281.2" type="curve" smooth="yes"/>
      <point x="836.2" y="1281.2"/>
      <point x="942.6" y="1206.8"/>
    </contour>
  </outline>
</glyph>
<glyph name="U" format="2">
  <advance height="2479.0" width="1502.6"/>
  <unicode hex="0055"/>
  <anchor x="751.0" y="-8.399999999999999" name="bottom"/>
  <anchor x="925.2" y="4.0" name="ogonek"/>
  <anchor x="853.2" y="0.0" name="right"/>
  <anchor x="751.0" y="1676.0" name="top"/>
  <outline>
    <contour>
      <point x="1085.6" y="1489.0" type="line"/>
      <point x="1085.6" y="538.8" type="line" smooth="yes"/>
      <point x="1085.6" y="352.4"/>
      <point x="956.0" y="218.60000000000002"/>
      <point x="751.0" y="218.60000000000002" type="curve" smooth="yes"/>
      <point x="546.6" y="218.60000000000002"/>
      <point x="416.6" y="352.4"/>
      <point x="416.6" y="538.8" type="curve" smooth="yes"/>
      <point x="416.6" y="1489.0" type="line"/>
      <point x="146.4" y="1489.0" type="line"/>
      <point x="146.4" y="515.8" type="line" smooth="yes"/>
      <point x="146.4" y="196.8"/>
      <point x="386.6" y="-22.4"/>
      <point x="751.0" y="-22.4" type="curve" smooth="yes"/>
      <point x="1114.4" y="-22.4"/>
      <point x="1355.6" y="196.8"/>
      <point x="1355.6" y="515.8" type="curve" smooth="yes"/>
      <point x="1355.6" y="1489.0" type="line"/>
    </contour>
  </outline>
</glyph>
<glyph name="V" format="2">
  <advance height="2479.0" width="1482.6"/>
  <unicode hex="0056"/>
  <anchor x="741.2" y="0.0" name="bottom"/>
  <anchor x="741.2" y="1676.0" name="top"/>
  <outline>
    <contour>
      <point x="345.8" y="1489.0" type="line"/>
      <point x="50.0" y="1489.0" type="line"/>
      <point x="574.6" y="0.0" type="line"/>
      <point x="907.4" y="0.0" type="line"/>
      <point x="1432.4" y="1489.0" type="line"/>
      <point x="1136.2" y="1489.0" type="line"/>
      <point x="748.6" y="317.2" type="line"/>
      <point x="734.0" y="317.2" type="line"/>
    </contour>
  </outline>
</glyph>
<glyph name="W" format="2">
  <advance height="2479.0" width="2058.2"/>
  <unicode hex="0057"/>
  <anchor x="1029.6" y="7.199999999999999" name="bottom"/>
  <anchor x="1029.6" y="1676.0" name="top"/>
  <outline>
    <contour>
      <point x="458.6" y="0.0" type="line"/>
      <point x="725.0" y="0.0" type="line"/>
      <point x="1023.6" y="1045.0" type="line"/>
      <point x="1035.0" y="1045.0" type="line"/>
      <point x="1333.6" y="0.0" type="line"/>
      <point x="1600.0" y="0.0" type="line"/>
      <point x="2020.4" y="1489.0" type="line"/>
      <point x="1729.6" y="1489.0" type="line"/>
      <point x="1461.8" y="393.6" type="line"/>
      <point x="1448.6" y="393.6" type="line"/>
      <point x="1161.0" y="1489.0" type="line"/>
      <point x="897.6" y="1489.0" type="line"/>
      <point x="610.6" y="394.8" type="line"/>
      <point x="596.8" y="394.8" type="line"/>
      <point x="329.0" y="1489.0" type="line"/>
      <point x="38.8" y="1489.0" type="line"/>
    </contour>
  </outline>
</glyph>
<glyph name="X" format="2">
  <advance height="2479.0" width="1413.8"/>
  <unicode hex="0058"/>
  <anchor x="706.2" y="4.8" name="bottom"/>
  <anchor x="706.2" y="745.0" name="cross"/>
  <anchor x="1306.8" y="103.6" name="cyrtic"/>
  <anchor x="1194.2" y="0.0" name="right"/>
  <anchor x="706.2" y="1676.0" name="top"/>
  <outline>
    <contour>
      <point x="372.4" y="1489.0" type="line"/>
      <point x="63.4" y="1489.0" type="line"/>
      <point x="528.2" y="745.0" type="line"/>
      <point x="57.4" y="0.0" type="line"/>
      <point x="369.2" y="0.0" type="line"/>
      <point x="700.8" y="541.6" type="line"/>
      <point x="711.8" y="541.6" type="line"/>
      <point x="1043.8" y="0.0" type="line"/>
      <point x="1356.4" y="0.0" type="line"/>
      <point x="890.2" y="745.0" type="line"/>
      <point x="1349.6" y="1489.0" type="line"/>
      <point x="1041.4" y="1489.0" type="line"/>
      <point x="711.8" y="944.4" type="line"/>
      <point x="700.8" y="944.4" type="line"/>
    </contour>
  </outline>
</glyph>
<glyph name="Y" format="2">
  <advance height="2479.0" width="1442.6"/>
  <unicode hex="0059"/>
  <anchor x="721.8" y="0.0" name="bottom"/>
  <anchor x="721.8" y="578.2" name="cross"/>
  <anchor x="855.8" y="0.0" name="ogonek"/>
  <anchor x="-29.8" y="1489.0" name="tonos"/>
  <anchor x="721.8" y="1676.0" name="top"/>
  <outline>
    <contour>
      <point x="45.2" y="1489.0" type="line"/>
      <point x="587.4" y="555.6" type="line"/>
      <point x="587.4" y="0.0" type="line"/>
      <point x="855.8" y="0.0" type="line"/>
      <point x="855.8" y="555.6" type="line"/>
      <point x="1397.4" y="1489.0" type="line"/>
      <point x="1093.4" y="1489.0" type="line"/>
      <point x="728.6" y="830.0" type="line"/>
      <point x="714.0" y="830.0" type="line"/>
      <point x="349.8" y="1489.0" type="line"/>
    </contour>
  </outline>
</glyph>
<glyph name="Z" format="2">
  <advance height="2479.0" width="1337.2"/>
  <unicode hex="005A"/>
  <anchor x="665.6" y="0.0" name="bottom"/>
  <anchor x="689.8" y="776.0" name="cross"/>
  <anchor x="670.4" y="1676.0" name="top"/>
  <outline>
    <contour>
      <point x="119.4" y="0.0" type="line"/>
      <point x="1222.0" y="0.0" type="line"/>
      <point x="1222.0" y="226.4" type="line"/>
      <point x="454.4" y="226.4" type="line"/>
      <point x="1217.8" y="1321.4" type="line"/>
      <point x="1217.8" y="1489.0" type="line"/>
      <point x="115.2" y="1489.0" type="line"/>
      <point x="115.2" y="1263.0" type="line"/>
      <point x="882.8" y="1263.0" type="line"/>
      <point x="119.4" y="168.2" type="line"/>
    </contour>
  </outline>
</glyph>
<glyph name="bracketleft" format="2">
  <advance height="2479.0" width="806.0"/>
  <unicode hex="005B"/>
  <outline>
    <contour>
      <point x="225.0" y="-316.6" type="line"/>
      <point x="751.2" y="-316.6" type="line"/>
      <point x="751.2" y="-114.8" type="line"/>
      <point x="478.8" y="-114.8" type="line"/>
      <point x="478.8" y="1329.8" type="line"/>
      <point x="751.2" y="1329.8" type="line"/>
      <point x="751.2" y="1531.0" type="line"/>
      <point x="225.0" y="1531.0" type="line"/>
    </contour>
  </outline>
</glyph>
<glyph name="backslash" format="2">
  <advance height="2479.0" width="775.6"/>
  <unicode hex="005C"/>
  <outline>
    <contour>
      <point x="512.4" y="-224.0" type="line"/>
      <point x="742.6" y="-224.0" type="line"/>
      <point x="262.6" y="1559.0" type="line"/>
      <point x="32.4" y="1559.0" type="line"/>
    </contour>
  </outline>
</glyph>
<glyph name="asciicircum" format="2">
  <advance height="2479.0" width="985.6"/>
  <unicode hex="005E"/>
  <outline>
    <contour>
      <point x="466.8" y="1339.0" type="line"/>
      <point x="466.8" y="1262.2" type="line"/>
      <point x="518.8" y="1262.2" type="line"/>
      <point x="518.8" y="1339.0" type="line"/>
    </contour>
    <contour>
      <point x="71.8" y="815.0" type="line"/>
      <point x="287.6" y="815.0" type="line"/>
      <point x="500.6" y="1291.2" type="line"/>
      <point x="485.0" y="1291.2" type="line"/>
      <point x="699.8" y="815.0" type="line"/>
      <point x="913.8" y="815.0" type="line"/>
      <point x="609.4" y="1452.2" type="line"/>
      <point x="376.2" y="1452.2" type="line"/>
    </contour>
  </outline>
</glyph>
<glyph name="grave" format="2">
  <advance height="2479.0" width="1018.0"/>
  <unicode hex="0060"/>
  <anchor x="618.8" y="1303.0" name="_top"/>
  <anchor x="604.4" y="1676.0" name="top"/>
  <outline>
    <contour>
      <point x="522.6" y="1263.6" type="line"/>
      <point x="719.2" y="1263.6" type="line"/>
      <point x="557.0" y="1596.8" type="line"/>
      <point x="299.2" y="1596.8" type="line"/>
    </contour>
  </outline>
</glyph>
<glyph name="a" format="2">
  <advance height="2479.0" width="1177.0"/>
  <unicode hex="0061"/>
  <anchor x="593.6" y="0.0" name="bottom"/>
  <anchor x="1046.8" y="0.0" name="ogonek"/>
  <anchor x="601.0" y="1303.0" name="rhalfring"/>
  <anchor x="604.4" y="1303.0" name="top"/>
  <outline>
    <contour>
      <point x="456.8" y="-24.2" type="curve" smooth="yes"/>
      <point x="632.2" y="-24.2"/>
      <point x="737.0" y="60.2"/>
      <point x="784.6" y="153.4" type="curve"/>
      <point x="793.6" y="153.4" type="line"/>
      <point x="793.6" y="0.0" type="line"/>
      <point x="1046.8" y="0.0" type="line"/>
      <point x="1046.8" y="747.6" type="line" smooth="yes"/>
      <point x="1046.8" y="1043.4"/>
      <point x="805.8" y="1132.0"/>
      <point x="593.0" y="1132.0" type="curve" smooth="yes"/>
      <point x="358.0" y="1132.0"/>
      <point x="177.2" y="1026.6"/>
      <point x="119.4" y="823.2" type="curve"/>
      <point x="365.2" y="788.4" type="line"/>
      <point x="391.0" y="865.0"/>
      <point x="465.4" y="930.0"/>
      <point x="594.2" y="930.0" type="curve" smooth="yes"/>
      <point x="716.4" y="930.0"/>
      <point x="783.2" y="867.4"/>
      <point x="783.2" y="757.8" type="curve" smooth="yes"/>
      <point x="783.2" y="753.6" type="line" smooth="yes"/>
      <point x="783.2" y="677.8"/>
      <point x="704.0" y="674.0"/>
      <point x="506.8" y="652.8" type="curve" smooth="yes"/>
      <point x="290.2" y="630.2"/>
      <point x="82.6" y="565.0"/>
      <point x="82.6" y="313.4" type="curve" smooth="yes"/>
      <point x="82.6" y="93.8"/>
      <point x="243.4" y="-24.2"/>
    </contour>
    <contour>
      <point x="524.8" y="169.4" type="curve" smooth="yes"/>
      <point x="415.4" y="169.4"/>
      <point x="336.8" y="221.0"/>
      <point x="336.8" y="317.6" type="curve" smooth="yes"/>
      <point x="336.8" y="419.0"/>
      <point x="424.8" y="461.2"/>
      <point x="541.8" y="477.4" type="curve" smooth="yes"/>
      <point x="611.2" y="486.8"/>
      <point x="749.8" y="504.6"/>
      <point x="784.0" y="532.2" type="curve"/>
      <point x="784.0" y="400.8" type="line" smooth="yes"/>
      <point x="784.0" y="276.6"/>
      <point x="683.6" y="169.4"/>
    </contour>
  </outline>
</glyph>
<glyph name="b" format="2">
  <advance height="2479.0" width="1291.0"/>
  <unicode hex="0062"/>
  <anchor x="665.8" y="0.0" name="bottom"/>
  <anchor x="278.4" y="1280.0" name="cross"/>
  <anchor x="745.0" y="1303.0" name="top"/>
  <outline>
    <contour>
      <point x="146.4" y="0.0" type="line"/>
      <point x="405.6" y="0.0" type="line"/>
      <point x="405.6" y="176.4" type="line"/>
      <point x="421.4" y="176.4" type="line"/>
      <point x="462.4" y="94.6"/>
      <point x="549.0" y="-19.8"/>
      <point x="741.2" y="-19.8" type="curve" smooth="yes"/>
      <point x="1004.4" y="-19.8"/>
      <point x="1201.8" y="189.4"/>
      <point x="1201.8" y="557.2" type="curve" smooth="yes"/>
      <point x="1201.8" y="930.0"/>
      <point x="998.8" y="1132.0"/>
      <point x="740.2" y="1132.0" type="curve" smooth="yes"/>
      <point x="543.4" y="1132.0"/>
      <point x="461.2" y="1013.2"/>
      <point x="421.4" y="932.8" type="curve"/>
      <point x="410.0" y="932.8" type="line"/>
      <point x="410.0" y="1489.0" type="line"/>
      <point x="146.4" y="1489.0" type="line"/>
    </contour>
    <contour>
      <point x="405.0" y="559.0" type="curve" smooth="yes"/>
      <point x="405.0" y="775.0"/>
      <point x="498.4" y="915.4"/>
      <point x="667.8" y="915.4" type="curve" smooth="yes"/>
      <point x="843.0" y="915.4"/>
      <point x="933.4" y="766.0"/>
      <point x="933.4" y="559.0" type="curve" smooth="yes"/>
      <point x="933.4" y="349.2"/>
      <point x="841.2" y="196.2"/>
      <point x="667.8" y="196.2" type="curve" smooth="yes"/>
      <point x="500.2" y="196.2"/>
      <point x="405.0" y="341.4"/>
    </contour>
  </outline>
</glyph>
<glyph name="c" format="2">
  <advance height="2479.0" width="1182.6"/>
  <unicode hex="0063"/>
  <anchor x="620.2" y="0.0" name="cedilla"/>
  <anchor x="620.2" y="1303.0" name="top"/>
  <outline>
    <contour>
      <point x="622.6" y="-21.8" type="curve" smooth="yes"/>
      <point x="903.2" y="-21.8"/>
      <point x="1082.2" y="144.4"/>
      <point x="1101.2" y="381.6" type="curve"/>
      <point x="849.8" y="381.6" type="line"/>
      <point x="827.0" y="261.6"/>
      <point x="740.6" y="192.6"/>
      <point x="625.0" y="192.6" type="curve" smooth="yes"/>
      <point x="460.2" y="192.6"/>
      <point x="354.0" y="330.0"/>
      <point x="354.0" y="559.0" type="curve" smooth="yes"/>
      <point x="354.0" y="784.0"/>
      <point x="462.0" y="919.0"/>
      <point x="625.0" y="919.0" type="curve" smooth="yes"/>
      <point x="751.2" y="919.0"/>
      <point x="829.2" y="838.0"/>
      <point x="849.8" y="730.6" type="curve"/>
      <point x="1101.2" y="730.6" type="line"/>
      <point x="1083.0" y="972.4"/>
      <point x="894.0" y="1132.0"/>
      <point x="620.8" y="1132.0" type="curve" smooth="yes"/>
      <point x="293.4" y="1132.0"/>
      <point x="87.4" y="895.4"/>
      <point x="87.4" y="554.2" type="curve" smooth="yes"/>
      <point x="87.4" y="215.6"/>
      <point x="288.6" y="-21.8"/>
    </contour>
  </outline>
</glyph>
<glyph name="d" format="2">
  <advance height="2479.0" width="1291.6"/>
  <unicode hex="0064"/>
  <anchor x="633.0" y="0.0" name="bottom"/>
  <anchor x="1012.6" y="1280.0" name="cross"/>
  <anchor x="1276.2" y="1489.0" name="raccent"/>
  <anchor x="578.2" y="1489.0" name="top"/>
  <outline>
    <contour>
      <point x="549.8" y="-19.8" type="curve" smooth="yes"/>
      <point x="741.6" y="-19.8"/>
      <point x="828.6" y="94.6"/>
      <point x="869.8" y="176.4" type="curve"/>
      <point x="885.4" y="176.4" type="line"/>
      <point x="885.4" y="0.0" type="line"/>
      <point x="1144.6" y="0.0" type="line"/>
      <point x="1144.6" y="1489.0" type="line"/>
      <point x="880.6" y="1489.0" type="line"/>
      <point x="880.6" y="932.8" type="line"/>
      <point x="869.8" y="932.8" type="line"/>
      <point x="829.8" y="1013.2"/>
      <point x="747.6" y="1132.0"/>
      <point x="550.4" y="1132.0" type="curve" smooth="yes"/>
      <point x="292.8" y="1132.0"/>
      <point x="89.8" y="930.0"/>
      <point x="89.8" y="557.2" type="curve" smooth="yes"/>
      <point x="89.8" y="189.4"/>
      <point x="287.2" y="-19.8"/>
    </contour>
    <contour>
      <point x="623.2" y="196.2" type="curve" smooth="yes"/>
      <point x="449.8" y="196.2"/>
      <point x="357.6" y="349.2"/>
      <point x="357.6" y="559.0" type="curve" smooth="yes"/>
      <point x="357.6" y="766.0"/>
      <point x="448.0" y="915.4"/>
      <point x="623.2" y="915.4" type="curve" smooth="yes"/>
      <point x="793.2" y="915.4"/>
      <point x="886.0" y="775.0"/>
      <point x="886.0" y="559.0" type="curve" smooth="yes"/>
      <point x="886.0" y="341.4"/>
      <point x="791.4" y="196.2"/>
    </contour>
  </outline>
</glyph>
<glyph name="e" format="2">
  <advance height="2479.0" width="1213.8"/>
  <unicode hex="0065"/>
  <anchor x="608.6" y="0.0" name="bottom"/>
  <anchor x="612.4" y="0.0" name="cedilla"/>
  <anchor x="843.6" y="19.6" name="ogonek"/>
  <anchor x="608.6" y="1303.0" name="top"/>
  <outline>
    <contour>
      <point x="629.8" y="-21.8" type="curve"/>
      <point x="890.0" y="-21.8"/>
      <point x="1069.2" y="105.2"/>
      <point x="1116.2" y="299.8" type="curve"/>
      <point x="869.8" y="327.4" type="line"/>
      <point x="834.2" y="232.2"/>
      <point x="747.2" y="183.4"/>
      <point x="633.4" y="183.4" type="curve" smooth="yes"/>
      <point x="461.0" y="183.4"/>
      <point x="348.4" y="298.0"/>
      <point x="348.4" y="493.6" type="curve" smooth="yes"/>
      <point x="348.4" y="648.6" type="line" smooth="yes"/>
      <point x="349.2" y="797.4"/>
      <point x="456.8" y="925.8"/>
      <point x="619.6" y="925.8" type="curve"/>
      <point x="771.2" y="925.8"/>
      <point x="872.6" y="816.0"/>
      <point x="873.8" y="664.2" type="curve"/>
      <point x="210.6" y="664.2" type="line"/>
      <point x="210.6" y="486.0" type="line"/>
      <point x="1126.4" y="486.0" type="line"/>
      <point x="1126.4" y="567.4" type="line" smooth="yes"/>
      <point x="1126.4" y="959.0"/>
      <point x="891.0" y="1132.0"/>
      <point x="616.0" y="1132.0" type="curve" smooth="yes"/>
      <point x="295.8" y="1132.0"/>
      <point x="87.4" y="896.6"/>
      <point x="87.4" y="552.4" type="curve" smooth="yes"/>
      <point x="87.4" y="201.8"/>
      <point x="293.4" y="-21.8"/>
    </contour>
  </outline>
</glyph>
<glyph name="f" format="2">
  <advance height="2479.0" width="772.6"/>
  <unicode hex="0066"/>
  <anchor x="337.6" y="0.0" name="bottom"/>
  <anchor x="338.2" y="633.4" name="cross"/>
  <anchor x="434.4" y="1676.0" name="top"/>
  <outline>
    <contour>
      <point x="701.4" y="1117.0" type="line"/>
      <point x="40.4" y="1117.0" type="line"/>
      <point x="40.4" y="913.6" type="line"/>
      <point x="701.4" y="913.6" type="line"/>
    </contour>
    <component base="_part.f_base" xOffset="-6.800000000000001"/>
  </outline>
</glyph>
<glyph name="g" format="2">
  <advance height="2479.0" width="1280.8"/>
  <unicode hex="0067"/>
  <anchor x="629.8" y="-431.6" name="bottom"/>
  <anchor x="1015.0" y="565.2" name="cross"/>
  <anchor x="631.0" y="1303.0" name="top"/>
  <outline>
    <contour>
      <point x="620.8" y="-442.0" type="curve" smooth="yes"/>
      <point x="922.8" y="-442.0"/>
      <point x="1145.8" y="-304.4"/>
      <point x="1145.8" y="-18.0" type="curve" smooth="yes"/>
      <point x="1145.8" y="1117.0" type="line"/>
      <point x="885.4" y="1117.0" type="line"/>
      <point x="885.4" y="932.8" type="line"/>
      <point x="871.6" y="932.8" type="line"/>
      <point x="831.6" y="1013.2"/>
      <point x="747.6" y="1132.0"/>
      <point x="550.4" y="1132.0" type="curve" smooth="yes"/>
      <point x="292.8" y="1132.0"/>
      <point x="89.8" y="930.0"/>
      <point x="89.8" y="562.0" type="curve" smooth="yes"/>
      <point x="89.8" y="197.8"/>
      <point x="292.0" y="16.2"/>
      <point x="549.8" y="16.2" type="curve" smooth="yes"/>
      <point x="741.0" y="16.2"/>
      <point x="831.0" y="118.6"/>
      <point x="871.0" y="201.0" type="curve"/>
      <point x="884.2" y="201.0" type="line"/>
      <point x="884.2" y="-10.799999999999999" type="line" smooth="yes"/>
      <point x="884.2" y="-175.8"/>
      <point x="775.2" y="-243.4"/>
      <point x="625.6" y="-243.4" type="curve" smooth="yes"/>
      <point x="466.6" y="-243.4"/>
      <point x="397.2" y="-168.0"/>
      <point x="364.8" y="-102.4" type="curve"/>
      <point x="127.8" y="-160.0" type="line"/>
      <point x="175.8" y="-316.2"/>
      <point x="337.0" y="-442.0"/>
    </contour>
    <contour>
      <point x="623.2" y="223.2" type="curve" smooth="yes"/>
      <point x="449.8" y="223.2"/>
      <point x="357.6" y="358.2"/>
      <point x="357.6" y="563.8" type="curve" smooth="yes"/>
      <point x="357.6" y="766.0"/>
      <point x="448.0" y="915.4"/>
      <point x="623.2" y="915.4" type="curve" smooth="yes"/>
      <point x="793.2" y="915.4"/>
      <point x="886.0" y="775.0"/>
      <point x="886.0" y="563.8" type="curve" smooth="yes"/>
      <point x="886.0" y="350.4"/>
      <point x="791.4" y="223.2"/>
    </contour>
  </outline>
</glyph>
<glyph name="h" format="2">
  <advance height="2479.0" width="1255.6"/>
  <unicode hex="0068"/>
  <anchor x="626.4" y="0.0" name="bottom"/>
  <anchor x="274.8" y="0.0" name="cedilla"/>
  <anchor x="264.0" y="1290.2" name="cross"/>
  <anchor x="265.2" y="1676.0" name="top"/>
  <outline>
    <contour>
      <point x="398.6" y="654.4" type="line" smooth="yes"/>
      <point x="399.0" y="815.8"/>
      <point x="499.0" y="908.6"/>
      <point x="640.2" y="908.6" type="curve" smooth="yes"/>
      <point x="778.0" y="908.6"/>
      <point x="859.4" y="821.2"/>
      <point x="859.0" y="670.0" type="curve" smooth="yes"/>
      <point x="859.0" y="0.0" type="line"/>
      <point x="1123.0" y="0.0" type="line"/>
      <point x="1123.0" y="711.2" type="line" smooth="yes"/>
      <point x="1123.0" y="981.0"/>
      <point x="969.6" y="1132.0"/>
      <point x="738.4" y="1132.0" type="curve" smooth="yes"/>
      <point x="566.8" y="1132.0"/>
      <point x="458.0" y="1053.6"/>
      <point x="405.8" y="927.8" type="curve"/>
      <point x="393.0" y="927.8" type="line"/>
      <point x="393.0" y="1489.0" type="line"/>
      <point x="135.0" y="1489.0" type="line"/>
      <point x="135.0" y="0.0" type="line"/>
      <point x="398.6" y="0.0" type="line"/>
    </contour>
  </outline>
</glyph>
<glyph name="k" format="2">
  <advance height="2479.0" width="1165.2"/>
  <unicode hex="006B"/>
  <anchor x="596.8" y="0.0" name="bottom"/>
  <anchor x="267.6" y="1676.0" name="top"/>
  <outline>
    <contour>
      <point x="375.4" y="350.2" type="line"/>
      <point x="577.8" y="567.4" type="line"/>
      <point x="631.4" y="567.4" type="line"/>
      <point x="1125.6" y="1117.0" type="line"/>
      <point x="818.0" y="1117.0" type="line"/>
      <point x="416.6" y="668.8" type="line"/>
      <point x="374.4" y="668.8" type="line"/>
    </contour>
    <contour>
      <point x="135.0" y="0.0" type="line"/>
      <point x="398.6" y="0.0" type="line"/>
      <point x="398.6" y="1489.0" type="line"/>
      <point x="135.0" y="1489.0" type="line"/>
    </contour>
    <contour>
      <point x="836.6" y="0.0" type="line"/>
      <point x="1151.4" y="0.0" type="line"/>
      <point x="650.6" y="694.0" type="line"/>
      <point x="472.6" y="508.6" type="line"/>
    </contour>
  </outline>
</glyph>
<glyph name="l" format="2">
  <advance height="2479.0" width="533.6"/>
  <unicode hex="006C"/>
  <anchor x="267.0" y="0.0" name="bottom"/>
  <anchor x="267.0" y="768.0" name="cross"/>
  <anchor x="530.6" y="1489.0" name="raccent"/>
  <anchor x="265.8" y="1676.0" name="top"/>
  <outline>
    <contour>
      <point x="398.6" y="1489.0" type="line"/>
      <point x="135.0" y="1489.0" type="line"/>
      <point x="135.0" y="0.0" type="line"/>
      <point x="398.6" y="0.0" type="line"/>
    </contour>
  </outline>
</glyph>
<glyph name="m" format="2">
  <advance height="2479.0" width="1838.4"/>
  <unicode hex="006D"/>
  <anchor x="920.4" y="0.0" name="bottom"/>
  <anchor x="920.4" y="1303.0" name="top"/>
  <outline>
    <contour>
      <point x="135.0" y="0.0" type="line"/>
      <point x="398.6" y="0.0" type="line"/>
      <point x="398.6" y="679.6" type="line" smooth="yes"/>
      <point x="398.6" y="816.8"/>
      <point x="490.4" y="909.8"/>
      <point x="604.0" y="909.8" type="curve" smooth="yes"/>
      <point x="715.2" y="909.8"/>
      <point x="791.4" y="834.8"/>
      <point x="791.4" y="719.8" type="curve" smooth="yes"/>
      <point x="791.4" y="0.0" type="line"/>
      <point x="1049.4" y="0.0" type="line"/>
      <point x="1049.4" y="697.0" type="line" smooth="yes"/>
      <point x="1049.4" y="822.2"/>
      <point x="1124.4" y="909.8"/>
      <point x="1251.8" y="909.8" type="curve" smooth="yes"/>
      <point x="1358.2" y="909.8"/>
      <point x="1442.4" y="847.4"/>
      <point x="1442.4" y="709.6" type="curve" smooth="yes"/>
      <point x="1442.4" y="0.0" type="line"/>
      <point x="1705.8" y="0.0" type="line"/>
      <point x="1705.8" y="750.0" type="line" smooth="yes"/>
      <point x="1705.8" y="999.2"/>
      <point x="1562.4" y="1132.0"/>
      <point x="1357.4" y="1132.0" type="curve" smooth="yes"/>
      <point x="1195.0" y="1132.0"/>
      <point x="1071.2" y="1051.2"/>
      <point x="1021.6" y="927.8" type="curve"/>
      <point x="1010.2" y="927.8" type="line"/>
      <point x="967.4" y="1053.6"/>
      <point x="859.2" y="1132.0"/>
      <point x="708.2" y="1132.0" type="curve" smooth="yes"/>
      <point x="559.2" y="1132.0"/>
      <point x="446.8" y="1054.8"/>
      <point x="400.2" y="927.8" type="curve"/>
      <point x="387.0" y="927.8" type="line"/>
      <point x="387.0" y="1117.0" type="line"/>
      <point x="135.0" y="1117.0" type="line"/>
    </contour>
  </outline>
</glyph>
<glyph name="n" format="2">
  <advance height="2479.0" width="1249.0"/>
  <unicode hex="006E"/>
  <anchor x="624.6" y="0.0" name="bottom"/>
  <anchor x="624.6" y="1303.0" name="top"/>
  <outline>
    <contour>
      <point x="398.6" y="654.4" type="line" smooth="yes"/>
      <point x="399.0" y="815.8"/>
      <point x="496.2" y="908.6"/>
      <point x="634.8" y="908.6" type="curve" smooth="yes"/>
      <point x="770.6" y="908.6"/>
      <point x="852.8" y="819.4"/>
      <point x="852.4" y="670.0" type="curve" smooth="yes"/>
      <point x="852.4" y="0.0" type="line"/>
      <point x="1115.8" y="0.0" type="line"/>
      <point x="1115.8" y="711.2" type="line" smooth="yes"/>
      <point x="1115.8" y="979.4"/>
      <point x="963.4" y="1132.0"/>
      <point x="733.0" y="1132.0" type="curve" smooth="yes"/>
      <point x="566.2" y="1132.0"/>
      <point x="451.2" y="1052.0"/>
      <point x="400.2" y="927.8" type="curve"/>
      <point x="387.0" y="927.8" type="line"/>
      <point x="387.0" y="1117.0" type="line"/>
      <point x="135.0" y="1117.0" type="line"/>
      <point x="135.0" y="0.0" type="line"/>
      <point x="398.6" y="0.0" type="line"/>
    </contour>
  </outline>
</glyph>
<glyph name="o" format="2">
  <advance height="2479.0" width="1245.2"/>
  <unicode hex="006F"/>
  <anchor x="622.6" y="0.0" name="bottom"/>
  <anchor x="765.8" y="0.0" name="ogonek"/>
  <anchor x="622.6" y="1303.0" name="top"/>
  <outline>
    <contour>
      <point x="622.6" y="-21.8" type="curve" smooth="yes"/>
      <point x="949.4" y="-21.8"/>
      <point x="1157.8" y="209.0"/>
      <point x="1157.8" y="554.2" type="curve" smooth="yes"/>
      <point x="1157.8" y="900.8"/>
      <point x="949.4" y="1132.0"/>
      <point x="622.6" y="1132.0" type="curve" smooth="yes"/>
      <point x="295.2" y="1132.0"/>
      <point x="87.4" y="900.8"/>
      <point x="87.4" y="554.2" type="curve" smooth="yes"/>
      <point x="87.4" y="209.0"/>
      <point x="295.2" y="-21.8"/>
    </contour>
    <contour>
      <point x="623.8" y="189.0" type="curve" smooth="yes"/>
      <point x="442.6" y="189.0"/>
      <point x="354.0" y="350.6"/>
      <point x="354.0" y="555.4" type="curve" smooth="yes"/>
      <point x="354.0" y="759.8"/>
      <point x="442.6" y="922.6"/>
      <point x="623.8" y="922.6" type="curve" smooth="yes"/>
      <point x="802.6" y="922.6"/>
      <point x="890.6" y="759.8"/>
      <point x="890.6" y="555.4" type="curve" smooth="yes"/>
      <point x="890.6" y="350.6"/>
      <point x="802.6" y="189.0"/>
    </contour>
  </outline>
</glyph>
<glyph name="p" format="2">
  <advance height="2479.0" width="1277.2"/>
  <unicode hex="0070"/>
  <anchor x="266.6" y="-411.8" name="bottom"/>
  <anchor x="1296.8" y="-487.8" name="bottom0315"/>
  <anchor x="266.4" y="-163.0" name="cross"/>
  <anchor x="685.0" y="1303.0" name="top"/>
  <outline>
    <contour>
      <point x="135.0" y="-419.0" type="line"/>
      <point x="398.6" y="-419.0" type="line"/>
      <point x="398.6" y="176.4" type="line"/>
      <point x="409.4" y="176.4" type="line"/>
      <point x="451.0" y="94.6"/>
      <point x="537.6" y="-19.8"/>
      <point x="729.4" y="-19.8" type="curve" smooth="yes"/>
      <point x="992.4" y="-19.8"/>
      <point x="1189.8" y="189.4"/>
      <point x="1189.8" y="557.2" type="curve" smooth="yes"/>
      <point x="1189.8" y="930.0"/>
      <point x="986.4" y="1132.0"/>
      <point x="728.8" y="1132.0" type="curve" smooth="yes"/>
      <point x="531.6" y="1132.0"/>
      <point x="449.8" y="1013.2"/>
      <point x="409.4" y="932.8" type="curve"/>
      <point x="393.8" y="932.8" type="line"/>
      <point x="393.8" y="1117.0" type="line"/>
      <point x="135.0" y="1117.0" type="line"/>
    </contour>
    <contour>
      <point x="393.6" y="559.0" type="curve" smooth="yes"/>
      <point x="393.6" y="775.0"/>
      <point x="486.0" y="915.4"/>
      <point x="656.4" y="915.4" type="curve" smooth="yes"/>
      <point x="831.6" y="915.4"/>
      <point x="922.0" y="766.0"/>
      <point x="922.0" y="559.0" type="curve" smooth="yes"/>
      <point x="922.0" y="349.2"/>
      <point x="829.8" y="196.2"/>
      <point x="656.4" y="196.2" type="curve" smooth="yes"/>
      <point x="487.8" y="196.2"/>
      <point x="393.6" y="341.4"/>
    </contour>
  </outline>
</glyph>
<glyph name="q" format="2">
  <advance height="2479.0" width="1277.2"/>
  <unicode hex="0071"/>
  <anchor x="1010.2" y="-411.8" name="bottom"/>
  <anchor x="1010.8" y="-163.0" name="cross"/>
  <anchor x="591.8" y="1303.0" name="top"/>
  <outline>
    <contour>
      <point x="878.2" y="-419.0" type="line"/>
      <point x="1142.2" y="-419.0" type="line"/>
      <point x="1142.2" y="1117.0" type="line"/>
      <point x="883.0" y="1117.0" type="line"/>
      <point x="883.0" y="932.8" type="line"/>
      <point x="867.8" y="932.8" type="line"/>
      <point x="827.4" y="1013.2"/>
      <point x="745.2" y="1132.0"/>
      <point x="548.0" y="1132.0" type="curve" smooth="yes"/>
      <point x="290.4" y="1132.0"/>
      <point x="87.4" y="930.0"/>
      <point x="87.4" y="557.2" type="curve" smooth="yes"/>
      <point x="87.4" y="189.4"/>
      <point x="284.8" y="-19.8"/>
      <point x="547.4" y="-19.8" type="curve" smooth="yes"/>
      <point x="739.2" y="-19.8"/>
      <point x="826.2" y="94.6"/>
      <point x="867.8" y="176.4" type="curve"/>
      <point x="878.2" y="176.4" type="line"/>
    </contour>
    <contour>
      <point x="620.8" y="196.2" type="curve" smooth="yes"/>
      <point x="447.4" y="196.2"/>
      <point x="355.2" y="349.2"/>
      <point x="355.2" y="559.0" type="curve" smooth="yes"/>
      <point x="355.2" y="766.0"/>
      <point x="445.6" y="915.4"/>
      <point x="620.8" y="915.4" type="curve" smooth="yes"/>
      <point x="790.8" y="915.4"/>
      <point x="883.6" y="775.0"/>
      <point x="883.6" y="559.0" type="curve" smooth="yes"/>
      <point x="883.6" y="341.4"/>
      <point x="789.0" y="196.2"/>
    </contour>
  </outline>
</glyph>
<glyph name="r" format="2">
  <advance height="2479.0" width="812.0"/>
  <unicode hex="0072"/>
  <anchor x="266.6" y="0.0" name="bottom"/>
  <anchor x="267.6" y="535.0" name="cross"/>
  <anchor x="446.4" y="1303.0" name="top"/>
  <outline>
    <contour>
      <point x="135.0" y="0.0" type="line"/>
      <point x="398.6" y="0.0" type="line"/>
      <point x="398.6" y="657.0" type="line" smooth="yes"/>
      <point x="398.6" y="798.8"/>
      <point x="505.2" y="899.0"/>
      <point x="650.6" y="899.0" type="curve" smooth="yes"/>
      <point x="694.6" y="899.0"/>
      <point x="749.6" y="891.2"/>
      <point x="772.8" y="883.8" type="curve"/>
      <point x="772.8" y="1125.6" type="line"/>
      <point x="748.0" y="1130.2"/>
      <point x="707.0" y="1133.8"/>
      <point x="677.4" y="1133.8" type="curve" smooth="yes"/>
      <point x="550.0" y="1133.8"/>
      <point x="442.6" y="1060.2"/>
      <point x="402.2" y="930.8" type="curve"/>
      <point x="390.6" y="930.8" type="line"/>
      <point x="390.6" y="1117.0" type="line"/>
      <point x="135.0" y="1117.0" type="line"/>
    </contour>
  </outline>
</glyph>
<glyph name="s" format="2">
  <advance height="2479.0" width="1124.2"/>
  <unicode hex="0073"/>
  <anchor x="570.2" y="0.0" name="bottom"/>
  <anchor x="572.0" y="0.0" name="cedilla"/>
  <anchor x="573.8" y="1303.0" name="top"/>
  <outline>
    <contour>
      <point x="1018.0" y="821.4" type="line"/>
      <point x="982.2" y="1011.0"/>
      <point x="830.8" y="1132.0"/>
      <point x="569.0" y="1132.0" type="curve" smooth="yes"/>
      <point x="299.8" y="1132.0"/>
      <point x="116.6" y="999.2"/>
      <point x="117.4" y="792.6" type="curve" smooth="yes"/>
      <point x="116.6" y="629.8"/>
      <point x="216.8" y="522.2"/>
      <point x="431.0" y="477.4" type="curve" smooth="yes"/>
      <point x="621.8" y="437.6" type="line" smooth="yes"/>
      <point x="724.4" y="415.0"/>
      <point x="771.8" y="374.0"/>
      <point x="772.6" y="311.0" type="curve" smooth="yes"/>
      <point x="771.8" y="234.6"/>
      <point x="689.4" y="176.8"/>
      <point x="564.2" y="176.8" type="curve" smooth="yes"/>
      <point x="443.8" y="176.8"/>
      <point x="365.4" y="228.4"/>
      <point x="343.0" y="329.2" type="curve"/>
      <point x="85.6" y="305.2" type="line"/>
      <point x="118.4" y="99.6"/>
      <point x="291.2" y="-21.8"/>
      <point x="564.8" y="-21.8" type="curve" smooth="yes"/>
      <point x="844.4" y="-21.8"/>
      <point x="1041.8" y="123.4"/>
      <point x="1042.2" y="334.2" type="curve" smooth="yes"/>
      <point x="1041.8" y="494.2"/>
      <point x="938.6" y="591.4"/>
      <point x="728.0" y="637.2" type="curve" smooth="yes"/>
      <point x="537.6" y="678.2" type="line" smooth="yes"/>
      <point x="424.4" y="703.4"/>
      <point x="378.8" y="742.8"/>
      <point x="379.2" y="806.6" type="curve" smooth="yes"/>
      <point x="378.8" y="883.0"/>
      <point x="462.8" y="935.4"/>
      <point x="572.6" y="935.4" type="curve" smooth="yes"/>
      <point x="694.2" y="935.4"/>
      <point x="757.6" y="868.8"/>
      <point x="777.6" y="795.0" type="curve"/>
    </contour>
  </outline>
</glyph>
<glyph name="t" format="2">
  <advance height="2479.0" width="778.6"/>
  <unicode hex="0074"/>
  <anchor x="598.8" y="1562.0" name="raccent"/>
  <anchor x="435.2" y="0.0" name="bottom"/>
  <anchor x="528.0" y="0.0" name="cedilla"/>
  <anchor x="342.0" y="1510.2" name="top"/>
  <outline>
    <contour>
      <point x="693.0" y="1117.0" type="line"/>
      <point x="51.2" y="1117.0" type="line"/>
      <point x="51.2" y="913.6" type="line"/>
      <point x="693.0" y="913.6" type="line"/>
    </contour>
    <component base="_part.t_base"/>
  </outline>
</glyph>
<glyph name="u" format="2">
  <advance height="2479.0" width="1245.6"/>
  <unicode hex="0075"/>
  <anchor x="654.4" y="0.0" name="bottom"/>
  <anchor x="1111.0" y="0.0" name="ogonek"/>
  <anchor x="624.0" y="1303.0" name="top"/>
  <outline>
    <contour>
      <point x="847.0" y="469.8" type="line" smooth="yes"/>
      <point x="847.4" y="299.4"/>
      <point x="725.8" y="215.0"/>
      <point x="609.0" y="215.0" type="curve" smooth="yes"/>
      <point x="483.4" y="215.0"/>
      <point x="399.0" y="304.8"/>
      <point x="398.6" y="447.0" type="curve" smooth="yes"/>
      <point x="398.6" y="1117.0" type="line"/>
      <point x="135.0" y="1117.0" type="line"/>
      <point x="135.0" y="405.8" type="line" smooth="yes"/>
      <point x="135.4" y="137.2"/>
      <point x="287.6" y="-15.0"/>
      <point x="507.6" y="-15.0" type="curve" smooth="yes"/>
      <point x="675.4" y="-15.0"/>
      <point x="792.6" y="73.6"/>
      <point x="843.4" y="198.2" type="curve"/>
      <point x="855.4" y="198.2" type="line"/>
      <point x="855.4" y="0.0" type="line"/>
      <point x="1111.0" y="0.0" type="line"/>
      <point x="1111.0" y="1117.0" type="line"/>
      <point x="847.0" y="1117.0" type="line"/>
    </contour>
  </outline>
</glyph>
<glyph name="v" format="2">
  <advance height="2479.0" width="1179.6"/>
  <unicode hex="0076"/>
  <anchor x="590.0" y="0.0" name="bottom"/>
  <anchor x="590.0" y="1303.0" name="top"/>
  <outline>
    <contour>
      <point x="1133.8" y="1117.0" type="line"/>
      <point x="852.8" y="1117.0" type="line"/>
      <point x="595.6" y="287.4" type="line"/>
      <point x="584.0" y="287.4" type="line"/>
      <point x="326.8" y="1117.0" type="line"/>
      <point x="46.8" y="1117.0" type="line"/>
      <point x="444.6" y="0.0" type="line"/>
      <point x="735.0" y="0.0" type="line"/>
    </contour>
  </outline>
</glyph>
<glyph name="w" format="2">
  <advance height="2479.0" width="1715.2"/>
  <unicode hex="0077"/>
  <anchor x="854.0" y="0.0" name="bottom"/>
  <anchor x="857.6" y="1303.0" name="top"/>
  <outline>
    <contour>
      <point x="366.0" y="0.0" type="line"/>
      <point x="640.6" y="0.0" type="line"/>
      <point x="849.8" y="754.4" type="line"/>
      <point x="865.4" y="754.4" type="line"/>
      <point x="1074.6" y="0.0" type="line"/>
      <point x="1349.2" y="0.0" type="line"/>
      <point x="1665.2" y="1117.0" type="line"/>
      <point x="1396.4" y="1117.0" type="line"/>
      <point x="1202.4" y="335.8" type="line"/>
      <point x="1192.2" y="335.8" type="line"/>
      <point x="991.4" y="1117.0" type="line"/>
      <point x="725.6" y="1117.0" type="line"/>
      <point x="525.4" y="331.6" type="line"/>
      <point x="515.2" y="331.6" type="line"/>
      <point x="318.8" y="1117.0" type="line"/>
      <point x="50.0" y="1117.0" type="line"/>
    </contour>
  </outline>
</glyph>
<glyph name="x" format="2">
  <advance height="2479.0" width="1151.8"/>
  <unicode hex="0078"/>
  <anchor x="576.2" y="0.0" name="bottom"/>
  <anchor x="576.2" y="559.0" name="cross"/>
  <anchor x="1050.6" y="103.6" name="cyrtic"/>
  <anchor x="907.4" y="0.0" name="right"/>
  <anchor x="576.2" y="1303.0" name="top"/>
  <outline>
    <contour>
      <point x="350.2" y="1117.0" type="line"/>
      <point x="71.0" y="1117.0" type="line"/>
      <point x="402.4" y="559.0" type="line"/>
      <point x="62.599999999999994" y="0.0" type="line"/>
      <point x="342.2" y="0.0" type="line"/>
      <point x="576.2" y="401.8" type="line"/>
      <point x="812.0" y="0.0" type="line"/>
      <point x="1089.2" y="0.0" type="line"/>
      <point x="746.6" y="559.0" type="line"/>
      <point x="1083.2" y="1117.0" type="line"/>
      <point x="805.2" y="1117.0" type="line"/>
      <point x="576.2" y="704.4" type="line"/>
    </contour>
  </outline>
</glyph>
<glyph name="y" format="2">
  <advance height="2479.0" width="1179.6"/>
  <unicode hex="0079"/>
  <anchor x="912.6" y="-29.4" name="bottom"/>
  <anchor x="757.8" y="-419.0" name="ogonek"/>
  <anchor x="588.8" y="1303.0" name="top"/>
  <outline>
    <contour>
      <point x="299.2" y="-419.0" type="curve" smooth="yes"/>
      <point x="504.6" y="-419.0"/>
      <point x="622.8" y="-313.4"/>
      <point x="685.6" y="-135.0" type="curve" smooth="yes"/>
      <point x="1133.8" y="1117.0" type="line"/>
      <point x="852.8" y="1117.0" type="line"/>
      <point x="594.8" y="273.4" type="line"/>
      <point x="582.8" y="273.4" type="line"/>
      <point x="326.0" y="1117.0" type="line"/>
      <point x="46.8" y="1117.0" type="line"/>
      <point x="451.4" y="-23.2" type="line"/>
      <point x="429.0" y="-83.8" type="line" smooth="yes"/>
      <point x="380.4" y="-210.6"/>
      <point x="303.0" y="-219.0"/>
      <point x="188.4" y="-186.2" type="curve"/>
      <point x="127.8" y="-391.4" type="line"/>
      <point x="162.8" y="-405.8"/>
      <point x="227.0" y="-419.0"/>
    </contour>
  </outline>
</glyph>
<glyph name="z" format="2">
  <advance height="2479.0" width="1150.0"/>
  <unicode hex="007A"/>
  <anchor x="572.6" y="0.0" name="bottom"/>
  <anchor x="572.6" y="559.0" name="cross"/>
  <anchor x="573.8" y="1303.0" name="top"/>
  <outline>
    <contour>
      <point x="120.2" y="0.0" type="line"/>
      <point x="1038.2" y="0.0" type="line"/>
      <point x="1038.2" y="218.0" type="line"/>
      <point x="470.8" y="218.0" type="line"/>
      <point x="470.8" y="227.6" type="line"/>
      <point x="1018.4" y="937.2" type="line"/>
      <point x="1018.4" y="1117.0" type="line"/>
      <point x="139.4" y="1117.0" type="line"/>
      <point x="139.4" y="899.0" type="line"/>
      <point x="696.2" y="899.0" type="line"/>
      <point x="696.2" y="889.4" type="line"/>
      <point x="120.2" y="167.0" type="line"/>
    </contour>
  </outline>
</glyph>
<glyph name="braceleft" format="2">
  <advance height="2479.0" width="806.0"/>
  <unicode hex="007B"/>
  <outline>
    <contour>
      <point x="67.6" y="601.8" type="line"/>
      <point x="462.8" y="601.8"/>
      <point x="539.4" y="721.4"/>
      <point x="539.4" y="870.6" type="curve" smooth="yes"/>
      <point x="539.4" y="1108.6" type="line" smooth="yes"/>
      <point x="539.4" y="1260.0"/>
      <point x="579.8" y="1329.8"/>
      <point x="751.2" y="1329.8" type="curve"/>
      <point x="751.2" y="1531.0" type="line"/>
      <point x="460.2" y="1531.0"/>
      <point x="289.2" y="1457.8"/>
      <point x="289.2" y="1129.8" type="curve" smooth="yes"/>
      <point x="289.2" y="945.0" type="line" smooth="yes"/>
      <point x="289.2" y="792.2"/>
      <point x="232.8" y="730.0"/>
      <point x="67.6" y="730.0" type="curve"/>
    </contour>
    <contour>
      <point x="751.2" y="-316.6" type="curve"/>
      <point x="751.2" y="-114.8" type="line"/>
      <point x="579.8" y="-114.8"/>
      <point x="539.4" y="-45.0"/>
      <point x="539.4" y="105.8" type="curve" smooth="yes"/>
      <point x="539.4" y="344.4" type="line" smooth="yes"/>
      <point x="539.4" y="493.0"/>
      <point x="462.8" y="612.6"/>
      <point x="67.6" y="612.6" type="curve"/>
      <point x="67.6" y="485.0" type="line"/>
      <point x="232.8" y="485.0"/>
      <point x="289.2" y="422.2"/>
      <point x="289.2" y="270.0" type="curve" smooth="yes"/>
      <point x="289.2" y="84.6" type="line" smooth="yes"/>
      <point x="289.2" y="-242.8"/>
      <point x="460.2" y="-316.6"/>
    </contour>
    <contour>
      <point x="67.6" y="485.0" type="line"/>
      <point x="298.2" y="485.0" type="line"/>
      <point x="298.2" y="730.0" type="line"/>
      <point x="67.6" y="730.0" type="line"/>
    </contour>
  </outline>
</glyph>
<glyph name="asciitilde" format="2">
  <advance height="2479.0" width="1378.0"/>
  <unicode hex="007E"/>
  <outline>
    <contour>
      <point x="160.6" y="415.2" type="curve"/>
      <point x="371.2" y="415.2" type="line"/>
      <point x="368.8" y="538.2"/>
      <point x="421.8" y="587.2"/>
      <point x="493.6" y="587.2" type="curve" smooth="yes"/>
      <point x="543.8" y="587.2"/>
      <point x="572.2" y="564.6"/>
      <point x="636.6" y="508.2" type="curve" smooth="yes"/>
      <point x="739.8" y="418.2"/>
      <point x="814.4" y="379.0"/>
      <point x="911.8" y="379.0" type="curve" smooth="yes"/>
      <point x="1089.0" y="379.0"/>
      <point x="1224.6" y="511.8"/>
      <point x="1217.0" y="775.6" type="curve"/>
      <point x="1006.4" y="775.6" type="line"/>
      <point x="1009.2" y="659.2"/>
      <point x="957.8" y="604.2"/>
      <point x="884.4" y="604.2" type="curve" smooth="yes"/>
      <point x="833.4" y="604.2"/>
      <point x="800.8" y="629.4"/>
      <point x="740.2" y="682.6" type="curve" smooth="yes"/>
      <point x="633.8" y="775.8"/>
      <point x="560.4" y="811.8"/>
      <point x="466.2" y="811.8" type="curve" smooth="yes"/>
      <point x="284.8" y="811.8"/>
      <point x="152.8" y="679.6"/>
    </contour>
  </outline>
</glyph>
<glyph name="cent" format="2">
  <advance height="2479.0" width="1182.6"/>
  <unicode hex="00A2"/>
  <anchor x="620.2" y="190.2" name="cedilla"/>
  <anchor x="620.2" y="1493.2" name="top"/>
  <outline>
    <contour>
      <point x="558.6" y="0.0" type="line"/>
      <point x="677.6" y="0.0" type="line"/>
      <point x="677.6" y="1489.0" type="line"/>
      <point x="558.6" y="1489.0" type="line"/>
    </contour>
    <component base="c" yOffset="190.2"/>
  </outline>
</glyph>
<glyph name="sterling" format="2">
  <advance height="2479.0" width="1347.6"/>
  <unicode hex="00A3"/>
  <outline>
    <contour>
      <point x="1190.8" y="0.0" type="line"/>
      <point x="1190.8" y="226.4" type="line"/>
      <point x="140.8" y="226.4" type="line"/>
      <point x="140.8" y="0.0" type="line"/>
    </contour>
    <contour>
      <point x="894.4" y="588.2" type="line"/>
      <point x="894.4" y="809.0" type="line"/>
      <point x="136.0" y="809.0" type="line"/>
      <point x="136.0" y="588.2" type="line"/>
    </contour>
    <contour>
      <point x="549.8" y="1058.6" type="line"/>
      <point x="549.0" y="1215.6"/>
      <point x="644.4" y="1288.4"/>
      <point x="751.4" y="1288.4" type="curve" smooth="yes"/>
      <point x="857.6" y="1288.4"/>
      <point x="954.0" y="1229.0"/>
      <point x="944.8" y="1096.8" type="curve"/>
      <point x="1197.8" y="1076.0" type="line"/>
      <point x="1223.2" y="1317.0"/>
      <point x="1039.8" y="1510.0"/>
      <point x="745.4" y="1510.0" type="curve" smooth="yes"/>
      <point x="488.8" y="1510.0"/>
      <point x="275.8" y="1353.6"/>
      <point x="286.8" y="1058.6" type="curve" smooth="yes"/>
      <point x="308.6" y="423.4" type="line" smooth="yes"/>
      <point x="310.8" y="343.2"/>
      <point x="295.0" y="235.60000000000002"/>
      <point x="223.6" y="226.4" type="curve"/>
      <point x="415.2" y="153.0" type="line"/>
      <point x="535.4" y="213.4"/>
      <point x="578.4" y="305.8"/>
      <point x="572.8" y="435.0" type="curve" smooth="yes"/>
    </contour>
  </outline>
</glyph>
<glyph name="currency" format="2">
  <advance height="2479.0" width="1537.8"/>
  <unicode hex="00A4"/>
  <outline>
    <contour>
      <point x="767.6" y="-20.0" type="curve" smooth="yes"/>
      <point x="1100.2" y="-20.0"/>
      <point x="1373.6" y="253.0"/>
      <point x="1374.0" y="608.0" type="curve" smooth="yes"/>
      <point x="1373.6" y="963.0"/>
      <point x="1100.2" y="1233.0"/>
      <point x="767.6" y="1233.0" type="curve" smooth="yes"/>
      <point x="432.2" y="1233.0"/>
      <point x="161.0" y="963.0"/>
      <point x="161.4" y="608.0" type="curve"/>
      <point x="161.0" y="253.0"/>
      <point x="432.2" y="-20.0"/>
    </contour>
    <contour>
      <point x="767.6" y="159.6" type="curve" smooth="yes"/>
      <point x="528.2" y="159.6"/>
      <point x="338.2" y="358.8"/>
      <point x="339.0" y="608.0" type="curve"/>
      <point x="338.2" y="859.8"/>
      <point x="528.2" y="1056.4"/>
      <point x="767.6" y="1056.4" type="curve" smooth="yes"/>
      <point x="1003.4" y="1056.4"/>
      <point x="1194.2" y="859.8"/>
      <point x="1194.6" y="608.0" type="curve" smooth="yes"/>
      <point x="1194.2" y="358.8"/>
      <point x="1003.4" y="159.6"/>
    </contour>
    <contour>
      <point x="1203.2" y="918.2" type="line"/>
      <point x="1410.2" y="1124.8" type="line"/>
      <point x="1276.0" y="1260.8" type="line"/>
      <point x="1071.4" y="1054.2" type="line"/>
    </contour>
    <contour>
      <point x="1276.0" y="-21.8" type="line"/>
      <point x="1410.2" y="114.8" type="line"/>
      <point x="1203.2" y="318.2" type="line"/>
      <point x="1071.4" y="185.2" type="line"/>
    </contour>
    <contour>
      <point x="262.8" y="-21.8" type="line"/>
      <point x="469.4" y="185.2" type="line"/>
      <point x="335.2" y="318.2" type="line"/>
      <point x="130.6" y="114.8" type="line"/>
    </contour>
    <contour>
      <point x="335.2" y="918.2" type="line"/>
      <point x="469.4" y="1054.2" type="line"/>
      <point x="262.8" y="1260.8" type="line"/>
      <point x="130.6" y="1124.8" type="line"/>
    </contour>
  </outline>
</glyph>
<glyph name="yen" format="2">
  <advance height="2479.0" width="1155.4"/>
  <unicode hex="00A5"/>
  <outline>
    <contour>
      <point x="311.2" y="1489.0" type="line"/>
      <point x="29.0" y="1489.0" type="line"/>
      <point x="455.0" y="585.6" type="line"/>
      <point x="643.4" y="712.4" type="line"/>
    </contour>
    <contour>
      <point x="514.4" y="717.2" type="line"/>
      <point x="699.6" y="585.6" type="line"/>
      <point x="1126.4" y="1489.0" type="line"/>
      <point x="844.2" y="1489.0" type="line"/>
    </contour>
    <contour>
      <point x="708.8" y="783.8" type="line"/>
      <point x="441.0" y="783.8" type="line"/>
      <point x="441.0" y="0.0" type="line"/>
      <point x="708.8" y="0.0" type="line"/>
    </contour>
    <contour>
      <point x="1013.4" y="759.2" type="line"/>
      <point x="120.6" y="759.2" type="line"/>
      <point x="120.6" y="595.8" type="line"/>
      <point x="1013.4" y="595.8" type="line"/>
    </contour>
    <contour>
      <point x="1013.4" y="471.2" type="line"/>
      <point x="120.6" y="471.2" type="line"/>
      <point x="120.6" y="307.8" type="line"/>
      <point x="1013.4" y="307.8" type="line"/>
    </contour>
  </outline>
</glyph>
<glyph name="brokenbar" format="2">
  <advance height="2479.0" width="652.4"/>
  <unicode hex="00A6"/>
  <outline>
    <contour>
      <point x="207.2" y="410.6" type="line"/>
      <point x="207.2" y="-279.0" type="line"/>
      <point x="445.2" y="-279.0" type="line"/>
      <point x="445.2" y="410.6" type="line"/>
    </contour>
    <contour>
      <point x="445.2" y="1489.0" type="line"/>
      <point x="207.2" y="1489.0" type="line"/>
      <point x="207.2" y="802.4" type="line"/>
      <point x="445.2" y="802.4" type="line"/>
    </contour>
  </outline>
</glyph>
<glyph name="section" format="2">
  <advance height="2479.0" width="1185.8"/>
  <unicode hex="00A7"/>
  <outline>
    <contour>
      <point x="989.0" y="1125.4" type="line"/>
      <point x="988.6" y="1348.8"/>
      <point x="829.0" y="1510.0"/>
      <point x="584.6" y="1510.0" type="curve" smooth="yes"/>
      <point x="352.2" y="1510.0"/>
      <point x="187.8" y="1363.8"/>
      <point x="188.2" y="1165.0" type="curve" smooth="yes"/>
      <point x="187.8" y="1058.6"/>
      <point x="234.2" y="976.4"/>
      <point x="303.6" y="908.2" type="curve"/>
      <point x="303.6" y="904.6" type="line"/>
      <point x="214.2" y="879.2"/>
      <point x="119.8" y="797.0"/>
      <point x="113.0" y="680.8" type="curve" smooth="yes"/>
      <point x="101.0" y="478.4"/>
      <point x="259.4" y="385.4"/>
      <point x="337.8" y="347.0" type="curve" smooth="yes"/>
      <point x="617.8" y="208.8" type="line" smooth="yes"/>
      <point x="677.0" y="177.6"/>
      <point x="759.2" y="132.4"/>
      <point x="759.6" y="45.6" type="curve" smooth="yes"/>
      <point x="759.2" y="-38.0"/>
      <point x="676.0" y="-74.8"/>
      <point x="591.4" y="-76.0" type="curve" smooth="yes"/>
      <point x="471.6" y="-79.6"/>
      <point x="393.2" y="-18.799999999999997"/>
      <point x="393.6" y="90.2" type="curve"/>
      <point x="154.6" y="90.2" type="line"/>
      <point x="154.6" y="-149.6"/>
      <point x="333.0" y="-301.8"/>
      <point x="589.0" y="-301.8" type="curve" smooth="yes"/>
      <point x="815.4" y="-301.8"/>
      <point x="998.4" y="-179.6"/>
      <point x="998.8" y="45.6" type="curve" smooth="yes"/>
      <point x="998.4" y="150.2"/>
      <point x="959.6" y="236.0"/>
      <point x="882.0" y="304.2" type="curve"/>
      <point x="884.0" y="307.2" type="line"/>
      <point x="964.6" y="331.4"/>
      <point x="1066.8" y="412.4"/>
      <point x="1074.0" y="529.6" type="curve" smooth="yes"/>
      <point x="1086.4" y="730.4"/>
      <point x="926.2" y="822.0"/>
      <point x="850.4" y="860.0" type="curve" smooth="yes"/>
      <point x="569.8" y="1001.6" type="line" smooth="yes"/>
      <point x="508.4" y="1030.6"/>
      <point x="425.2" y="1089.0"/>
      <point x="425.6" y="1165.0" type="curve" smooth="yes"/>
      <point x="425.2" y="1235.0"/>
      <point x="489.8" y="1286.0"/>
      <point x="584.6" y="1286.0" type="curve" smooth="yes"/>
      <point x="697.6" y="1286.0"/>
      <point x="751.8" y="1217.4"/>
      <point x="752.2" y="1125.4" type="curve"/>
    </contour>
    <contour>
      <point x="851.2" y="518.8" type="curve"/>
      <point x="846.4" y="438.2"/>
      <point x="762.4" y="388.4"/>
      <point x="712.2" y="414.2" type="curve" smooth="yes"/>
      <point x="460.0" y="538.8" type="line" smooth="yes"/>
      <point x="381.6" y="576.8"/>
      <point x="329.8" y="625.8"/>
      <point x="334.6" y="691.2" type="curve" smooth="yes"/>
      <point x="339.0" y="772.4"/>
      <point x="414.0" y="827.0"/>
      <point x="470.0" y="798.2" type="curve" smooth="yes"/>
      <point x="727.0" y="669.8" type="line" smooth="yes"/>
      <point x="806.2" y="632.4"/>
      <point x="855.6" y="580.0"/>
    </contour>
  </outline>
</glyph>
<glyph name="dieresis" format="2">
  <advance height="2479.0" width="1133.2"/>
  <unicode hex="00A8"/>
  <anchor x="566.6" y="1303.0" name="_top"/>
  <anchor x="566.6" y="1676.0" name="top"/>
  <outline>
    <contour>
      <point x="349.2" y="1281.0" type="curve" smooth="yes"/>
      <point x="427.8" y="1281.0"/>
      <point x="488.8" y="1345.0"/>
      <point x="488.8" y="1418.8" type="curve" smooth="yes"/>
      <point x="488.8" y="1496.2"/>
      <point x="427.8" y="1555.6"/>
      <point x="349.2" y="1555.6" type="curve" smooth="yes"/>
      <point x="273.0" y="1555.6"/>
      <point x="208.2" y="1496.2"/>
      <point x="208.2" y="1418.8" type="curve" smooth="yes"/>
      <point x="208.2" y="1345.0"/>
      <point x="273.0" y="1281.0"/>
    </contour>
    <contour>
      <point x="785.8" y="1281.0" type="curve" smooth="yes"/>
      <point x="863.8" y="1281.0"/>
      <point x="925.0" y="1345.0"/>
      <point x="925.0" y="1418.8" type="curve" smooth="yes"/>
      <point x="925.0" y="1496.2"/>
      <point x="863.8" y="1555.6"/>
      <point x="785.8" y="1555.6" type="curve" smooth="yes"/>
      <point x="709.0" y="1555.6"/>
      <point x="644.4" y="1496.2"/>
      <point x="644.4" y="1418.8" type="curve" smooth="yes"/>
      <point x="644.4" y="1345.0"/>
      <point x="709.0" y="1281.0"/>
    </contour>
  </outline>
</glyph>
<glyph name="copyright" format="2">
  <advance height="2479.0" width="1873.0"/>
  <unicode hex="00A9"/>
  <outline>
    <contour>
      <point x="525.2" y="745.0" type="curve" smooth="yes"/>
      <point x="525.2" y="514.4"/>
      <point x="712.2" y="327.4"/>
      <point x="942.8" y="327.4" type="curve" smooth="yes"/>
      <point x="1144.6" y="327.4"/>
      <point x="1304.2" y="470.8"/>
      <point x="1328.6" y="661.2" type="curve"/>
      <point x="1125.8" y="661.2" type="line"/>
      <point x="1108.8" y="579.2"/>
      <point x="1036.0" y="521.4"/>
      <point x="942.8" y="521.4" type="curve" smooth="yes"/>
      <point x="820.2" y="521.4"/>
      <point x="719.8" y="621.8"/>
      <point x="719.8" y="745.4" type="curve" smooth="yes"/>
      <point x="719.8" y="868.4"/>
      <point x="820.2" y="968.0"/>
      <point x="942.8" y="968.0" type="curve" smooth="yes"/>
      <point x="1036.0" y="968.0"/>
      <point x="1118.4" y="910.2"/>
      <point x="1134.2" y="828.8" type="curve"/>
      <point x="1337.0" y="828.8" type="line"/>
      <point x="1313.2" y="1018.2"/>
      <point x="1144.6" y="1162.2"/>
      <point x="942.8" y="1162.2" type="curve" smooth="yes"/>
      <point x="712.2" y="1162.2"/>
      <point x="525.2" y="975.0"/>
    </contour>
    <component base="whiteCircle"/>
  </outline>
</glyph>
<glyph name="ordfeminine" format="2">
  <advance height="2479.0" width="971.4"/>
  <unicode hex="00AA"/>
  <outline>
    <contour>
      <point x="610.0" y="861.0" type="line"/>
      <point x="610.0" y="806.6"/>
      <point x="619.8" y="751.0"/>
      <point x="634.2" y="705.8" type="curve"/>
      <point x="815.4" y="705.8" type="line"/>
      <point x="792.4" y="767.4"/>
      <point x="787.6" y="827.8"/>
      <point x="787.6" y="887.0" type="curve" smooth="yes"/>
      <point x="787.6" y="1201.0" type="line"/>
      <point x="787.6" y="1385.0"/>
      <point x="669.2" y="1478.0"/>
      <point x="490.6" y="1478.0" type="curve" smooth="yes"/>
      <point x="299.6" y="1478.0"/>
      <point x="174.0" y="1379.0"/>
      <point x="174.0" y="1243.8" type="curve"/>
      <point x="350.4" y="1231.0" type="line"/>
      <point x="350.4" y="1295.0"/>
      <point x="402.4" y="1329.0"/>
      <point x="490.6" y="1329.0" type="curve" smooth="yes"/>
      <point x="572.0" y="1329.0"/>
      <point x="610.0" y="1283.6"/>
      <point x="610.0" y="1201.0" type="curve"/>
    </contour>
    <contour>
      <point x="654.2" y="1150.8" type="line"/>
      <point x="506.8" y="1150.8" type="line"/>
      <point x="272.0" y="1150.8"/>
      <point x="157.8" y="1068.0"/>
      <point x="157.8" y="919.0" type="curve" smooth="yes"/>
      <point x="157.8" y="783.0"/>
      <point x="249.0" y="692.0"/>
      <point x="411.4" y="692.0" type="curve" smooth="yes"/>
      <point x="550.8" y="692.0"/>
      <point x="627.0" y="768.6"/>
      <point x="657.2" y="833.8" type="curve"/>
      <point x="640.2" y="951.0" type="line"/>
      <point x="640.2" y="902.0"/>
      <point x="538.8" y="836.8"/>
      <point x="456.6" y="836.8" type="curve" smooth="yes"/>
      <point x="373.4" y="836.8"/>
      <point x="337.2" y="870.0"/>
      <point x="337.2" y="923.8" type="curve" smooth="yes"/>
      <point x="337.2" y="981.8"/>
      <point x="389.6" y="1034.8"/>
      <point x="506.8" y="1034.8" type="curve"/>
      <point x="654.2" y="1034.8" type="line"/>
    </contour>
  </outline>
</glyph>
<glyph name="logicalnot" format="2">
  <advance height="2479.0" width="1159.8"/>
  <unicode hex="00AC"/>
  <outline>
    <contour>
      <point x="1008.0" y="806.0" type="line"/>
      <point x="156.6" y="806.0" type="line"/>
      <point x="156.6" y="634.0" type="line"/>
      <point x="1008.0" y="634.0" type="line"/>
    </contour>
    <contour>
      <point x="1008.0" y="727.0" type="line"/>
      <point x="803.4" y="727.0" type="line"/>
      <point x="803.4" y="375.0" type="line"/>
      <point x="1008.0" y="375.0" type="line"/>
    </contour>
  </outline>
</glyph>
<glyph name="registered" format="2">
  <advance height="2479.0" width="1363.8"/>
  <unicode hex="00AE"/>
  <outline>
    <contour>
      <point x="473.8" y="666.0" type="line"/>
      <point x="606.2" y="666.0" type="line"/>
      <point x="606.2" y="1105.2" type="line"/>
      <point x="702.6" y="1105.2" type="line" smooth="yes"/>
      <point x="737.2" y="1105.2"/>
      <point x="777.2" y="1084.6"/>
      <point x="777.2" y="1027.0" type="curve" smooth="yes"/>
      <point x="777.2" y="971.4"/>
      <point x="738.4" y="943.4"/>
      <point x="700.8" y="943.4" type="curve" smooth="yes"/>
      <point x="547.2" y="943.4" type="line"/>
      <point x="547.2" y="846.8" type="line"/>
      <point x="732.0" y="846.8" type="line" smooth="yes"/>
      <point x="825.8" y="846.8"/>
      <point x="917.8" y="911.4"/>
      <point x="917.8" y="1027.0" type="curve" smooth="yes"/>
      <point x="917.8" y="1141.6"/>
      <point x="828.8" y="1203.0"/>
      <point x="739.4" y="1203.0" type="curve" smooth="yes"/>
      <point x="473.8" y="1203.0" type="line"/>
    </contour>
    <contour>
      <point x="810.2" y="915.8" type="line"/>
      <point x="671.4" y="915.8" type="line"/>
      <point x="791.6" y="666.0" type="line"/>
      <point x="936.2" y="666.0" type="line"/>
    </contour>
    <contour>
      <point x="682.2" y="346.0" type="curve" smooth="yes"/>
      <point x="1003.6" y="346.0"/>
      <point x="1263.6" y="607.0"/>
      <point x="1263.6" y="928.0" type="curve" smooth="yes"/>
      <point x="1263.6" y="1249.0"/>
      <point x="1003.2" y="1510.0"/>
      <point x="682.2" y="1510.0" type="curve" smooth="yes"/>
      <point x="360.2" y="1510.0"/>
      <point x="100.2" y="1249.0"/>
      <point x="100.2" y="928.0" type="curve" smooth="yes"/>
      <point x="100.2" y="607.0"/>
      <point x="360.2" y="346.0"/>
    </contour>
    <contour>
      <point x="682.2" y="495.2" type="curve" smooth="yes"/>
      <point x="442.8" y="495.2"/>
      <point x="248.8" y="689.2"/>
      <point x="248.8" y="928.0" type="curve" smooth="yes"/>
      <point x="248.8" y="1166.8"/>
      <point x="442.8" y="1360.8"/>
      <point x="682.2" y="1360.8" type="curve" smooth="yes"/>
      <point x="921.0" y="1360.8"/>
      <point x="1115.0" y="1166.8"/>
      <point x="1115.0" y="928.0" type="curve" smooth="yes"/>
      <point x="1115.0" y="688.8"/>
      <point x="921.4" y="495.2"/>
    </contour>
  </outline>
</glyph>
<glyph name="macron" format="2">
  <advance height="2479.0" width="1077.4"/>
  <unicode hex="00AF"/>
  <anchor x="538.8" y="1303.0" name="_top"/>
  <outline>
    <contour>
      <point x="888.4" y="1489.0" type="line"/>
      <point x="189.0" y="1489.0" type="line"/>
      <point x="189.0" y="1328.8" type="line"/>
      <point x="888.4" y="1328.8" type="line"/>
    </contour>
  </outline>
</glyph>
<glyph name="degree" format="2">
  <advance height="2479.0" width="937.8"/>
  <unicode hex="00B0"/>
  <outline>
    <contour>
      <point x="468.6" y="800.4" type="curve" smooth="yes"/>
      <point x="662.0" y="800.4"/>
      <point x="818.8" y="957.2"/>
      <point x="818.8" y="1150.6" type="curve" smooth="yes"/>
      <point x="818.8" y="1343.4"/>
      <point x="662.0" y="1499.8"/>
      <point x="468.6" y="1499.8" type="curve" smooth="yes"/>
      <point x="275.8" y="1499.8"/>
      <point x="119.4" y="1343.4"/>
      <point x="119.4" y="1150.6" type="curve" smooth="yes"/>
      <point x="119.4" y="957.2"/>
      <point x="275.8" y="800.4"/>
    </contour>
    <contour>
      <point x="468.6" y="986.6" type="curve" smooth="yes"/>
      <point x="378.6" y="986.6"/>
      <point x="305.2" y="1060.0"/>
      <point x="305.2" y="1150.6" type="curve" smooth="yes"/>
      <point x="305.2" y="1240.6"/>
      <point x="378.6" y="1314.0"/>
      <point x="468.6" y="1314.0" type="curve" smooth="yes"/>
      <point x="559.2" y="1314.0"/>
      <point x="632.6" y="1240.6"/>
      <point x="632.6" y="1150.6" type="curve" smooth="yes"/>
      <point x="632.6" y="1060.0"/>
      <point x="559.2" y="986.6"/>
    </contour>
  </outline>
</glyph>
<glyph name="plusminus" format="2">
  <advance height="2479.0" width="1378.0"/>
  <unicode hex="00B1"/>
  <outline>
    <contour>
      <point x="191.8" y="60.8" type="line"/>
      <point x="1186.2" y="60.8" type="line"/>
      <point x="1186.2" y="279.4" type="line"/>
      <point x="191.8" y="279.4" type="line"/>
    </contour>
    <contour>
      <point x="191.8" y="659.4" type="line"/>
      <point x="1186.2" y="659.4" type="line"/>
      <point x="1186.2" y="873.6" type="line"/>
      <point x="191.8" y="873.6" type="line"/>
    </contour>
    <contour>
      <point x="574.6" y="393.4" type="line"/>
      <point x="802.8" y="393.4" type="line"/>
      <point x="802.8" y="1140.2" type="line"/>
      <point x="574.6" y="1140.2" type="line"/>
    </contour>
  </outline>
</glyph>
<glyph name="twosuperior" format="2">
  <advance height="2479.0" width="865.8"/>
  <unicode hex="00B2"/>
  <anchor x="593.0" y="1227.0" name="cross"/>
  <outline>
    <contour>
      <point x="93.6" y="745.0" type="line"/>
      <point x="791.2" y="745.0" type="line"/>
      <point x="791.2" y="909.0" type="line"/>
      <point x="383.4" y="909.0" type="line"/>
      <point x="383.4" y="916.2" type="line"/>
      <point x="533.2" y="1034.8" type="line" smooth="yes"/>
      <point x="701.2" y="1158.4"/>
      <point x="775.6" y="1247.8"/>
      <point x="775.6" y="1373.4" type="curve" smooth="yes"/>
      <point x="775.6" y="1529.2"/>
      <point x="639.0" y="1649.0"/>
      <point x="430.6" y="1649.0" type="curve" smooth="yes"/>
      <point x="225.8" y="1649.0"/>
      <point x="79.6" y="1537.8"/>
      <point x="79.6" y="1357.8" type="curve"/>
      <point x="272.6" y="1357.8" type="line"/>
      <point x="272.6" y="1441.0"/>
      <point x="334.6" y="1490.4"/>
      <point x="427.6" y="1490.4" type="curve" smooth="yes"/>
      <point x="515.0" y="1490.4"/>
      <point x="583.2" y="1445.8"/>
      <point x="583.2" y="1370.4" type="curve" smooth="yes"/>
      <point x="583.2" y="1300.4"/>
      <point x="531.2" y="1253.4"/>
      <point x="443.2" y="1179.4" type="curve" smooth="yes"/>
      <point x="93.6" y="889.6" type="line"/>
    </contour>
  </outline>
</glyph>
<glyph name="threesuperior" format="2">
  <advance height="2479.0" width="897.4"/>
  <unicode hex="00B3"/>
  <outline>
    <contour>
      <point x="446.2" y="733.0" type="curve" smooth="yes"/>
      <point x="666.2" y="733.0"/>
      <point x="825.0" y="844.0"/>
      <point x="825.0" y="998.0" type="curve" smooth="yes"/>
      <point x="825.0" y="1109.2"/>
      <point x="744.6" y="1187.6"/>
      <point x="602.8" y="1202.8" type="curve"/>
      <point x="602.8" y="1210.0" type="line"/>
      <point x="705.4" y="1225.6"/>
      <point x="787.6" y="1291.4"/>
      <point x="787.6" y="1396.4" type="curve" smooth="yes"/>
      <point x="787.6" y="1539.0"/>
      <point x="652.2" y="1649.0"/>
      <point x="450.4" y="1649.0" type="curve" smooth="yes"/>
      <point x="251.2" y="1649.0"/>
      <point x="97.0" y="1542.6"/>
      <point x="94.0" y="1386.2" type="curve"/>
      <point x="287.0" y="1386.2" type="line"/>
      <point x="290.0" y="1448.8"/>
      <point x="360.6" y="1490.4"/>
      <point x="449.2" y="1490.4" type="curve" smooth="yes"/>
      <point x="534.2" y="1490.4"/>
      <point x="591.6" y="1447.0"/>
      <point x="591.6" y="1383.8" type="curve" smooth="yes"/>
      <point x="591.6" y="1318.8"/>
      <point x="524.6" y="1274.8"/>
      <point x="428.2" y="1274.8" type="curve" smooth="yes"/>
      <point x="335.6" y="1274.8" type="line"/>
      <point x="335.6" y="1125.8" type="line"/>
      <point x="428.2" y="1125.8" type="line" smooth="yes"/>
      <point x="544.0" y="1125.8"/>
      <point x="615.6" y="1078.2"/>
      <point x="615.6" y="1012.0" type="curve" smooth="yes"/>
      <point x="615.6" y="943.2"/>
      <point x="542.6" y="900.0"/>
      <point x="446.2" y="900.0" type="curve" smooth="yes"/>
      <point x="354.0" y="900.0"/>
      <point x="282.8" y="938.4"/>
      <point x="278.6" y="1000.6" type="curve"/>
      <point x="73.0" y="1000.6" type="line"/>
      <point x="77.2" y="842.2"/>
      <point x="233.0" y="733.0"/>
    </contour>
  </outline>
</glyph>
<glyph name="acute" format="2">
  <advance height="2479.0" width="1018.0"/>
  <unicode hex="00B4"/>
  <anchor x="495.2" y="1303.0" name="_top"/>
  <anchor x="509.0" y="1676.0" name="top"/>
  <outline>
    <contour>
      <point x="394.2" y="1263.6" type="line"/>
      <point x="591.4" y="1263.6" type="line"/>
      <point x="814.2" y="1596.8" type="line"/>
      <point x="557.0" y="1596.8" type="line"/>
    </contour>
  </outline>
</glyph>
<glyph name="micro" format="2">
  <advance height="2479.0" width="1334.4"/>
  <unicode hex="00B5"/>
  <outline>
    <contour>
      <point x="135.0" y="-409.8" type="line"/>
      <point x="390.6" y="-409.8" type="line"/>
      <point x="390.6" y="161.2" type="line"/>
      <point x="399.0" y="161.2" type="line"/>
      <point x="449.8" y="57.2"/>
      <point x="551.4" y="-1.0"/>
      <point x="667.4" y="-1.0" type="curve" smooth="yes"/>
      <point x="783.0" y="-1.0"/>
      <point x="885.6" y="57.2"/>
      <point x="935.8" y="161.2" type="curve"/>
      <point x="944.2" y="161.2" type="line"/>
      <point x="944.2" y="0.0" type="line"/>
      <point x="1199.8" y="0.0" type="line"/>
      <point x="1199.8" y="1117.0" type="line"/>
      <point x="935.8" y="1117.0" type="line"/>
      <point x="935.8" y="469.8" type="line" smooth="yes"/>
      <point x="936.2" y="319.6"/>
      <point x="828.2" y="215.0"/>
      <point x="667.4" y="215.0" type="curve" smooth="yes"/>
      <point x="507.0" y="215.0"/>
      <point x="399.0" y="319.0"/>
      <point x="398.6" y="469.8" type="curve" smooth="yes"/>
      <point x="398.6" y="1117.0" type="line"/>
      <point x="135.0" y="1117.0" type="line"/>
    </contour>
  </outline>
</glyph>
<glyph name="paragraph" format="2">
  <advance height="2479.0" width="1242.0"/>
  <unicode hex="00B6"/>
  <outline>
    <contour>
      <point x="1004.2" y="1277.0" type="line"/>
      <point x="1004.2" y="1489.0" type="line"/>
      <point x="604.4" y="1489.0" type="line" smooth="yes"/>
      <point x="280.2" y="1489.0"/>
      <point x="103.8" y="1289.0"/>
      <point x="103.8" y="1021.0" type="curve" smooth="yes"/>
      <point x="103.8" y="751.0"/>
      <point x="280.2" y="553.0"/>
      <point x="604.4" y="553.0" type="curve" smooth="yes"/>
      <point x="690.2" y="553.0" type="line"/>
      <point x="690.2" y="1277.0" type="line"/>
    </contour>
    <contour>
      <point x="870.6" y="0.0" type="line"/>
      <point x="1095.0" y="0.0" type="line"/>
      <point x="1095.0" y="1489.0" type="line"/>
      <point x="870.6" y="1489.0" type="line"/>
    </contour>
  </outline>
</glyph>
<glyph name="cedilla" format="2">
  <advance height="2479.0" width="693.4"/>
  <unicode hex="00B8"/>
  <anchor x="350.2" y="0.0" name="_cedilla"/>
  <outline>
    <contour>
      <point x="277.2" y="6.0" type="line"/>
      <point x="245.8" y="-140.2" type="line"/>
      <point x="349.4" y="-151.0"/>
      <point x="396.0" y="-176.2"/>
      <point x="394.8" y="-238.0" type="curve" smooth="yes"/>
      <point x="393.2" y="-301.8"/>
      <point x="322.2" y="-329.8"/>
      <point x="211.0" y="-329.8" type="curve"/>
      <point x="214.0" y="-459.6" type="line"/>
      <point x="443.4" y="-459.6"/>
      <point x="572.8" y="-369.0"/>
      <point x="572.0" y="-230.8" type="curve" smooth="yes"/>
      <point x="571.6" y="-125.4"/>
      <point x="499.2" y="-70.0"/>
      <point x="408.2" y="-55.6" type="curve"/>
      <point x="419.2" y="6.0" type="line"/>
    </contour>
  </outline>
</glyph>
<glyph name="onesuperior" format="2">
  <advance height="2479.0" width="651.8"/>
  <unicode hex="00B9"/>
  <outline>
    <contour>
      <point x="302.6" y="745.0" type="line"/>
      <point x="494.4" y="745.0" type="line"/>
      <point x="494.4" y="1638.0" type="line"/>
      <point x="310.6" y="1638.0" type="line"/>
      <point x="76.6" y="1487.8" type="line"/>
      <point x="76.6" y="1309.4" type="line"/>
      <point x="295.8" y="1449.4" type="line"/>
      <point x="302.6" y="1449.4" type="line"/>
    </contour>
  </outline>
</glyph>
<glyph name="ordmasculine" format="2">
  <advance height="2479.0" width="967.8"/>
  <unicode hex="00BA"/>
  <outline>
    <contour>
      <point x="130.6" y="1044.0" type="line"/>
      <point x="130.6" y="838.0"/>
      <point x="267.0" y="690.8"/>
      <point x="487.4" y="690.8" type="curve" smooth="yes"/>
      <point x="704.2" y="690.8"/>
      <point x="837.2" y="838.0"/>
      <point x="837.2" y="1044.0" type="curve"/>
      <point x="837.2" y="1121.8" type="line"/>
      <point x="837.2" y="1329.0"/>
      <point x="703.0" y="1478.0"/>
      <point x="484.4" y="1478.0" type="curve" smooth="yes"/>
      <point x="268.2" y="1478.0"/>
      <point x="130.6" y="1329.0"/>
      <point x="130.6" y="1121.8" type="curve"/>
    </contour>
    <contour>
      <point x="308.8" y="1121.8" type="line"/>
      <point x="308.8" y="1237.8"/>
      <point x="368.0" y="1329.0"/>
      <point x="484.4" y="1329.0" type="curve" smooth="yes"/>
      <point x="602.8" y="1329.0"/>
      <point x="659.0" y="1237.8"/>
      <point x="659.0" y="1121.8" type="curve"/>
      <point x="659.0" y="1044.0" type="line"/>
      <point x="659.0" y="925.0"/>
      <point x="602.8" y="838.0"/>
      <point x="487.4" y="838.0" type="curve" smooth="yes"/>
      <point x="368.0" y="838.0"/>
      <point x="308.8" y="925.0"/>
      <point x="308.8" y="1044.0" type="curve"/>
    </contour>
  </outline>
</glyph>
<glyph name="AE" format="2">
  <advance height="2479.0" width="2082.8"/>
  <unicode hex="00C6"/>
  <anchor x="1335.6" y="1676.0" name="top"/>
  <outline>
    <contour>
      <point x="50.0" y="0.0" type="line"/>
      <point x="346.8" y="0.0" type="line"/>
      <point x="879.2" y="1229.0" type="line"/>
      <point x="984.2" y="1229.0" type="line"/>
      <point x="984.2" y="0.0" type="line"/>
      <point x="1959.2" y="0.0" type="line"/>
      <point x="1959.2" y="226.4" type="line"/>
      <point x="1254.8" y="226.4" type="line"/>
      <point x="1254.8" y="632.4" type="line"/>
      <point x="1903.2" y="632.4" type="line"/>
      <point x="1903.2" y="858.8" type="line"/>
      <point x="1254.8" y="858.8" type="line"/>
      <point x="1254.8" y="1263.0" type="line"/>
      <point x="1953.2" y="1263.0" type="line"/>
      <point x="1953.2" y="1489.0" type="line"/>
      <point x="715.6" y="1489.0" type="line"/>
    </contour>
    <contour>
      <point x="383.0" y="367.2" type="line"/>
      <point x="1133.8" y="367.2" type="line"/>
      <point x="1133.8" y="584.4" type="line"/>
      <point x="383.0" y="584.4" type="line"/>
    </contour>
  </outline>
</glyph>
<glyph name="multiply" format="2">
  <advance height="2479.0" width="1378.0"/>
  <unicode hex="00D7"/>
  <outline>
    <contour>
      <point x="1033.6" y="82.4" type="line"/>
      <point x="1197.2" y="246.6" type="line"/>
      <point x="344.4" y="1099.4" type="line"/>
      <point x="180.2" y="934.6" type="line"/>
    </contour>
    <contour>
      <point x="344.4" y="82.4" type="line"/>
      <point x="1197.2" y="934.6" type="line"/>
      <point x="1033.6" y="1099.4" type="line"/>
      <point x="180.2" y="246.6" type="line"/>
    </contour>
  </outline>
</glyph>
<glyph name="Oslash" format="2">
  <advance height="2479.0" width="1587.0"/>
  <unicode hex="00D8"/>
  <anchor x="794.0" y="0.0" name="bottom"/>
  <anchor x="961.6" y="-1.1999999999999993" name="ogonek"/>
  <anchor x="187.6" y="1489.0" name="tonos"/>
  <anchor x="794.0" y="1676.0" name="top"/>
  <outline>
    <contour>
      <point x="329.2" y="-68.2" type="line"/>
      <point x="1386.0" y="1465.2" type="line"/>
      <point x="1254.2" y="1554.8" type="line"/>
      <point x="198.0" y="21.8" type="line"/>
    </contour>
    <component base="O"/>
  </outline>
</glyph>
<glyph name="Thorn" format="2">
  <advance height="2479.0" width="1346.4"/>
  <unicode hex="00DE"/>
  <outline>
    <contour>
      <point x="141.0" y="1489.0" type="line"/>
      <point x="141.0" y="0.0" type="line"/>
      <point x="410.6" y="0.0" type="line"/>
      <point x="410.6" y="1489.0" type="line"/>
    </contour>
    <contour>
      <point x="265.8" y="1204.2" type="line"/>
      <point x="265.8" y="988.6" type="line"/>
      <point x="652.2" y="988.6" type="line" smooth="yes"/>
      <point x="840.4" y="988.6"/>
      <point x="929.0" y="889.0"/>
      <point x="929.0" y="755.4" type="curve" smooth="yes"/>
      <point x="929.0" y="622.8"/>
      <point x="840.4" y="528.0"/>
      <point x="652.2" y="528.0" type="curve" smooth="yes"/>
      <point x="265.8" y="528.0" type="line"/>
      <point x="265.8" y="313.2" type="line"/>
      <point x="652.2" y="313.2" type="line" smooth="yes"/>
      <point x="997.2" y="313.2"/>
      <point x="1187.0" y="505.2"/>
      <point x="1187.0" y="757.8" type="curve" smooth="yes"/>
      <point x="1187.0" y="1011.0"/>
      <point x="997.2" y="1204.2"/>
      <point x="652.2" y="1204.2" type="curve" smooth="yes"/>
    </contour>
  </outline>
</glyph>
<glyph name="germandbls" format="2">
  <advance height="2479.0" width="1315.2"/>
  <unicode hex="00DF"/>
  <outline>
    <contour>
      <point x="146.4" y="0.0" type="line"/>
      <point x="410.0" y="0.0" type="line"/>
      <point x="410.0" y="1069.6" type="line" smooth="yes"/>
      <point x="410.0" y="1198.2"/>
      <point x="504.2" y="1283.6"/>
      <point x="639.6" y="1283.6" type="curve" smooth="yes"/>
      <point x="778.4" y="1283.6"/>
      <point x="863.0" y="1193.0"/>
      <point x="862.6" y="1074.4" type="curve" smooth="yes"/>
      <point x="861.8" y="961.4"/>
      <point x="785.8" y="862.4"/>
      <point x="666.8" y="862.4" type="curve" smooth="yes"/>
      <point x="584.2" y="862.4" type="line"/>
      <point x="584.2" y="647.0" type="line"/>
      <point x="704.4" y="647.0" type="line" smooth="yes"/>
      <point x="862.2" y="647.0"/>
      <point x="960.4" y="559.2"/>
      <point x="961.2" y="430.0" type="curve" smooth="yes"/>
      <point x="961.6" y="306.0"/>
      <point x="871.4" y="221.6"/>
      <point x="731.4" y="221.6" type="curve" smooth="yes"/>
      <point x="578.2" y="221.6" type="line"/>
      <point x="578.2" y="0.0" type="line"/>
      <point x="763.2" y="0.0" type="line" smooth="yes"/>
      <point x="1039.2" y="0.0"/>
      <point x="1226.4" y="157.8"/>
      <point x="1227.2" y="410.0" type="curve" smooth="yes"/>
      <point x="1228.0" y="618.2"/>
      <point x="1100.8" y="764.6"/>
      <point x="909.0" y="779.6" type="curve"/>
      <point x="909.0" y="795.2" type="line"/>
      <point x="1044.0" y="836.6"/>
      <point x="1130.4" y="954.0"/>
      <point x="1130.4" y="1113.2" type="curve" smooth="yes"/>
      <point x="1130.4" y="1369.2"/>
      <point x="907.2" y="1510.0"/>
      <point x="631.8" y="1510.0" type="curve" smooth="yes"/>
      <point x="340.8" y="1510.0"/>
      <point x="146.4" y="1354.6"/>
      <point x="146.4" y="1100.0" type="curve" smooth="yes"/>
    </contour>
  </outline>
</glyph>
<glyph name="ae" format="2">
  <advance height="2479.0" width="1878.8"/>
  <unicode hex="00E6"/>
  <anchor x="921.2" y="1303.0" name="top"/>
  <outline>
    <contour>
      <point x="1308.2" y="-21.8" type="curve"/>
      <point x="1552.2" y="-21.8"/>
      <point x="1734.2" y="105.2"/>
      <point x="1781.2" y="299.8" type="curve"/>
      <point x="1534.8" y="327.4" type="line"/>
      <point x="1499.2" y="232.2"/>
      <point x="1412.2" y="183.4"/>
      <point x="1299.0" y="183.4" type="curve" smooth="yes"/>
      <point x="1126.8" y="183.4"/>
      <point x="1013.4" y="298.6"/>
      <point x="1013.4" y="493.6" type="curve" smooth="yes"/>
      <point x="1013.4" y="648.6" type="line" smooth="yes"/>
      <point x="1014.6" y="796.8"/>
      <point x="1121.4" y="925.8"/>
      <point x="1284.6" y="925.8" type="curve"/>
      <point x="1435.8" y="925.8"/>
      <point x="1538.2" y="816.0"/>
      <point x="1539.0" y="664.2" type="curve"/>
      <point x="890.8" y="664.2" type="line"/>
      <point x="890.8" y="486.0" type="line"/>
      <point x="1791.4" y="486.0" type="line"/>
      <point x="1791.4" y="567.4" type="line" smooth="yes"/>
      <point x="1791.4" y="959.0"/>
      <point x="1556.0" y="1132.0"/>
      <point x="1281.0" y="1132.0" type="curve" smooth="yes"/>
      <point x="1093.8" y="1132.0"/>
      <point x="956.8" y="1048.4"/>
      <point x="871.0" y="884.2" type="curve"/>
      <point x="867.0" y="261.0" type="line"/>
      <point x="917.8" y="85.4"/>
      <point x="1087.0" y="-21.8"/>
    </contour>
    <contour>
      <point x="524.8" y="171.2" type="curve" smooth="yes"/>
      <point x="415.4" y="171.2"/>
      <point x="336.8" y="221.0"/>
      <point x="336.8" y="317.6" type="curve" smooth="yes"/>
      <point x="336.8" y="419.0"/>
      <point x="424.8" y="461.2"/>
      <point x="541.8" y="477.4" type="curve" smooth="yes"/>
      <point x="611.2" y="486.8"/>
      <point x="749.8" y="504.6"/>
      <point x="784.0" y="532.2" type="curve"/>
      <point x="784.0" y="400.8" type="line" smooth="yes"/>
      <point x="784.0" y="276.6"/>
      <point x="683.6" y="171.2"/>
    </contour>
    <contour>
      <point x="468.4" y="-22.4" type="curve" smooth="yes"/>
      <point x="660.2" y="-22.4"/>
      <point x="833.6" y="65.0"/>
      <point x="888.0" y="190.0" type="curve"/>
      <point x="906.2" y="190.0" type="line"/>
      <point x="952.6" y="925.4" type="line"/>
      <point x="893.4" y="1092.2"/>
      <point x="727.2" y="1132.0"/>
      <point x="596.6" y="1132.0" type="curve" smooth="yes"/>
      <point x="356.8" y="1132.0"/>
      <point x="177.6" y="1026.6"/>
      <point x="119.4" y="823.2" type="curve"/>
      <point x="365.2" y="788.4" type="line"/>
      <point x="390.6" y="865.0"/>
      <point x="466.4" y="930.0"/>
      <point x="594.2" y="930.0" type="curve" smooth="yes"/>
      <point x="716.8" y="930.0"/>
      <point x="783.2" y="867.2"/>
      <point x="783.2" y="757.8" type="curve" smooth="yes"/>
      <point x="783.2" y="753.6" type="line" smooth="yes"/>
      <point x="783.2" y="678.8"/>
      <point x="704.8" y="674.4"/>
      <point x="506.8" y="652.8" type="curve" smooth="yes"/>
      <point x="291.2" y="630.4"/>
      <point x="82.6" y="565.0"/>
      <point x="82.6" y="313.4" type="curve" smooth="yes"/>
      <point x="82.6" y="94.2"/>
      <point x="243.4" y="-22.4"/>
    </contour>
  </outline>
</glyph>
<glyph name="eth" format="2">
  <advance height="2479.0" width="1214.2"/>
  <unicode hex="00F0"/>
  <outline>
    <contour>
      <point x="956.8" y="1407.4" type="line"/>
      <point x="926.8" y="1536.8" type="line"/>
      <point x="273.6" y="1209.2" type="line"/>
      <point x="303.0" y="1080.2" type="line"/>
    </contour>
    <contour>
      <point x="603.8" y="-23.0" type="curve" smooth="yes"/>
      <point x="923.8" y="-23.0"/>
      <point x="1126.8" y="201.6"/>
      <point x="1126.8" y="564.6" type="curve" smooth="yes"/>
      <point x="1126.8" y="1087.6"/>
      <point x="729.8" y="1446.8"/>
      <point x="325.8" y="1575.4" type="curve"/>
      <point x="280.8" y="1424.0" type="line"/>
      <point x="569.2" y="1294.2"/>
      <point x="769.4" y="1085.0"/>
      <point x="853.8" y="887.2" type="curve"/>
      <point x="839.0" y="887.2" type="line"/>
      <point x="783.8" y="962.6"/>
      <point x="685.0" y="1038.2"/>
      <point x="538.4" y="1038.2" type="curve" smooth="yes"/>
      <point x="276.2" y="1038.2"/>
      <point x="87.4" y="815.0"/>
      <point x="87.4" y="512.0" type="curve" smooth="yes"/>
      <point x="87.4" y="196.2"/>
      <point x="291.2" y="-23.0"/>
    </contour>
    <contour>
      <point x="609.0" y="186.2" type="curve" smooth="yes"/>
      <point x="427.4" y="186.2"/>
      <point x="341.2" y="336.8"/>
      <point x="341.2" y="524.4" type="curve" smooth="yes"/>
      <point x="341.2" y="713.8"/>
      <point x="430.2" y="861.8"/>
      <point x="609.0" y="861.8" type="curve" smooth="yes"/>
      <point x="797.4" y="861.8"/>
      <point x="880.0" y="695.0"/>
      <point x="880.0" y="517.2" type="curve" smooth="yes"/>
      <point x="880.0" y="324.0"/>
      <point x="783.2" y="186.2"/>
    </contour>
  </outline>
</glyph>
<glyph name="divide" format="2">
  <advance height="2479.0" width="1378.0"/>
  <unicode hex="00F7"/>
  <outline>
    <contour>
      <point x="1183.2" y="700.2" type="line"/>
      <point x="194.2" y="700.2" type="line"/>
      <point x="194.2" y="481.6" type="line"/>
      <point x="1183.2" y="481.6" type="line"/>
    </contour>
    <contour>
      <point x="689.0" y="36.4" type="curve" smooth="yes"/>
      <point x="775.8" y="36.4"/>
      <point x="847.0" y="107.6"/>
      <point x="847.0" y="197.4" type="curve" smooth="yes"/>
      <point x="847.0" y="283.6"/>
      <point x="775.8" y="355.8"/>
      <point x="689.0" y="355.8" type="curve" smooth="yes"/>
      <point x="599.2" y="355.8"/>
      <point x="527.6" y="283.6"/>
      <point x="527.6" y="197.4" type="curve" smooth="yes"/>
      <point x="527.6" y="107.6"/>
      <point x="599.2" y="36.4"/>
    </contour>
    <contour>
      <point x="689.0" y="826.6" type="curve" smooth="yes"/>
      <point x="776.2" y="826.6"/>
      <point x="847.0" y="898.6"/>
      <point x="847.0" y="988.0" type="curve" smooth="yes"/>
      <point x="847.0" y="1075.2"/>
      <point x="776.2" y="1146.0"/>
      <point x="689.0" y="1146.0" type="curve" smooth="yes"/>
      <point x="599.6" y="1146.0"/>
      <point x="527.6" y="1075.2"/>
      <point x="527.6" y="988.0" type="curve" smooth="yes"/>
      <point x="527.6" y="898.6"/>
      <point x="599.6" y="826.6"/>
    </contour>
  </outline>
</glyph>
<glyph name="oslash" format="2">
  <advance height="2479.0" width="1245.2"/>
  <unicode hex="00F8"/>
  <anchor x="622.6" y="-1.2000000000000002" name="bottom"/>
  <anchor x="765.8" y="-1.2000000000000002" name="ogonek"/>
  <anchor x="622.6" y="1301.8" name="top"/>
  <outline>
    <contour>
      <point x="290.0" y="-68.2" type="line"/>
      <point x="1086.4" y="1086.8" type="line"/>
      <point x="953.4" y="1176.2" type="line"/>
      <point x="158.8" y="21.8" type="line"/>
    </contour>
    <component base="o" yOffset="-1.2000000000000002"/>
  </outline>
</glyph>
<glyph name="thorn" format="2">
  <advance height="2479.0" width="1252.8"/>
  <unicode hex="00FE"/>
  <outline>
    <contour>
      <point x="135.0" y="1489.0" type="line"/>
      <point x="135.0" y="-419.0" type="line"/>
      <point x="398.6" y="-419.0" type="line"/>
      <point x="398.6" y="216.2" type="line"/>
      <point x="311.8" y="553.6" type="line"/>
      <point x="398.6" y="892.8" type="line"/>
      <point x="398.6" y="1489.0" type="line"/>
    </contour>
    <contour>
      <point x="292.6" y="972.4" type="line"/>
      <point x="292.6" y="139.2" type="line"/>
      <point x="411.8" y="139.2" type="line"/>
      <point x="451.0" y="65.4"/>
      <point x="536.8" y="-19.8"/>
      <point x="702.6" y="-19.8" type="curve" smooth="yes"/>
      <point x="963.6" y="-19.8"/>
      <point x="1163.0" y="188.2"/>
      <point x="1163.0" y="557.2" type="curve" smooth="yes"/>
      <point x="1163.0" y="930.0"/>
      <point x="957.6" y="1132.0"/>
      <point x="702.0" y="1132.0" type="curve" smooth="yes"/>
      <point x="530.8" y="1132.0"/>
      <point x="449.8" y="1043.2"/>
      <point x="411.8" y="972.4" type="curve"/>
    </contour>
    <contour>
      <point x="910.0" y="559.0" type="curve" smooth="yes"/>
      <point x="910.4" y="344.4"/>
      <point x="818.2" y="196.2"/>
      <point x="637.6" y="196.2" type="curve" smooth="yes"/>
      <point x="454.6" y="196.2"/>
      <point x="377.6" y="353.0"/>
      <point x="377.2" y="559.0" type="curve" smooth="yes"/>
      <point x="377.6" y="764.6"/>
      <point x="455.2" y="915.4"/>
      <point x="637.6" y="915.4" type="curve" smooth="yes"/>
      <point x="820.0" y="915.4"/>
      <point x="910.4" y="770.8"/>
    </contour>
  </outline>
</glyph>
<glyph name="dcroat" format="2">
  <advance height="2479.0" width="1291.6"/>
  <unicode hex="0111"/>
  <anchor x="633.0" y="0.0" name="bottom"/>
  <anchor x="1012.6" y="1280.0" name="cross"/>
  <anchor x="1276.2" y="1489.0" name="raccent"/>
  <anchor x="578.2" y="1489.0" name="top"/>
  <outline>
    <contour>
      <point x="585.4" y="1200.8" type="line"/>
      <point x="1282.6" y="1200.8" type="line"/>
      <point x="1282.6" y="1366.6" type="line"/>
      <point x="585.4" y="1366.6" type="line"/>
    </contour>
    <component base="d"/>
  </outline>
</glyph>
<glyph name="Hbar" format="2">
  <advance height="2479.0" width="1636.2"/>
  <unicode hex="0126"/>
  <anchor x="817.2" y="0.0" name="bottom"/>
  <anchor x="348.0" y="-1.7999999999999998" name="cedilla"/>
  <anchor x="1550.4" y="103.6" name="cyrtic"/>
  <anchor x="1433.4" y="0.0" name="right"/>
  <anchor x="167.8" y="1489.0" name="tonos"/>
  <anchor x="822.6" y="1677.8" name="top"/>
  <outline>
    <contour>
      <point x="1554.8" y="1212.2" type="line"/>
      <point x="81.4" y="1212.2" type="line"/>
      <point x="81.4" y="1044.8" type="line"/>
      <point x="1554.8" y="1044.8" type="line"/>
    </contour>
    <component base="H" xOffset="56.400000000000006"/>
  </outline>
</glyph>
<glyph name="idotless" format="2">
  <advance height="2479.0" width="533.6"/>
  <unicode hex="0131"/>
  <anchor x="268.4" y="0.0" name="bottom"/>
  <anchor x="266.4" y="600.2" name="cross"/>
  <anchor x="398.6" y="0.0" name="ogonek"/>
  <anchor x="267.6" y="1303.0" name="top"/>
  <outline>
    <contour>
      <point x="135.0" y="0.0" type="line"/>
      <point x="398.6" y="0.0" type="line"/>
      <point x="398.6" y="1117.0" type="line"/>
      <point x="135.0" y="1117.0" type="line"/>
    </contour>
  </outline>
</glyph>
<glyph name="Lslash" format="2">
  <advance height="2479.0" width="1183.6"/>
  <unicode hex="0141"/>
  <anchor x="651.8" y="0.0" name="bottom"/>
  <anchor x="323.4" y="776.0" name="cross"/>
  <anchor x="647.0" y="825.6" name="dot"/>
  <anchor x="692.0" y="1489.0" name="raccent"/>
  <anchor x="322.2" y="1676.0" name="top"/>
  <outline>
    <contour>
      <point x="680.8" y="951.8" type="line"/>
      <point x="34.4" y="764.6" type="line"/>
      <point x="34.4" y="606.8" type="line"/>
      <point x="680.8" y="793.2" type="line"/>
    </contour>
    <component base="L" xOffset="42.0"/>
  </outline>
</glyph>
<glyph name="lslash" format="2">
  <advance height="2479.0" width="533.6"/>
  <unicode hex="0142"/>
  <anchor x="267.0" y="0.0" name="bottom"/>
  <anchor x="267.0" y="768.0" name="cross"/>
  <anchor x="530.6" y="1489.0" name="raccent"/>
  <anchor x="265.8" y="1676.0" name="top"/>
  <outline>
    <contour>
      <point x="544.6" y="956.6" type="line"/>
      <point x="-11.0" y="769.4" type="line"/>
      <point x="-11.0" y="612.2" type="line"/>
      <point x="544.6" y="799.4" type="line"/>
    </contour>
    <component base="l"/>
  </outline>
</glyph>
<glyph name="Eng" format="2">
  <advance height="2479.0" width="1517.6"/>
  <unicode hex="014A"/>
  <anchor x="759.4" y="0.0" name="bottom"/>
  <anchor x="1397.4" y="0.0" name="right"/>
  <anchor x="759.4" y="1676.0" name="top"/>
  <outline>
    <contour>
      <point x="1131.0" y="0.0" type="line"/>
      <point x="1131.0" y="-81.19999999999999" type="line" smooth="yes"/>
      <point x="1131.0" y="-184.2"/>
      <point x="1060.8" y="-224.8"/>
      <point x="961.8" y="-224.8" type="curve" smooth="yes"/>
      <point x="929.8" y="-224.8"/>
      <point x="895.6" y="-220.6"/>
      <point x="871.6" y="-215.2" type="curve"/>
      <point x="871.6" y="-420.4" type="line"/>
      <point x="902.8" y="-431.0"/>
      <point x="944.4" y="-434.2"/>
      <point x="979.8" y="-434.2" type="curve" smooth="yes"/>
      <point x="1210.0" y="-434.2"/>
      <point x="1370.6" y="-332.2"/>
      <point x="1370.6" y="-79.4" type="curve" smooth="yes"/>
      <point x="1370.6" y="0.0" type="line"/>
    </contour>
    <component base="N"/>
  </outline>
</glyph>
<glyph name="eng" format="2">
  <advance height="2479.0" width="1250.8"/>
  <unicode hex="014B"/>
  <anchor x="624.6" y="0.0" name="bottom"/>
  <anchor x="624.6" y="1303.0" name="top"/>
  <outline>
    <contour>
      <point x="852.4" y="9.200000000000001" type="line"/>
      <point x="852.4" y="-71.4" type="line" smooth="yes"/>
      <point x="852.4" y="-166.8"/>
      <point x="795.6" y="-201.0"/>
      <point x="709.4" y="-201.0" type="curve" smooth="yes"/>
      <point x="679.0" y="-201.0"/>
      <point x="652.4" y="-196.8"/>
      <point x="629.6" y="-191.39999999999998" type="curve"/>
      <point x="615.6" y="-407.6" type="line"/>
      <point x="658.4" y="-417.8"/>
      <point x="705.6" y="-419.0"/>
      <point x="753.0" y="-419.0" type="curve" smooth="yes"/>
      <point x="965.8" y="-419.0"/>
      <point x="1115.8" y="-299.8"/>
      <point x="1115.8" y="-71.4" type="curve" smooth="yes"/>
      <point x="1115.8" y="9.200000000000001" type="line"/>
    </contour>
    <component base="n"/>
  </outline>
</glyph>
<glyph name="OE" format="2">
  <advance height="2479.0" width="2040.4"/>
  <unicode hex="0152"/>
  <anchor x="1419.0" y="0.0" name="bottom"/>
  <anchor x="1422.0" y="0.0" name="cedilla"/>
  <anchor x="1917.2" y="0.0" name="ogonek"/>
  <anchor x="898.2" y="1489.0" name="tonos"/>
  <anchor x="1427.4" y="1676.0" name="top"/>
  <outline>
    <contour>
      <point x="780.0" y="0.0" type="curve" smooth="yes"/>
      <point x="1046.4" y="0.0" type="line"/>
      <point x="1046.4" y="226.4" type="line"/>
      <point x="780.0" y="226.4" type="line" smooth="yes"/>
      <point x="542.8" y="226.4"/>
      <point x="378.2" y="402.8"/>
      <point x="378.2" y="743.8" type="curve" smooth="yes"/>
      <point x="378.2" y="1085.4"/>
      <point x="542.8" y="1263.0"/>
      <point x="780.0" y="1263.0" type="curve" smooth="yes"/>
      <point x="1046.4" y="1263.0" type="line"/>
      <point x="1046.4" y="1489.0" type="line"/>
      <point x="780.0" y="1489.0" type="line" smooth="yes"/>
      <point x="390.2" y="1489.0"/>
      <point x="108.8" y="1216.2"/>
      <point x="109.2" y="743.8" type="curve" smooth="yes"/>
      <point x="108.8" y="274.4"/>
      <point x="390.2" y="0.0"/>
    </contour>
    <component base="E" xOffset="795.8"/>
  </outline>
</glyph>
<glyph name="tbar" format="2">
  <advance height="2479.0" width="778.6"/>
  <unicode hex="0167"/>
  <anchor x="435.2" y="0.0" name="bottom"/>
  <anchor x="528.0" y="0.0" name="cedilla"/>
  <anchor x="598.8" y="1562.0" name="raccent"/>
  <anchor x="342.0" y="1510.2" name="top"/>
  <outline>
    <contour>
      <point x="51.2" y="577.4" type="line"/>
      <point x="693.0" y="577.4" type="line"/>
      <point x="693.0" y="720.6" type="line"/>
      <point x="51.2" y="720.6" type="line"/>
    </contour>
    <component base="t"/>
  </outline>
</glyph>
<glyph name="Bhook" format="2">
  <advance height="2479.0" width="1730.6"/>
  <unicode hex="0181"/>
  <anchor x="1037.4" y="0.0" name="bottom"/>
  <anchor x="1033.2" y="1676.0" name="top"/>
  <outline>
    <contour>
      <point x="657.4" y="1264.2" type="line"/>
      <point x="657.4" y="1489.0" type="line"/>
      <point x="464.4" y="1489.0" type="line" smooth="yes"/>
      <point x="224.4" y="1489.0"/>
      <point x="81.0" y="1345.2"/>
      <point x="81.4" y="1134.6" type="curve" smooth="yes"/>
      <point x="81.4" y="1004.4" type="line"/>
      <point x="324.8" y="1004.4" type="line"/>
      <point x="324.8" y="1080.2" type="line" smooth="yes"/>
      <point x="324.4" y="1171.2"/>
      <point x="346.8" y="1264.2"/>
      <point x="466.2" y="1264.2" type="curve" smooth="yes"/>
    </contour>
    <component base="B" xOffset="384.6"/>
  </outline>
</glyph>
<glyph name="Btopbar" format="2">
  <advance height="2479.0" width="1339.8"/>
  <unicode hex="0182"/>
  <outline>
    <contour>
      <point x="146.4" y="0.0" type="line"/>
      <point x="704.2" y="0.0" type="line" smooth="yes"/>
      <point x="1046.2" y="0.0"/>
      <point x="1250.6" y="189.6"/>
      <point x="1250.6" y="463.4" type="curve" smooth="yes"/>
      <point x="1250.6" y="737.6"/>
      <point x="1046.2" y="914.0"/>
      <point x="704.2" y="914.0" type="curve" smooth="yes"/>
      <point x="416.6" y="914.0" type="line"/>
      <point x="416.6" y="1263.0" type="line"/>
      <point x="1104.6" y="1263.0" type="line"/>
      <point x="1104.6" y="1489.0" type="line"/>
      <point x="146.4" y="1489.0" type="line"/>
    </contour>
    <contour>
      <point x="416.6" y="221.0" type="line"/>
      <point x="416.6" y="694.8" type="line"/>
      <point x="704.2" y="694.8" type="line" smooth="yes"/>
      <point x="884.6" y="694.8"/>
      <point x="984.0" y="593.0"/>
      <point x="984.0" y="466.4" type="curve" smooth="yes"/>
      <point x="984.0" y="336.6"/>
      <point x="884.6" y="221.0"/>
      <point x="704.2" y="221.0" type="curve" smooth="yes"/>
    </contour>
  </outline>
</glyph>
<glyph name="Tonesix" format="2">
  <advance height="2479.0" width="1558.6"/>
  <unicode hex="0184"/>
  <outline>
    <contour>
      <point x="615.2" y="1489.0" type="line"/>
      <point x="23.6" y="1489.0" type="line"/>
      <point x="23.6" y="1263.0" type="line"/>
      <point x="615.2" y="1263.0" type="line"/>
    </contour>
    <contour>
      <point x="559.0" y="914.0" type="line"/>
      <point x="559.0" y="694.8" type="line"/>
      <point x="937.2" y="694.8" type="line"/>
      <point x="1118.0" y="694.8"/>
      <point x="1217.0" y="593.0"/>
      <point x="1217.0" y="466.4" type="curve"/>
      <point x="1217.0" y="336.6"/>
      <point x="1118.0" y="221.0"/>
      <point x="937.2" y="221.0" type="curve"/>
      <point x="650.0" y="221.0" type="line"/>
      <point x="650.0" y="1489.0" type="line"/>
      <point x="379.8" y="1489.0" type="line"/>
      <point x="379.8" y="0.0" type="line"/>
      <point x="937.2" y="0.0" type="line"/>
      <point x="1279.6" y="0.0"/>
      <point x="1484.6" y="189.6"/>
      <point x="1484.6" y="463.4" type="curve"/>
      <point x="1484.6" y="737.6"/>
      <point x="1279.6" y="914.0"/>
      <point x="937.2" y="914.0" type="curve"/>
    </contour>
  </outline>
</glyph>
<glyph name="tonesix" format="2">
  <advance height="2479.0" width="1335.0"/>
  <unicode hex="0185"/>
  <outline>
    <contour>
      <point x="881.6" y="-23.0" type="curve" smooth="yes"/>
      <point x="1104.2" y="-23.0"/>
      <point x="1246.2" y="143.6"/>
      <point x="1245.8" y="416.4" type="curve" smooth="yes"/>
      <point x="1245.8" y="692.6"/>
      <point x="1101.0" y="849.8"/>
      <point x="892.0" y="849.2" type="curve" smooth="yes"/>
      <point x="758.6" y="849.8"/>
      <point x="673.8" y="789.8"/>
      <point x="626.4" y="711.4" type="curve"/>
      <point x="619.6" y="711.4" type="line"/>
      <point x="620.4" y="1117.0" type="line"/>
      <point x="360.6" y="1117.0" type="line"/>
      <point x="360.6" y="959.6" type="line"/>
      <point x="355.8" y="959.6" type="line"/>
      <point x="355.8" y="0.4" type="line"/>
      <point x="616.2" y="0.4" type="line"/>
      <point x="616.2" y="102.0" type="line"/>
      <point x="626.4" y="102.0" type="line"/>
      <point x="669.2" y="22.4"/>
      <point x="762.6" y="-23.0"/>
    </contour>
    <contour>
      <point x="799.8" y="187.0" type="curve" smooth="yes"/>
      <point x="685.8" y="187.0"/>
      <point x="618.6" y="277.2"/>
      <point x="618.6" y="416.2" type="curve" smooth="yes"/>
      <point x="618.6" y="555.2"/>
      <point x="685.8" y="638.2"/>
      <point x="801.0" y="638.2" type="curve" smooth="yes"/>
      <point x="916.4" y="638.2"/>
      <point x="982.4" y="552.8"/>
      <point x="982.8" y="416.6" type="curve" smooth="yes"/>
      <point x="983.2" y="280.8"/>
      <point x="916.8" y="187.0"/>
    </contour>
    <contour>
      <point x="226.2" y="670.6" type="line"/>
      <point x="518.0" y="959.6" type="line"/>
      <point x="360.6" y="1117.0" type="line"/>
      <point x="68.4" y="827.6" type="line"/>
    </contour>
  </outline>
</glyph>
<glyph name="Chook" format="2">
  <advance height="2479.0" width="1670.8"/>
  <unicode hex="0187"/>
  <anchor x="788.0" y="-4.8" name="cedilla"/>
  <anchor x="791.6" y="1676.0" name="top"/>
  <outline>
    <contour>
      <point x="1422.2" y="986.8" type="line"/>
      <point x="1422.2" y="1132.0" type="line" smooth="yes"/>
      <point x="1422.2" y="1265.0"/>
      <point x="1517.4" y="1306.6"/>
      <point x="1610.4" y="1306.6" type="curve" smooth="yes"/>
      <point x="1633.2" y="1306.6"/>
      <point x="1667.8" y="1304.2"/>
      <point x="1687.8" y="1302.4" type="curve"/>
      <point x="1687.8" y="1517.4" type="line"/>
      <point x="1644.2" y="1526.4"/>
      <point x="1601.8" y="1526.4"/>
      <point x="1556.4" y="1526.4" type="curve" smooth="yes"/>
      <point x="1343.4" y="1526.4"/>
      <point x="1163.0" y="1396.4"/>
      <point x="1163.0" y="1158.8" type="curve" smooth="yes"/>
      <point x="1163.0" y="986.8" type="line"/>
    </contour>
    <component base="C"/>
  </outline>
</glyph>
<glyph name="chook" format="2">
  <advance height="2479.0" width="1295.0"/>
  <unicode hex="0188"/>
  <anchor x="620.2" y="0.0" name="cedilla"/>
  <anchor x="620.2" y="1303.0" name="top"/>
  <outline>
    <contour>
      <point x="1103.6" y="730.6" type="line"/>
      <point x="1103.6" y="890.8" type="line" smooth="yes"/>
      <point x="1103.6" y="997.6"/>
      <point x="1156.4" y="1035.0"/>
      <point x="1245.8" y="1035.0" type="curve" smooth="yes"/>
      <point x="1270.6" y="1035.0"/>
      <point x="1293.6" y="1030.8"/>
      <point x="1314.8" y="1027.8" type="curve"/>
      <point x="1314.8" y="1211.8" type="line"/>
      <point x="1277.2" y="1223.2"/>
      <point x="1236.0" y="1226.8"/>
      <point x="1195.8" y="1226.8" type="curve" smooth="yes"/>
      <point x="1003.8" y="1226.8"/>
      <point x="855.4" y="1106.0"/>
      <point x="855.4" y="892.0" type="curve" smooth="yes"/>
      <point x="855.4" y="730.6" type="line"/>
    </contour>
    <component base="c"/>
  </outline>
</glyph>
<glyph name="Dhook" format="2">
  <advance height="2479.0" width="1876.2"/>
  <unicode hex="018A"/>
  <anchor x="1036.4" y="0.0" name="bottom"/>
  <anchor x="674.0" y="776.0" name="cross"/>
  <anchor x="1000.0" y="1676.0" name="top"/>
  <outline>
    <contour>
      <point x="81.4" y="1004.4" type="line"/>
      <point x="324.8" y="1004.4" type="line"/>
      <point x="324.8" y="1080.2" type="line" smooth="yes"/>
      <point x="324.4" y="1171.2"/>
      <point x="346.8" y="1255.8"/>
      <point x="466.2" y="1255.8" type="curve" smooth="yes"/>
      <point x="657.4" y="1255.8" type="line"/>
      <point x="657.4" y="1489.0" type="line"/>
      <point x="464.4" y="1489.0" type="line" smooth="yes"/>
      <point x="224.4" y="1489.0"/>
      <point x="81.0" y="1345.2"/>
      <point x="81.4" y="1134.6" type="curve" smooth="yes"/>
    </contour>
    <component base="D" xOffset="392.6"/>
  </outline>
</glyph>
<glyph name="Dtopbar" format="2">
  <advance height="2479.0" width="1338.6"/>
  <unicode hex="018B"/>
  <outline>
    <contour>
      <point x="635.0" y="0.0" type="curve" smooth="yes"/>
      <point x="1192.2" y="0.0" type="line"/>
      <point x="1192.2" y="1489.0" type="line"/>
      <point x="234.2" y="1489.0" type="line"/>
      <point x="234.2" y="1263.0" type="line"/>
      <point x="922.2" y="1263.0" type="line"/>
      <point x="922.2" y="914.0" type="line"/>
      <point x="635.0" y="914.0" type="line" smooth="yes"/>
      <point x="293.0" y="914.0"/>
      <point x="88.0" y="737.6"/>
      <point x="88.0" y="463.4" type="curve" smooth="yes"/>
      <point x="88.0" y="189.6"/>
      <point x="293.0" y="0.0"/>
    </contour>
    <contour>
      <point x="635.0" y="221.0" type="line" smooth="yes"/>
      <point x="454.6" y="221.0"/>
      <point x="355.2" y="336.6"/>
      <point x="355.2" y="466.4" type="curve" smooth="yes"/>
      <point x="355.2" y="593.0"/>
      <point x="454.6" y="694.8"/>
      <point x="635.0" y="694.8" type="curve" smooth="yes"/>
      <point x="922.2" y="694.8" type="line"/>
      <point x="922.2" y="221.0" type="line"/>
    </contour>
  </outline>
</glyph>
<glyph name="deltaturned" format="2">
  <advance height="2479.0" width="1204.8"/>
  <unicode hex="018D"/>
  <outline>
    <contour>
      <point x="589.6" y="-449.8" type="curve" smooth="yes"/>
      <point x="831.2" y="-449.8"/>
      <point x="993.4" y="-331.4"/>
      <point x="993.0" y="-154.8" type="curve" smooth="yes"/>
      <point x="992.6" y="-38.6"/>
      <point x="920.6" y="60.8"/>
      <point x="796.0" y="121.4" type="curve"/>
      <point x="796.0" y="127.0" type="line"/>
      <point x="990.4" y="175.4"/>
      <point x="1117.4" y="361.4"/>
      <point x="1117.4" y="606.8" type="curve" smooth="yes"/>
      <point x="1117.4" y="922.2"/>
      <point x="906.2" y="1130.8"/>
      <point x="603.4" y="1130.8" type="curve" smooth="yes"/>
      <point x="289.4" y="1130.8"/>
      <point x="87.4" y="907.8"/>
      <point x="87.4" y="600.2" type="curve" smooth="yes"/>
      <point x="87.4" y="304.6"/>
      <point x="273.2" y="106.8"/>
      <point x="528.8" y="18.4" type="curve" smooth="yes"/>
      <point x="660.2" y="-27.8"/>
      <point x="730.0" y="-89.4"/>
      <point x="730.0" y="-148.6" type="curve" smooth="yes"/>
      <point x="730.0" y="-207.4"/>
      <point x="663.8" y="-247.0"/>
      <point x="567.0" y="-247.0" type="curve" smooth="yes"/>
      <point x="496.2" y="-247.0"/>
      <point x="399.0" y="-225.8"/>
      <point x="312.8" y="-191.0" type="curve"/>
      <point x="312.8" y="-402.2" type="line"/>
      <point x="400.6" y="-432.4"/>
      <point x="498.6" y="-449.8"/>
    </contour>
    <contour>
      <point x="600.8" y="226.0" type="curve"/>
      <point x="440.0" y="258.2"/>
      <point x="354.0" y="402.2"/>
      <point x="354.0" y="605.0" type="curve" smooth="yes"/>
      <point x="354.0" y="759.2"/>
      <point x="430.0" y="920.8"/>
      <point x="601.2" y="920.8" type="curve" smooth="yes"/>
      <point x="771.8" y="920.8"/>
      <point x="850.8" y="762.4"/>
      <point x="850.8" y="578.0" type="curve" smooth="yes"/>
      <point x="850.8" y="368.2"/>
      <point x="766.2" y="226.0"/>
    </contour>
  </outline>
</glyph>
<glyph name="Schwa" format="2">
  <advance height="2479.0" width="1545.8"/>
  <unicode hex="018F"/>
  <outline>
    <contour>
      <point x="746.8" y="-20.0" type="curve" smooth="yes"/>
      <point x="1158.4" y="-20.0"/>
      <point x="1436.6" y="272.2"/>
      <point x="1436.6" y="743.8" type="curve" smooth="yes"/>
      <point x="1436.6" y="1222.8"/>
      <point x="1144.6" y="1510.0"/>
      <point x="755.2" y="1510.0" type="curve" smooth="yes"/>
      <point x="425.4" y="1510.0"/>
      <point x="172.4" y="1306.0"/>
      <point x="127.0" y="1013.6" type="curve"/>
      <point x="401.8" y="1013.6" type="line"/>
      <point x="449.6" y="1172.0"/>
      <point x="571.6" y="1267.8"/>
      <point x="751.6" y="1267.8" type="curve" smooth="yes"/>
      <point x="991.6" y="1267.8"/>
      <point x="1165.8" y="1081.6"/>
      <point x="1165.8" y="746.2" type="curve" smooth="yes"/>
      <point x="1165.8" y="409.2"/>
      <point x="995.2" y="221.60000000000002"/>
      <point x="745.6" y="221.60000000000002" type="curve" smooth="yes"/>
      <point x="518.4" y="221.60000000000002"/>
      <point x="375.4" y="360.0"/>
      <point x="375.4" y="578.0" type="curve"/>
      <point x="313.8" y="568.6" type="line"/>
      <point x="1303.8" y="568.6" type="line"/>
      <point x="1303.8" y="779.8" type="line"/>
      <point x="114.4" y="779.8" type="line"/>
      <point x="114.4" y="601.0" type="line" smooth="yes"/>
      <point x="114.4" y="216.8"/>
      <point x="377.8" y="-20.0"/>
    </contour>
  </outline>
</glyph>
<glyph name="Eopen" format="2">
  <advance height="2479.0" width="1346.4"/>
  <unicode hex="0190"/>
  <outline>
    <contour>
      <point x="662.2" y="-23.0" type="curve" smooth="yes"/>
      <point x="982.0" y="-23.0"/>
      <point x="1228.4" y="126.0"/>
      <point x="1229.2" y="404.0" type="curve"/>
      <point x="958.4" y="404.0" type="line"/>
      <point x="958.0" y="299.6"/>
      <point x="847.6" y="218.60000000000002"/>
      <point x="674.2" y="218.60000000000002" type="curve" smooth="yes"/>
      <point x="517.8" y="218.60000000000002"/>
      <point x="387.6" y="281.4"/>
      <point x="387.6" y="430.6" type="curve" smooth="yes"/>
      <point x="387.6" y="569.2"/>
      <point x="499.2" y="641.8"/>
      <point x="671.6" y="641.8" type="curve" smooth="yes"/>
      <point x="847.4" y="641.8" type="line"/>
      <point x="847.4" y="802.2" type="line"/>
      <point x="638.8" y="802.2" type="line"/>
      <point x="310.4" y="802.2"/>
      <point x="116.2" y="664.0"/>
      <point x="116.2" y="404.2" type="curve" smooth="yes"/>
      <point x="116.2" y="116.8"/>
      <point x="353.0" y="-23.0"/>
    </contour>
    <contour>
      <point x="638.8" y="709.8" type="curve"/>
      <point x="847.4" y="709.8" type="line"/>
      <point x="847.4" y="873.6" type="line"/>
      <point x="671.6" y="873.6" type="line" smooth="yes"/>
      <point x="502.2" y="873.6"/>
      <point x="414.2" y="965.6"/>
      <point x="414.2" y="1074.6" type="curve" smooth="yes"/>
      <point x="414.2" y="1192.2"/>
      <point x="516.8" y="1267.8"/>
      <point x="678.4" y="1267.8" type="curve" smooth="yes"/>
      <point x="829.2" y="1267.8"/>
      <point x="933.2" y="1199.8"/>
      <point x="933.6" y="1100.0" type="curve"/>
      <point x="1208.0" y="1100.0" type="line"/>
      <point x="1207.2" y="1346.4"/>
      <point x="987.2" y="1510.0"/>
      <point x="670.6" y="1510.0" type="curve" smooth="yes"/>
      <point x="360.2" y="1510.0"/>
      <point x="139.8" y="1353.8"/>
      <point x="139.8" y="1099.8" type="curve" smooth="yes"/>
      <point x="139.8" y="855.8"/>
      <point x="343.4" y="710.4"/>
    </contour>
  </outline>
</glyph>
<glyph name="Fhook" format="2">
  <advance height="2479.0" width="1229.4"/>
  <unicode hex="0191"/>
  <anchor x="623.0" y="12.0" name="bottom"/>
  <anchor x="311.8" y="309.4" name="cross"/>
  <anchor x="667.2" y="1676.0" name="top"/>
  <outline>
    <contour>
      <point x="176.8" y="0.0" type="line"/>
      <point x="176.8" y="-83.6" type="line" smooth="yes"/>
      <point x="176.8" y="-180.6"/>
      <point x="105.8" y="-207.2"/>
      <point x="20.0" y="-207.2" type="curve" smooth="yes"/>
      <point x="1.6" y="-207.2"/>
      <point x="-22.0" y="-206.6"/>
      <point x="-39.8" y="-203.6" type="curve"/>
      <point x="-39.8" y="-411.2" type="line"/>
      <point x="3.8" y="-419.0"/>
      <point x="41.0" y="-419.0"/>
      <point x="63.2" y="-419.0" type="curve" smooth="yes"/>
      <point x="282.0" y="-419.0"/>
      <point x="447.0" y="-341.4"/>
      <point x="447.0" y="-85.4" type="curve" smooth="yes"/>
      <point x="447.0" y="0.0" type="line"/>
    </contour>
    <component base="F" xOffset="30.400000000000002"/>
  </outline>
</glyph>
<glyph name="florin" format="2">
  <advance height="2479.0" width="903.8"/>
  <unicode hex="0192"/>
  <outline>
    <contour>
      <point x="769.0" y="1082.0" type="line"/>
      <point x="556.4" y="1082.0" type="line"/>
      <point x="556.4" y="1180.2" type="line" smooth="yes"/>
      <point x="557.2" y="1283.8"/>
      <point x="614.6" y="1336.2"/>
      <point x="715.0" y="1336.2" type="curve" smooth="yes"/>
      <point x="758.8" y="1336.2"/>
      <point x="784.8" y="1331.4"/>
      <point x="809.4" y="1325.4" type="curve"/>
      <point x="843.6" y="1533.6" type="line"/>
      <point x="798.0" y="1546.2"/>
      <point x="731.6" y="1556.0"/>
      <point x="671.0" y="1556.0" type="curve" smooth="yes"/>
      <point x="443.2" y="1556.0"/>
      <point x="295.8" y="1424.8"/>
      <point x="295.4" y="1180.2" type="curve" smooth="yes"/>
      <point x="295.4" y="1082.0" type="line"/>
      <point x="123.4" y="1082.0" type="line"/>
      <point x="123.4" y="886.4" type="line"/>
      <point x="295.4" y="886.4" type="line"/>
      <point x="295.4" y="-41.4" type="line" smooth="yes"/>
      <point x="295.4" y="-141.4"/>
      <point x="259.0" y="-203.0"/>
      <point x="171.8" y="-203.0" type="curve" smooth="yes"/>
      <point x="149.0" y="-203.0"/>
      <point x="97.2" y="-198.8"/>
      <point x="75.2" y="-191.4" type="curve"/>
      <point x="60.6" y="-404.0" type="line"/>
      <point x="109.4" y="-416.0"/>
      <point x="151.2" y="-419.0"/>
      <point x="198.6" y="-419.0" type="curve" smooth="yes"/>
      <point x="425.6" y="-419.0"/>
      <point x="556.4" y="-286.6"/>
      <point x="556.4" y="-41.4" type="curve" smooth="yes"/>
      <point x="556.4" y="886.4" type="line"/>
      <point x="769.0" y="886.4" type="line"/>
    </contour>
  </outline>
</glyph>
<glyph name="Ghook" format="2">
  <advance height="2479.0" width="1666.6"/>
  <unicode hex="0193"/>
  <anchor x="783.8" y="2.4000000000000004" name="bottom"/>
  <anchor x="786.8" y="1676.0" name="top"/>
  <outline>
    <contour>
      <point x="1418.0" y="1013.6" type="line"/>
      <point x="1418.0" y="1217.0" type="line" smooth="yes"/>
      <point x="1418.0" y="1336.6"/>
      <point x="1502.0" y="1364.8"/>
      <point x="1600.6" y="1364.8" type="curve" smooth="yes"/>
      <point x="1626.6" y="1364.8"/>
      <point x="1652.6" y="1360.6"/>
      <point x="1676.8" y="1358.2" type="curve"/>
      <point x="1676.8" y="1570.8" type="line"/>
      <point x="1634.4" y="1582.2"/>
      <point x="1590.8" y="1585.8"/>
      <point x="1546.6" y="1585.8" type="curve" smooth="yes"/>
      <point x="1321.8" y="1585.8"/>
      <point x="1152.6" y="1454.6"/>
      <point x="1146.6" y="1217.0" type="curve" smooth="yes"/>
      <point x="1143.0" y="1013.6" type="line"/>
    </contour>
    <component base="G"/>
  </outline>
</glyph>
<glyph name="Gamma-latin" format="2">
  <advance height="2479.0" width="1447.6"/>
  <unicode hex="0194"/>
  <outline>
    <contour>
      <point x="51.6" y="1489.0" type="line"/>
      <point x="691.4" y="135.4" type="line" smooth="yes"/>
      <point x="755.2" y="-5.0"/>
      <point x="792.2" y="-98.4"/>
      <point x="792.2" y="-165.2" type="curve" smooth="yes"/>
      <point x="792.2" y="-210.6"/>
      <point x="766.4" y="-241.8"/>
      <point x="724.0" y="-241.8" type="curve" smooth="yes"/>
      <point x="680.6" y="-241.8"/>
      <point x="655.4" y="-212.0"/>
      <point x="655.4" y="-166.0" type="curve" smooth="yes"/>
      <point x="655.4" y="-99.19999999999999"/>
      <point x="695.4" y="-3.3999999999999986"/>
      <point x="759.2" y="135.4" type="curve" smooth="yes"/>
      <point x="1395.8" y="1489.0" type="line"/>
      <point x="1091.2" y="1489.0" type="line"/>
      <point x="632.2" y="444.4" type="line" smooth="yes"/>
      <point x="444.0" y="27.4"/>
      <point x="385.4" y="-81.4"/>
      <point x="385.4" y="-174.8" type="curve" smooth="yes"/>
      <point x="385.4" y="-343.8"/>
      <point x="518.6" y="-442.0"/>
      <point x="724.0" y="-442.0" type="curve" smooth="yes"/>
      <point x="927.0" y="-442.0"/>
      <point x="1055.6" y="-339.0"/>
      <point x="1055.6" y="-179.2" type="curve" smooth="yes"/>
      <point x="1055.6" y="-74.2"/>
      <point x="966.4" y="107.0"/>
      <point x="813.6" y="444.0" type="curve" smooth="yes"/>
      <point x="354.6" y="1489.0" type="line"/>
    </contour>
  </outline>
</glyph>
<glyph name="hv" format="2">
  <advance height="2479.0" width="1987.0"/>
  <unicode hex="0195"/>
  <outline>
    <contour>
      <point x="135.0" y="0.0" type="line"/>
      <point x="398.6" y="0.0" type="line"/>
      <point x="398.6" y="654.4" type="line" smooth="yes"/>
      <point x="399.0" y="815.8"/>
      <point x="499.0" y="908.6"/>
      <point x="640.2" y="908.6" type="curve" smooth="yes"/>
      <point x="778.0" y="908.6"/>
      <point x="859.0" y="821.2"/>
      <point x="859.0" y="670.0" type="curve" smooth="yes"/>
      <point x="859.0" y="559.0" type="line"/>
      <point x="1123.0" y="559.0" type="line"/>
      <point x="1123.0" y="711.2" type="line" smooth="yes"/>
      <point x="1123.0" y="981.0"/>
      <point x="969.6" y="1132.0"/>
      <point x="738.4" y="1132.0" type="curve" smooth="yes"/>
      <point x="566.8" y="1132.0"/>
      <point x="458.0" y="1053.6"/>
      <point x="405.8" y="927.8" type="curve"/>
      <point x="393.0" y="927.8" type="line"/>
      <point x="393.0" y="1489.0" type="line"/>
      <point x="135.0" y="1489.0" type="line"/>
    </contour>
    <contour>
      <point x="1284.0" y="-20.0" type="curve" smooth="yes"/>
      <point x="1651.0" y="-20.0"/>
      <point x="1852.4" y="295.8"/>
      <point x="1852.4" y="984.4" type="curve" smooth="yes"/>
      <point x="1852.4" y="1117.0" type="line"/>
      <point x="1589.0" y="1117.0" type="line"/>
      <point x="1589.0" y="984.4" type="line" smooth="yes"/>
      <point x="1589.0" y="438.0"/>
      <point x="1471.4" y="200.60000000000002"/>
      <point x="1295.4" y="200.60000000000002" type="curve" smooth="yes"/>
      <point x="1215.8" y="200.60000000000002"/>
      <point x="1123.0" y="249.2"/>
      <point x="1123.0" y="437.6" type="curve" smooth="yes"/>
      <point x="1123.0" y="559.0" type="line"/>
      <point x="859.0" y="559.0" type="line"/>
      <point x="859.0" y="437.6" type="line" smooth="yes"/>
      <point x="859.0" y="137.6"/>
      <point x="1024.6" y="-20.0"/>
    </contour>
  </outline>
</glyph>
<glyph name="Khook" format="2">
  <advance height="2479.0" width="1454.0"/>
  <unicode hex="0198"/>
  <outline>
    <contour>
      <point x="146.4" y="0.0" type="line"/>
      <point x="416.6" y="0.0" type="line"/>
      <point x="416.6" y="416.6" type="line"/>
      <point x="600.6" y="616.4" type="line"/>
      <point x="1065.0" y="0.0" type="line"/>
      <point x="1389.0" y="0.0" type="line"/>
      <point x="770.2" y="806.6" type="line"/>
      <point x="1146.0" y="1203.2" type="line" smooth="yes"/>
      <point x="1215.6" y="1276.0"/>
      <point x="1272.0" y="1293.8"/>
      <point x="1347.6" y="1251.6" type="curve"/>
      <point x="1439.0" y="1444.8" type="line"/>
      <point x="1274.2" y="1546.4"/>
      <point x="1099.0" y="1526.4"/>
      <point x="958.6" y="1377.6" type="curve" smooth="yes"/>
      <point x="435.2" y="815.8" type="line"/>
      <point x="416.6" y="815.8" type="line"/>
      <point x="416.6" y="1489.0" type="line"/>
      <point x="146.4" y="1489.0" type="line"/>
    </contour>
  </outline>
</glyph>
<glyph name="khook" format="2">
  <advance height="2479.0" width="1151.4"/>
  <unicode hex="0199"/>
  <outline>
    <contour>
      <point x="842.2" y="0.0" type="line"/>
      <point x="1137.6" y="0.0" type="line"/>
      <point x="677.2" y="640.0" type="line"/>
      <point x="1104.6" y="1117.0" type="line"/>
      <point x="791.4" y="1117.0" type="line"/>
      <point x="413.0" y="688.4" type="line"/>
      <point x="398.6" y="688.4" type="line"/>
      <point x="398.6" y="1111.6" type="line"/>
      <point x="135.0" y="1111.6" type="line"/>
      <point x="135.0" y="0.0" type="line"/>
      <point x="398.6" y="0.0" type="line"/>
      <point x="398.6" y="323.8" type="line"/>
      <point x="515.0" y="451.0" type="line"/>
    </contour>
    <contour>
      <point x="398.6" y="1004.2" type="line"/>
      <point x="398.6" y="1176.4" type="line" smooth="yes"/>
      <point x="399.0" y="1273.4"/>
      <point x="473.4" y="1299.4"/>
      <point x="557.2" y="1299.4" type="curve" smooth="yes"/>
      <point x="580.8" y="1299.4"/>
      <point x="604.4" y="1297.0"/>
      <point x="626.2" y="1294.0" type="curve"/>
      <point x="626.2" y="1499.8" type="line"/>
      <point x="592.2" y="1506.4"/>
      <point x="542.6" y="1510.0"/>
      <point x="487.6" y="1510.0" type="curve" smooth="yes"/>
      <point x="307.4" y="1510.0"/>
      <point x="135.4" y="1432.4"/>
      <point x="135.0" y="1176.4" type="curve" smooth="yes"/>
      <point x="135.0" y="1004.2" type="line"/>
    </contour>
  </outline>
</glyph>
<glyph name="lambdastroke" format="2">
  <advance height="2479.0" width="1229.0"/>
  <unicode hex="019B"/>
  <outline>
    <contour>
      <point x="205.4" y="994.4" type="line"/>
      <point x="789.4" y="1193.2" type="line"/>
      <point x="789.4" y="1381.6" type="line"/>
      <point x="205.4" y="1183.0" type="line"/>
    </contour>
    <component base="lambda"/>
  </outline>
</glyph>
<glyph name="Mturned" format="2">
  <advance height="2479.0" width="1908.0"/>
  <unicode hex="019C"/>
  <outline>
    <contour>
      <point x="519.4" y="-22.6" type="curve" smooth="yes"/>
      <point x="822.0" y="-22.6"/>
      <point x="949.8" y="200.4"/>
      <point x="949.8" y="506.0" type="curve"/>
      <point x="852.4" y="503.0" type="line"/>
      <point x="852.4" y="330.6"/>
      <point x="785.0" y="198.2"/>
      <point x="614.6" y="198.2" type="curve" smooth="yes"/>
      <point x="502.0" y="198.2"/>
      <point x="416.6" y="256.4"/>
      <point x="416.6" y="430.4" type="curve" smooth="yes"/>
      <point x="416.6" y="1489.0" type="line"/>
      <point x="146.4" y="1489.0" type="line"/>
      <point x="146.4" y="430.4" type="line" smooth="yes"/>
      <point x="146.4" y="98.4"/>
      <point x="296.0" y="-22.6"/>
    </contour>
    <contour>
      <point x="1192.4" y="-22.6" type="curve" smooth="yes"/>
      <point x="1486.4" y="-22.6"/>
      <point x="1615.4" y="204.0"/>
      <point x="1615.4" y="506.0" type="curve"/>
      <point x="1520.0" y="503.0" type="line"/>
      <point x="1520.0" y="331.8"/>
      <point x="1454.2" y="198.2"/>
      <point x="1283.4" y="198.2" type="curve" smooth="yes"/>
      <point x="1171.4" y="198.2"/>
      <point x="1085.8" y="256.4"/>
      <point x="1085.8" y="430.4" type="curve"/>
      <point x="1085.8" y="1489.0" type="line"/>
      <point x="815.8" y="1489.0" type="line"/>
      <point x="815.8" y="430.4" type="line"/>
      <point x="815.8" y="95.4"/>
      <point x="979.8" y="-22.6"/>
    </contour>
    <contour>
      <point x="1491.0" y="0.0" type="line"/>
      <point x="1761.0" y="0.0" type="line"/>
      <point x="1761.0" y="1489.0" type="line"/>
      <point x="1491.0" y="1489.0" type="line"/>
    </contour>
  </outline>
</glyph>
<glyph name="Nhookleft" format="2">
  <advance height="2479.0" width="1543.8"/>
  <unicode hex="019D"/>
  <anchor x="785.6" y="0.0" name="bottom"/>
  <anchor x="1423.6" y="0.0" name="right"/>
  <anchor x="785.6" y="1676.0" name="top"/>
  <outline>
    <contour>
      <point x="172.6" y="0.0" type="line"/>
      <point x="172.6" y="-83.6" type="line" smooth="yes"/>
      <point x="172.6" y="-180.6"/>
      <point x="101.6" y="-207.2"/>
      <point x="16.2" y="-207.2" type="curve" smooth="yes"/>
      <point x="-2.200000000000001" y="-207.2"/>
      <point x="-26.4" y="-206.6"/>
      <point x="-43.6" y="-203.6" type="curve"/>
      <point x="-43.6" y="-411.2" type="line"/>
      <point x="-11.200000000000001" y="-419.0"/>
      <point x="48.8" y="-419.0"/>
      <point x="85.8" y="-419.0" type="curve" smooth="yes"/>
      <point x="268.0" y="-419.0"/>
      <point x="442.6" y="-341.4"/>
      <point x="442.6" y="-85.4" type="curve" smooth="yes"/>
      <point x="442.6" y="0.0" type="line"/>
    </contour>
    <component base="N" xOffset="26.2"/>
  </outline>
</glyph>
<glyph name="Ohorn" format="2">
  <advance height="2479.0" width="1638.6"/>
  <unicode hex="01A0"/>
  <anchor x="794.0" y="0.0" name="bottom"/>
  <anchor x="961.6" y="-1.1999999999999993" name="ogonek"/>
  <anchor x="187.6" y="1489.0" name="tonos"/>
  <anchor x="794.0" y="1676.0" name="top"/>
  <outline>
    <contour>
      <point x="1422.2" y="1573.8" type="line"/>
      <point x="1422.2" y="1396.8"/>
      <point x="1370.4" y="1293.0"/>
      <point x="1226.2" y="1293.0" type="curve"/>
      <point x="1226.2" y="1139.4" type="line"/>
      <point x="1489.0" y="1139.4"/>
      <point x="1612.0" y="1297.8"/>
      <point x="1612.0" y="1573.8" type="curve"/>
    </contour>
    <component base="O"/>
  </outline>
</glyph>
<glyph name="ohorn" format="2">
  <advance height="2479.0" width="1271.4"/>
  <unicode hex="01A1"/>
  <anchor x="622.6" y="0.0" name="bottom"/>
  <anchor x="765.8" y="0.0" name="ogonek"/>
  <anchor x="622.6" y="1303.0" name="top"/>
  <outline>
    <contour>
      <point x="1095.0" y="1188.2" type="line"/>
      <point x="1095.0" y="1031.0"/>
      <point x="1066.4" y="931.4"/>
      <point x="915.4" y="931.4" type="curve"/>
      <point x="915.4" y="808.2" type="line"/>
      <point x="1169.2" y="808.2"/>
      <point x="1271.4" y="951.2"/>
      <point x="1271.4" y="1188.2" type="curve"/>
    </contour>
    <component base="o"/>
  </outline>
</glyph>
<glyph name="Oi" format="2">
  <advance height="2479.0" width="1865.4"/>
  <unicode hex="01A2"/>
  <outline>
    <contour>
      <point x="1298.6" y="841.8" type="line" name="hr00"/>
      <point x="1028.6" y="841.8" type="line"/>
      <point x="1028.6" y="286.0" type="line"/>
      <point x="975.2" y="234.8"/>
      <point x="882.4" y="203.4"/>
      <point x="773.6" y="203.4" type="curve" smooth="yes"/>
      <point x="506.4" y="203.4"/>
      <point x="393.0" y="385.6"/>
      <point x="393.0" y="682.4" type="curve" smooth="yes"/>
      <point x="393.0" y="794.4" type="line"/>
      <point x="109.2" y="791.4" type="line"/>
      <point x="109.2" y="682.4" type="line" smooth="yes"/>
      <point x="109.2" y="245.8"/>
      <point x="350.6" y="-20.0"/>
      <point x="761.8" y="-20.0" type="curve" smooth="yes"/>
      <point x="1010.4" y="-20.0"/>
      <point x="1212.4" y="74.4"/>
      <point x="1298.6" y="189.6" type="curve"/>
    </contour>
    <contour>
      <point x="1298.6" y="1300.0" type="line"/>
      <point x="1214.8" y="1412.8"/>
      <point x="1016.4" y="1510.0"/>
      <point x="772.0" y="1510.0" type="curve" smooth="yes"/>
      <point x="355.4" y="1510.0"/>
      <point x="109.2" y="1249.8"/>
      <point x="109.2" y="807.2" type="curve" smooth="yes"/>
      <point x="109.2" y="696.2" type="line"/>
      <point x="393.0" y="695.0" type="line"/>
      <point x="393.0" y="807.2" type="line" smooth="yes"/>
      <point x="393.0" y="1116.6"/>
      <point x="504.0" y="1284.2"/>
      <point x="776.6" y="1284.2" type="curve" smooth="yes"/>
      <point x="879.2" y="1284.2"/>
      <point x="975.8" y="1255.4"/>
      <point x="1028.6" y="1202.4" type="curve"/>
      <point x="1028.6" y="656.8" type="line"/>
      <point x="1298.6" y="659.2" type="line"/>
    </contour>
    <contour>
      <point x="1718.4" y="1489.0" type="line"/>
      <point x="1514.4" y="1489.0" type="line"/>
      <point x="1158.6" y="1331.6" type="line"/>
      <point x="1158.6" y="1057.0" type="line"/>
      <point x="1449.6" y="1181.2" type="line"/>
      <point x="1449.6" y="-419.0" type="line"/>
      <point x="1718.4" y="-419.0" type="line"/>
    </contour>
  </outline>
</glyph>
<glyph name="oi" format="2">
  <advance height="2479.0" width="1511.0"/>
  <unicode hex="01A3"/>
  <outline>
    <contour>
      <point x="589.8" y="191.4" type="curve" smooth="yes"/>
      <point x="422.8" y="191.4"/>
      <point x="339.4" y="333.8"/>
      <point x="339.8" y="525.4" type="curve" smooth="yes"/>
      <point x="339.8" y="556.6" type="line" smooth="yes"/>
      <point x="339.8" y="748.4"/>
      <point x="397.8" y="919.0"/>
      <point x="583.8" y="919.0" type="curve" smooth="yes"/>
      <point x="648.6" y="919.0"/>
      <point x="693.2" y="896.0"/>
      <point x="726.8" y="861.0" type="curve"/>
      <point x="726.8" y="560.2" type="line"/>
      <point x="997.4" y="546.2" type="line"/>
      <point x="997.4" y="915.4" type="line"/>
      <point x="930.6" y="1021.0"/>
      <point x="789.2" y="1132.0"/>
      <point x="593.0" y="1132.0" type="curve" smooth="yes"/>
      <point x="252.4" y="1132.0"/>
      <point x="87.4" y="887.0"/>
      <point x="87.4" y="556.6" type="curve" smooth="yes"/>
      <point x="87.4" y="525.4" type="line" smooth="yes"/>
      <point x="87.0" y="223.4"/>
      <point x="256.0" y="-20.0"/>
      <point x="587.6" y="-20.0" type="curve" smooth="yes"/>
      <point x="799.4" y="-20.0"/>
      <point x="920.8" y="68.4"/>
      <point x="997.4" y="181.0" type="curve"/>
      <point x="997.4" y="601.2" type="line"/>
      <point x="726.8" y="601.2" type="line"/>
      <point x="726.8" y="241.4" type="line"/>
      <point x="692.6" y="213.0"/>
      <point x="649.2" y="191.4"/>
    </contour>
    <contour>
      <point x="1377.8" y="1117.0" type="line"/>
      <point x="1186.0" y="1117.0" type="line"/>
      <point x="875.8" y="975.0" type="line"/>
      <point x="875.8" y="696.4" type="line"/>
      <point x="1118.6" y="809.6" type="line"/>
      <point x="1118.6" y="-414.8" type="line"/>
      <point x="1377.8" y="-419.0" type="line"/>
    </contour>
  </outline>
</glyph>
<glyph name="Phook" format="2">
  <advance height="2479.0" width="1702.2"/>
  <unicode hex="01A4"/>
  <anchor x="502.0" y="1489.0" name="tonos"/>
  <anchor x="1036.8" y="1676.0" name="top"/>
  <outline>
    <contour>
      <point x="324.8" y="1004.4" type="line"/>
      <point x="324.8" y="1080.2" type="line" smooth="yes"/>
      <point x="324.4" y="1171.2"/>
      <point x="346.8" y="1264.2"/>
      <point x="466.2" y="1264.2" type="curve" smooth="yes"/>
      <point x="657.4" y="1264.2" type="line"/>
      <point x="657.4" y="1489.0" type="line"/>
      <point x="464.4" y="1489.0" type="line" smooth="yes"/>
      <point x="224.4" y="1489.0"/>
      <point x="81.0" y="1345.2"/>
      <point x="81.4" y="1134.6" type="curve" smooth="yes"/>
      <point x="81.4" y="1004.4" type="line"/>
    </contour>
    <component base="P" xOffset="384.6"/>
  </outline>
</glyph>
<glyph name="phook" format="2">
  <advance height="2479.0" width="1279.6"/>
  <unicode hex="01A5"/>
  <anchor x="266.6" y="-411.8" name="bottom"/>
  <anchor x="1296.8" y="-487.8" name="bottom0315"/>
  <anchor x="266.4" y="-163.0" name="cross"/>
  <anchor x="685.0" y="1303.0" name="top"/>
  <outline>
    <contour>
      <point x="393.8" y="1117.0" type="line"/>
      <point x="393.8" y="1181.4"/>
      <point x="439.8" y="1214.2"/>
      <point x="528.8" y="1213.4" type="curve" smooth="yes"/>
      <point x="560.8" y="1212.6"/>
      <point x="595.8" y="1206.2"/>
      <point x="613.0" y="1202.4" type="curve"/>
      <point x="613.0" y="1388.2" type="line"/>
      <point x="588.6" y="1394.8"/>
      <point x="538.2" y="1402.8"/>
      <point x="474.8" y="1402.8" type="curve" smooth="yes"/>
      <point x="248.2" y="1402.8"/>
      <point x="135.0" y="1313.4"/>
      <point x="135.0" y="1117.0" type="curve"/>
    </contour>
    <component base="p"/>
  </outline>
</glyph>
<glyph name="Yr" format="2">
  <advance height="2479.0" width="1471.6"/>
  <unicode hex="01A6"/>
  <outline>
    <contour>
      <point x="272.4" y="313.2" type="line"/>
      <point x="658.8" y="313.2" type="line" smooth="yes"/>
      <point x="1003.8" y="313.2"/>
      <point x="1193.6" y="505.2"/>
      <point x="1193.6" y="757.8" type="curve" smooth="yes"/>
      <point x="1193.6" y="1011.0"/>
      <point x="1003.8" y="1204.2"/>
      <point x="658.8" y="1204.2" type="curve" smooth="yes"/>
      <point x="272.4" y="1204.2" type="line"/>
      <point x="272.4" y="988.6" type="line"/>
      <point x="658.8" y="988.6" type="line" smooth="yes"/>
      <point x="847.0" y="988.6"/>
      <point x="935.6" y="889.0"/>
      <point x="935.6" y="755.4" type="curve" smooth="yes"/>
      <point x="935.6" y="622.8"/>
      <point x="847.0" y="528.0"/>
      <point x="658.8" y="528.0" type="curve" smooth="yes"/>
      <point x="272.4" y="528.0" type="line"/>
    </contour>
    <contour>
      <point x="1111.0" y="-419.0" type="line"/>
      <point x="1412.0" y="-419.0" type="line"/>
      <point x="952.8" y="422.8" type="line"/>
      <point x="658.6" y="422.8" type="line"/>
    </contour>
    <contour>
      <point x="146.4" y="0.0" type="line"/>
      <point x="416.6" y="0.0" type="line"/>
      <point x="416.6" y="1489.0" type="line"/>
      <point x="146.4" y="1489.0" type="line"/>
    </contour>
  </outline>
</glyph>
<glyph name="Tonetwo" format="2">
  <advance height="2479.0" width="1329.2"/>
  <unicode hex="01A7"/>
  <anchor x="661.2" y="-15.6" name="bottom"/>
  <anchor x="662.4" y="0.0" name="cedilla"/>
  <anchor x="665.4" y="1676.0" name="top"/>
  <outline>
    <contour>
      <point x="372.6" y="1079.8" type="line"/>
      <point x="386.6" y="1206.8"/>
      <point x="493.0" y="1281.2"/>
      <point x="654.0" y="1281.2" type="curve" smooth="yes"/>
      <point x="822.8" y="1281.2"/>
      <point x="923.4" y="1199.0"/>
      <point x="923.8" y="1087.8" type="curve" smooth="yes"/>
      <point x="925.0" y="963.0"/>
      <point x="793.0" y="911.2"/>
      <point x="670.6" y="881.8" type="curve" smooth="yes"/>
      <point x="530.6" y="847.4" type="line" smooth="yes"/>
      <point x="306.6" y="794.4"/>
      <point x="93.6" y="676.8"/>
      <point x="92.8" y="418.0" type="curve" smooth="yes"/>
      <point x="93.6" y="155.8"/>
      <point x="301.0" y="-22.4"/>
      <point x="658.2" y="-22.4" type="curve" smooth="yes"/>
      <point x="1005.8" y="-22.4"/>
      <point x="1225.2" y="144.0"/>
      <point x="1236.4" y="440.0" type="curve"/>
      <point x="971.2" y="440.0" type="line"/>
      <point x="959.8" y="283.8"/>
      <point x="828.8" y="207.8"/>
      <point x="660.6" y="207.8" type="curve" smooth="yes"/>
      <point x="484.8" y="207.8"/>
      <point x="363.8" y="292.8"/>
      <point x="363.0" y="419.8" type="curve" smooth="yes"/>
      <point x="363.8" y="536.4"/>
      <point x="470.2" y="585.8"/>
      <point x="630.8" y="627.0" type="curve" smooth="yes"/>
      <point x="800.2" y="671.0" type="line" smooth="yes"/>
      <point x="1045.6" y="733.6"/>
      <point x="1197.0" y="857.0"/>
      <point x="1196.6" y="1070.8" type="curve" smooth="yes"/>
      <point x="1197.8" y="1334.0"/>
      <point x="963.0" y="1510.0"/>
      <point x="650.4" y="1510.0" type="curve" smooth="yes"/>
      <point x="333.2" y="1510.0"/>
      <point x="119.0" y="1331.6"/>
      <point x="113.8" y="1079.8" type="curve"/>
    </contour>
  </outline>
</glyph>
<glyph name="tonetwo" format="2">
  <advance height="2479.0" width="1124.2"/>
  <unicode hex="01A8"/>
  <outline>
    <contour>
      <point x="559.2" y="-21.8" type="curve" smooth="yes"/>
      <point x="833.0" y="-21.8"/>
      <point x="1005.8" y="99.6"/>
      <point x="1038.6" y="305.2" type="curve"/>
      <point x="781.2" y="329.2" type="line"/>
      <point x="758.6" y="228.4"/>
      <point x="680.2" y="176.8"/>
      <point x="559.8" y="176.8" type="curve" smooth="yes"/>
      <point x="434.2" y="176.8"/>
      <point x="351.8" y="234.6"/>
      <point x="351.4" y="311.0" type="curve" smooth="yes"/>
      <point x="351.8" y="374.0"/>
      <point x="399.2" y="415.0"/>
      <point x="502.2" y="437.6" type="curve" smooth="yes"/>
      <point x="692.6" y="477.4" type="line" smooth="yes"/>
      <point x="906.8" y="522.2"/>
      <point x="1007.6" y="629.8"/>
      <point x="1007.2" y="792.6" type="curve" smooth="yes"/>
      <point x="1007.6" y="999.2"/>
      <point x="823.8" y="1132.0"/>
      <point x="555.2" y="1132.0" type="curve" smooth="yes"/>
      <point x="293.4" y="1132.0"/>
      <point x="142.4" y="1011.0"/>
      <point x="105.6" y="821.4" type="curve"/>
      <point x="346.0" y="795.0" type="line"/>
      <point x="366.4" y="868.8"/>
      <point x="430.0" y="935.4"/>
      <point x="551.6" y="935.4" type="curve" smooth="yes"/>
      <point x="661.4" y="935.4"/>
      <point x="745.2" y="883.0"/>
      <point x="744.4" y="806.6" type="curve" smooth="yes"/>
      <point x="745.2" y="742.8"/>
      <point x="700.2" y="703.4"/>
      <point x="586.4" y="678.2" type="curve" smooth="yes"/>
      <point x="396.6" y="637.2" type="line" smooth="yes"/>
      <point x="185.0" y="591.4"/>
      <point x="82.8" y="494.2"/>
      <point x="82.0" y="334.2" type="curve" smooth="yes"/>
      <point x="82.8" y="123.4"/>
      <point x="279.8" y="-21.8"/>
    </contour>
  </outline>
</glyph>
<glyph name="eshreversedloop" format="2">
  <advance height="2479.0" width="1258.6"/>
  <unicode hex="01AA"/>
  <outline>
    <contour>
      <point x="641.0" y="1039.4" type="line" name="hr00"/>
      <point x="641.0" y="-38.4" type="line" smooth="yes"/>
      <point x="641.0" y="-291.0"/>
      <point x="767.8" y="-428.2"/>
      <point x="992.4" y="-428.2" type="curve" smooth="yes"/>
      <point x="1039.4" y="-428.2"/>
      <point x="1091.4" y="-423.4"/>
      <point x="1131.6" y="-411.8" type="curve"/>
      <point x="1131.6" y="-200.0" type="line"/>
      <point x="1101.6" y="-206.0"/>
      <point x="1073.8" y="-209.0"/>
      <point x="1050.0" y="-209.0" type="curve" smooth="yes"/>
      <point x="961.4" y="-209.0"/>
      <point x="911.6" y="-159.0"/>
      <point x="911.6" y="-38.4" type="curve" smooth="yes"/>
      <point x="911.6" y="1171.4" type="line"/>
    </contour>
    <contour>
      <point x="127.0" y="1171.4" type="curve" smooth="yes"/>
      <point x="127.8" y="958.6"/>
      <point x="302.6" y="784.6"/>
      <point x="519.2" y="784.6" type="curve" smooth="yes"/>
      <point x="733.6" y="784.6"/>
      <point x="911.2" y="959.4"/>
      <point x="911.6" y="1171.4" type="curve" smooth="yes"/>
      <point x="912.0" y="1383.6"/>
      <point x="733.6" y="1557.2"/>
      <point x="519.2" y="1557.2" type="curve" smooth="yes"/>
      <point x="301.4" y="1557.2"/>
      <point x="126.6" y="1383.6"/>
    </contour>
    <contour>
      <point x="520.4" y="1018.8" type="curve" smooth="yes"/>
      <point x="432.6" y="1018.8"/>
      <point x="368.0" y="1070.0"/>
      <point x="368.4" y="1174.4" type="curve" smooth="yes"/>
      <point x="369.2" y="1274.6"/>
      <point x="432.6" y="1327.2"/>
      <point x="520.4" y="1327.2" type="curve" smooth="yes"/>
      <point x="600.4" y="1327.2"/>
      <point x="667.4" y="1275.8"/>
      <point x="667.8" y="1174.4" type="curve" smooth="yes"/>
      <point x="668.6" y="1070.0"/>
      <point x="601.6" y="1018.8"/>
    </contour>
  </outline>
</glyph>
<glyph name="tpalatalhook" format="2">
  <advance height="2479.0" width="785.8"/>
  <unicode hex="01AB"/>
  <anchor x="435.2" y="0.0" name="bottom"/>
  <anchor x="528.0" y="0.0" name="cedilla"/>
  <anchor x="598.8" y="1562.0" name="raccent"/>
  <anchor x="342.0" y="1510.2" name="top"/>
  <outline>
    <contour>
      <point x="518.2" y="187.6" type="line"/>
      <point x="518.2" y="-85.4" type="line" smooth="yes"/>
      <point x="518.2" y="-198.8"/>
      <point x="431.2" y="-226.6"/>
      <point x="347.8" y="-226.6" type="curve" smooth="yes"/>
      <point x="319.6" y="-226.6"/>
      <point x="297.2" y="-223.6"/>
      <point x="276.6" y="-220.6" type="curve"/>
      <point x="276.6" y="-405.6" type="line"/>
      <point x="314.2" y="-415.4"/>
      <point x="353.4" y="-417.8"/>
      <point x="396.8" y="-417.8" type="curve" smooth="yes"/>
      <point x="588.6" y="-417.8"/>
      <point x="720.2" y="-298.2"/>
      <point x="720.2" y="-85.4" type="curve" smooth="yes"/>
      <point x="720.2" y="229.4" type="line"/>
    </contour>
    <component base="t"/>
  </outline>
</glyph>
<glyph name="Thook" format="2">
  <advance height="2479.0" width="1425.2"/>
  <unicode hex="01AC"/>
  <outline>
    <contour>
      <point x="749.4" y="1489.0" type="line"/>
      <point x="452.8" y="1489.0" type="line" smooth="yes"/>
      <point x="215.2" y="1489.0"/>
      <point x="81.4" y="1351.6"/>
      <point x="81.4" y="1135.2" type="curve" smooth="yes"/>
      <point x="81.4" y="1010.4" type="line"/>
      <point x="309.6" y="1010.4" type="line"/>
      <point x="309.6" y="1087.2" type="line" smooth="yes"/>
      <point x="309.6" y="1174.8"/>
      <point x="338.8" y="1263.0"/>
      <point x="452.8" y="1263.0" type="curve" smooth="yes"/>
      <point x="749.4" y="1263.0" type="line"/>
    </contour>
    <contour>
      <point x="1343.8" y="1489.0" type="line"/>
      <point x="526.0" y="1489.0" type="line"/>
      <point x="526.0" y="1263.0" type="line"/>
      <point x="616.2" y="1263.0" type="line"/>
      <point x="616.2" y="0.0" type="line"/>
      <point x="883.8" y="0.0" type="line"/>
      <point x="883.8" y="1263.0" type="line"/>
      <point x="1343.8" y="1263.0" type="line"/>
    </contour>
  </outline>
</glyph>
<glyph name="thook" format="2">
  <advance height="2479.0" width="790.2"/>
  <unicode hex="01AD"/>
  <outline>
    <contour>
      <point x="558.2" y="-15.4" type="curve" smooth="yes"/>
      <point x="633.0" y="-13.4"/>
      <point x="684.8" y="1.4000000000000004"/>
      <point x="713.0" y="11.2" type="curve"/>
      <point x="668.8" y="216.4" type="line"/>
      <point x="654.4" y="213.0"/>
      <point x="625.0" y="206.2"/>
      <point x="592.6" y="206.2" type="curve" smooth="yes"/>
      <point x="525.8" y="206.2"/>
      <point x="472.8" y="230.2"/>
      <point x="472.8" y="335.6" type="curve" smooth="yes"/>
      <point x="472.8" y="1148.8" type="line"/>
      <point x="209.8" y="1148.8" type="line"/>
      <point x="209.8" y="292.2" type="line" smooth="yes"/>
      <point x="208.6" y="82.2"/>
      <point x="360.4" y="-21.4"/>
    </contour>
    <contour>
      <point x="51.2" y="913.6" type="line"/>
      <point x="693.0" y="913.6" type="line"/>
      <point x="693.0" y="1117.0" type="line"/>
      <point x="51.2" y="1117.0" type="line"/>
    </contour>
    <contour>
      <point x="209.8" y="1004.2" type="line"/>
      <point x="472.8" y="1004.2" type="line"/>
      <point x="472.8" y="1176.4" type="line" smooth="yes"/>
      <point x="472.8" y="1273.4"/>
      <point x="547.6" y="1299.4"/>
      <point x="631.0" y="1299.4" type="curve" smooth="yes"/>
      <point x="655.6" y="1299.4"/>
      <point x="679.2" y="1297.0"/>
      <point x="700.6" y="1294.0" type="curve"/>
      <point x="700.6" y="1499.8" type="line"/>
      <point x="666.4" y="1506.4"/>
      <point x="617.4" y="1510.0"/>
      <point x="562.4" y="1510.0" type="curve" smooth="yes"/>
      <point x="382.2" y="1510.0"/>
      <point x="209.8" y="1432.4"/>
      <point x="209.8" y="1176.4" type="curve" smooth="yes"/>
    </contour>
  </outline>
</glyph>
<glyph name="Tretroflexhook" format="2">
  <advance height="2479.0" width="1351.0"/>
  <unicode hex="01AE"/>
  <anchor x="674.6" y="0.0" name="bottom"/>
  <anchor x="686.6" y="0.0" name="cedilla"/>
  <anchor x="674.6" y="727.2" name="cross"/>
  <anchor x="927.8" y="103.6" name="cyrtic"/>
  <anchor x="760.8" y="0.0" name="right"/>
  <anchor x="675.8" y="1676.0" name="top"/>
  <outline>
    <contour>
      <point x="809.6" y="0.0" type="line"/>
      <point x="541.4" y="0.0" type="line"/>
      <point x="541.4" y="-86.0" type="line" smooth="yes"/>
      <point x="541.4" y="-342.0"/>
      <point x="721.2" y="-419.0"/>
      <point x="904.6" y="-419.0" type="curve"/>
      <point x="1033.0" y="-419.0" type="line"/>
      <point x="1033.0" y="-203.0" type="line"/>
      <point x="973.2" y="-203.0" type="line"/>
      <point x="889.0" y="-203.0"/>
      <point x="809.6" y="-182.4"/>
      <point x="809.6" y="-85.4" type="curve" smooth="yes"/>
    </contour>
    <component base="T"/>
  </outline>
</glyph>
<glyph name="Uhorn" format="2">
  <advance height="2479.0" width="1778.8"/>
  <unicode hex="01AF"/>
  <anchor x="751.0" y="-8.399999999999999" name="bottom"/>
  <anchor x="925.2" y="4.0" name="ogonek"/>
  <anchor x="853.2" y="0.0" name="right"/>
  <anchor x="751.0" y="1676.0" name="top"/>
  <outline>
    <contour>
      <point x="1507.6" y="1555.6" type="line"/>
      <point x="1507.6" y="1363.6"/>
      <point x="1475.8" y="1252.0"/>
      <point x="1259.0" y="1252.0" type="curve"/>
      <point x="1259.0" y="1095.4" type="line"/>
      <point x="1589.4" y="1095.4"/>
      <point x="1697.4" y="1262.2"/>
      <point x="1697.4" y="1555.6" type="curve"/>
    </contour>
    <component base="U"/>
  </outline>
</glyph>
<glyph name="uhorn" format="2">
  <advance height="2479.0" width="1392.8"/>
  <unicode hex="01B0"/>
  <anchor x="659.2" y="0.0" name="bottom"/>
  <anchor x="1115.8" y="0.0" name="ogonek"/>
  <anchor x="628.8" y="1303.0" name="top"/>
  <outline>
    <contour>
      <point x="1258.0" y="1175.0" type="line"/>
      <point x="1257.6" y="1013.8"/>
      <point x="1241.8" y="939.4"/>
      <point x="1046.4" y="939.4" type="curve"/>
      <point x="1046.4" y="807.6" type="line"/>
      <point x="1338.0" y="807.6"/>
      <point x="1427.4" y="932.2"/>
      <point x="1427.8" y="1175.0" type="curve"/>
    </contour>
    <component base="u" xOffset="4.800000000000001"/>
  </outline>
</glyph>
<glyph name="Upsilon-latin" format="2">
  <advance height="2479.0" width="1582.2"/>
  <unicode hex="01B1"/>
  <outline>
    <contour>
      <point x="102.4" y="688.8" type="curve" smooth="yes"/>
      <point x="102.4" y="273.4"/>
      <point x="388.8" y="-20.0"/>
      <point x="791.6" y="-20.0" type="curve" smooth="yes"/>
      <point x="1194.0" y="-20.0"/>
      <point x="1480.2" y="273.4"/>
      <point x="1480.2" y="688.8" type="curve" smooth="yes"/>
      <point x="1480.2" y="948.8"/>
      <point x="1369.2" y="1138.8"/>
      <point x="1191.2" y="1251.6" type="curve"/>
      <point x="1191.2" y="1263.0" type="line"/>
      <point x="1480.2" y="1263.0" type="line"/>
      <point x="1480.2" y="1489.0" type="line"/>
      <point x="910.0" y="1489.0" type="line"/>
      <point x="910.0" y="1204.4" type="line"/>
      <point x="1078.8" y="1134.4"/>
      <point x="1210.6" y="942.2"/>
      <point x="1210.6" y="705.2" type="curve" smooth="yes"/>
      <point x="1210.6" y="431.4"/>
      <point x="1036.4" y="222.8"/>
      <point x="791.6" y="222.8" type="curve" smooth="yes"/>
      <point x="546.2" y="222.8"/>
      <point x="372.6" y="431.4"/>
      <point x="372.6" y="705.2" type="curve" smooth="yes"/>
      <point x="372.6" y="942.2"/>
      <point x="504.0" y="1134.4"/>
      <point x="672.8" y="1204.4" type="curve"/>
      <point x="672.8" y="1489.0" type="line"/>
      <point x="102.4" y="1489.0" type="line"/>
      <point x="102.4" y="1263.0" type="line"/>
      <point x="391.4" y="1263.0" type="line"/>
      <point x="391.4" y="1251.6" type="line"/>
      <point x="213.4" y="1137.0"/>
      <point x="102.4" y="948.8"/>
    </contour>
  </outline>
</glyph>
<glyph name="Vhook" format="2">
  <advance height="2479.0" width="1549.2"/>
  <unicode hex="01B2"/>
  <outline>
    <contour>
      <point x="736.6" y="-23.0" type="curve"/>
      <point x="1148.8" y="-23.6"/>
      <point x="1401.6" y="312.8"/>
      <point x="1402.2" y="811.8" type="curve" smooth="yes"/>
      <point x="1402.2" y="1237.4"/>
      <point x="1218.4" y="1506.4"/>
      <point x="956.0" y="1506.4" type="curve" smooth="yes"/>
      <point x="884.8" y="1506.4"/>
      <point x="801.8" y="1486.2"/>
      <point x="729.4" y="1456.0" type="curve"/>
      <point x="759.6" y="1237.2" type="line"/>
      <point x="803.8" y="1262.6"/>
      <point x="858.2" y="1270.0"/>
      <point x="886.6" y="1270.0" type="curve" smooth="yes"/>
      <point x="1026.4" y="1270.0"/>
      <point x="1130.4" y="1094.8"/>
      <point x="1132.6" y="802.8" type="curve" smooth="yes"/>
      <point x="1134.0" y="458.6"/>
      <point x="988.8" y="219.8"/>
      <point x="736.6" y="218.60000000000002" type="curve" smooth="yes"/>
      <point x="551.4" y="218.60000000000002"/>
      <point x="416.6" y="347.6"/>
      <point x="416.6" y="538.8" type="curve" smooth="yes"/>
      <point x="416.6" y="1489.0" type="line"/>
      <point x="146.4" y="1489.0" type="line"/>
      <point x="146.4" y="515.8" type="line" smooth="yes"/>
      <point x="146.4" y="188.4"/>
      <point x="387.2" y="-23.0"/>
    </contour>
  </outline>
</glyph>
<glyph name="Yhook" format="2">
  <advance height="2479.0" width="1560.0"/>
  <unicode hex="01B3"/>
  <outline>
    <contour>
      <point x="736.0" y="795.0" type="line"/>
      <point x="771.0" y="795.0" type="line"/>
      <point x="771.0" y="830.0" type="line"/>
      <point x="736.0" y="830.0" type="line"/>
    </contour>
    <contour>
      <point x="53.8" y="1489.0" type="line"/>
      <point x="618.6" y="588.4" type="line"/>
      <point x="618.6" y="0.0" type="line"/>
      <point x="888.0" y="0.0" type="line"/>
      <point x="888.0" y="588.4" type="line"/>
      <point x="1265.2" y="1191.4" type="line" smooth="yes"/>
      <point x="1321.4" y="1280.2"/>
      <point x="1376.6" y="1298.2"/>
      <point x="1465.8" y="1268.0" type="curve"/>
      <point x="1526.2" y="1474.4" type="line"/>
      <point x="1356.6" y="1543.8"/>
      <point x="1169.2" y="1509.8"/>
      <point x="1053.6" y="1316.6" type="curve" smooth="yes"/>
      <point x="753.6" y="816.0" type="line"/>
      <point x="351.6" y="1489.0" type="line"/>
    </contour>
  </outline>
</glyph>
